<svg id="Layer_1" data-name="Layer 1" xmlns="http://www.w3.org/2000/svg" viewBox="0 0 800 800"><defs><style>.cls-2{fill:#ec1c24;}</style></defs><title>Booming</title><path class="cls-2" d="M227.5,233.52c22.93,0,42.52,2.18,58.59,6.36s29.3,10.21,39.51,18.08a69.65,69.65,0,0,1,22.27,28.29q7,16.57,7,37.16a71.76,71.76,0,0,1-3.18,21.6,65.06,65.06,0,0,1-10,19.42A76.12,76.12,0,0,1,324.09,381a112.41,112.41,0,0,1-25.78,13.06c21.93,5.36,38,13.89,48.55,25.78s15.74,27.29,15.74,46a94.91,94.91,0,0,1-8.2,39.51,90.73,90.73,0,0,1-24.11,31.81c-10.55,9-23.6,16.07-39.17,21.26-15.57,5-33.15,7.7-53.07,7.7H105.29V233.52Zm-45.2,57.76v82h40.18a137.48,137.48,0,0,0,23.1-1.84A46.56,46.56,0,0,0,263,365.1a28.45,28.45,0,0,0,10.88-12.56c2.51-5.36,3.68-12.05,3.68-20.09,0-7.87-1-14.4-3-19.75a29.5,29.5,0,0,0-9-12.72,39.05,39.05,0,0,0-15.57-6.86,109.28,109.28,0,0,0-22.43-2H182.3Zm54.24,216.46c10.21,0,18.58-1.34,24.94-3.85,6.53-2.51,11.55-5.86,15.23-10a33.27,33.27,0,0,0,7.53-13.89,62.41,62.41,0,0,0,2-15.74,55.45,55.45,0,0,0-2.34-16.41,28.3,28.3,0,0,0-8.2-12.39c-3.85-3.35-9-5.86-15.4-7.7S245.92,425,236.21,425H182.3v82.7Zm339.5-114H694.23V534c-17.08,12.39-35.16,21.6-54.41,27.12a211.37,211.37,0,0,1-60.27,8.37c-27.29,0-52.23-4.35-74.66-12.89s-41.68-20.42-57.59-35.49a156.66,156.66,0,0,1-37-53.74c-8.71-20.76-13.06-43.36-13.06-67.63,0-24.78,4.19-47.54,12.39-68.3a154.4,154.4,0,0,1,35.16-53.74c15.23-15.07,33.82-26.79,55.41-35.16S546.07,230,572.86,230a221.28,221.28,0,0,1,39,3.35,189.22,189.22,0,0,1,33.65,9.37,169.61,169.61,0,0,1,28.12,14.06,155.22,155.22,0,0,1,22.77,17.75l-22.27,34.15a22,22,0,0,1-13.56,9.88c-5.52,1.17-11.55-.17-17.91-4.19-6-3.68-11.89-6.86-17.24-9.54a100.23,100.23,0,0,0-16.57-6.53,119,119,0,0,0-17.75-3.68,158.9,158.9,0,0,0-20.93-1.17c-14.4,0-27.45,2.51-39,7.7a80.64,80.64,0,0,0-29.46,21.6c-8.2,9.21-14.4,20.42-18.75,33.48s-6.53,27.45-6.53,43.36c0,17.58,2.51,33.31,7.37,47s11.72,25.28,20.59,34.65a90.06,90.06,0,0,0,32,21.6,112,112,0,0,0,41.18,7.37,107.46,107.46,0,0,0,25.28-2.68,125.07,125.07,0,0,0,21.93-7.37V449.8H591.94c-4.85,0-8.71-1.34-11.38-3.85a13.13,13.13,0,0,1-4.19-9.88V393.72Z"/></svg>