<svg id="Layer_1" data-name="Layer 1" xmlns="http://www.w3.org/2000/svg" xmlns:xlink="http://www.w3.org/1999/xlink" viewBox="0 0 800 800"><defs><style>.cls-2{fill:url(#linear-gradient);}</style><linearGradient id="linear-gradient" x1="400" y1="193.95" x2="400" y2="737.51" gradientUnits="userSpaceOnUse"><stop offset="0" stop-color="#f7931e"/><stop offset="1" stop-color="#f15a24"/></linearGradient></defs><title>Hot</title><path class="cls-2" d="M198.65,292.69c-3.89,16.86-8.65,32.15-10.75,47.8-3.47,25.88,1.49,50.4,18.88,70.8,19.14,22.47,45.82,23.64,67.46,3.45,15.79-14.72,21.39-32.87,18.3-54.33-3.27-22.68-8.79-45.72-7.46-68.25,2.79-47.37,27.63-84,64.56-112.79,8.9-6.93,18.14-13.44,27.44-19.83,24.84-17.07,31.58-41.21,27.5-69.62-1-7.24-2.44-14.42-4.08-24,30,20.23,54,43.15,54.26,79.44.21,25.73-5.61,51.52-9,77.25-4.87,37.38-.59,72.08,28.78,99.48,32.28,30.11,77.31,22.09,96.45-17.57,10.83-22.43,13.36-46.5,11-71.15-.64-6.64-1.41-13.26-2-19.91C590.63,229.93,603.81,245,613.3,262c35.45,63.84,58.4,131.51,58.48,205.45.14,124.86-93.87,238.12-216.6,261.39-152.91,29-294.23-66.32-322.11-219.44-14.38-79,2.57-151.1,59-211.22C193.73,296.44,195.81,295.05,198.65,292.69Zm176.92,291c2.81.51,5.65.94,8.44,1.53,35.63,7.51,68-.56,97.44-21.11,57.07-39.86,61.31-107.85,9.15-153.88-17.84-15.75-37.32-29.67-56.33-44.08-26.34-20-50.95-41.26-56.11-76.44-1.45-9.86-.22-20.12-.22-32.11-3.24,2.41-5.08,3.34-6.34,4.78-30.28,34.48-34,71.94-11,114.21,12.82,23.62,26.9,46.6,38.73,70.7,9.25,18.85,7.3,38-6.37,54.89-30.38,37.6-95.13,37.45-125-.53-6.22-7.92-11.09-16.89-16.78-25.69C224.45,524.73,237.86,590.79,281,628c42.55,36.75,92.56,47.81,146.85,42.44,41.75-4.13,79-18.94,107.71-51.41,21.53-24.36,33.43-61.38,27.27-91.48-12.73,41.82-44.18,59-81.62,67.86C444.89,604,408.87,605.48,375.56,583.71Z"/></svg>