<?xml version="1.0" encoding="UTF-8"?>
<svg data-name="Layer 1" version="1.1" viewBox="0 0 800 800" xmlns="http://www.w3.org/2000/svg" xmlns:cc="http://creativecommons.org/ns#" xmlns:dc="http://purl.org/dc/elements/1.1/" xmlns:rdf="http://www.w3.org/1999/02/22-rdf-syntax-ns#">
 <defs>
  <style>.cls-1{fill:none;}.cls-2{fill:#1f2630;}.cls-3{clip-path:url(#clip-path);}.cls-4{fill:url(#linear-gradient);}.cls-5{clip-path:url(#clip-path-2);}.cls-6{fill:url(#linear-gradient-2);}.cls-7{clip-path:url(#clip-path-3);}.cls-8{fill:url(#linear-gradient-3);}</style>
  <clipPath id="clip-path">
   <polygon class="cls-1" points="366.02 358.94 288.78 370.17 344.67 424.64 331.47 501.55 400.54 465.24 469.61 501.55 456.43 424.64 512.3 370.17 435.08 358.94 400.54 288.96"/>
  </clipPath>
  <linearGradient id="linear-gradient" x1="1222.7" x2="1229.2" y1="5727.3" y2="5727.3" gradientTransform="matrix(0 32.47 32.47 0 -185568 -39413)" gradientUnits="userSpaceOnUse">
   <stop stop-color="#23bfd4" offset="0"/>
   <stop stop-color="#025778" offset="1"/>
  </linearGradient>
  <clipPath id="clip-path-2">
   <path class="cls-1" d="M583.31,516.92q0,24.08-16.09,40.16t-40.55,16.09H273.38q-24.44,0-40.34-15.9t-15.9-40.35V394.63l-64.78,23.18V525.46q0,43.85,31,74.86t74.86,31H541.8q43.84,0,75.05-31t31.23-74.86V415.88l-64.78-22.8Z"/>
  </clipPath>
  <linearGradient id="linear-gradient-2" x1="1366.5" x2="1373" y1="5839.4" y2="5839.4" gradientTransform="matrix(75.72 0 0 -75.72 -103316 442664)" gradientUnits="userSpaceOnUse">
   <stop stop-color="#894c92" offset="0"/>
   <stop stop-color="#3869b1" offset="1"/>
  </linearGradient>
  <clipPath id="clip-path-3">
   <path class="cls-1" d="m258.26 162q-43.85 0-74.86 31t-31 74.88v149.93l64.78-23.18v-118.2q0-24.43 15.9-40.55t40.34-16.1h253.3q24.44 0 40.55 16.3t16.09 40.35v116.65l64.78 22.8v-148q0-43.86-31.23-74.88t-75.11-31z"/>
  </clipPath>
  <linearGradient id="linear-gradient-3" x1="1366.5" x2="1373" y1="5841.9" y2="5841.9" gradientTransform="matrix(75.72 0 0 -75.72 -103316 442630)" gradientUnits="userSpaceOnUse">
   <stop stop-color="#0cb586" offset="0"/>
   <stop stop-color="#009ed1" offset="1"/>
  </linearGradient>
 </defs>
 <title>IDNSLOT</title>
 <g transform="translate(-36.031 -30.558)">
  <g class="cls-3" transform="matrix(1.1445 0 0 1.1445 -22.009 -23.402)" clip-path="url(#clip-path)">
   <rect class="cls-4" x="288.78" y="288.97" width="223.53" height="212.58" fill="url(#linear-gradient)"/>
  </g>
  <g class="cls-5" transform="matrix(1.1445 0 0 1.1445 -22.009 -23.402)" clip-path="url(#clip-path-2)">
   <rect class="cls-6" x="152.36" y="393.08" width="495.73" height="238.28" fill="url(#linear-gradient-2)"/>
  </g>
  <g class="cls-7" transform="matrix(1.1445 0 0 1.1445 -22.009 -23.402)" clip-path="url(#clip-path-3)">
   <rect class="cls-8" x="152.36" y="162" width="495.73" height="255.81" fill="url(#linear-gradient-3)"/>
  </g>
 </g>
 <metadata>
  <rdf:RDF>
   <cc:Work rdf:about="">
    <dc:title>IDNSLOT</dc:title>
   </cc:Work>
  </rdf:RDF>
 </metadata>
</svg>
