<svg id="Layer_1" data-name="Layer 1" xmlns="http://www.w3.org/2000/svg" viewBox="0 0 800 800"><defs><style>.cls-1{fill:#fff;}.cls-2{fill:red;}</style></defs><title>Level Up</title><path class="cls-1" d="M400,313.55H176.19a27.92,27.92,0,0,1-28.31-28.23q0-49.09,0-98.17a28,28,0,0,1,27.83-27.83q75.42,0,150.85,0a7.83,7.83,0,0,0,3.46-.85q30.65-15.85,61.26-31.76a9.71,9.71,0,0,1,3.8-.91c2.38-.14,4.8.13,7.17-.08a16.3,16.3,0,0,1,9.28,2.27q29.15,15.31,58.43,30.39a8.59,8.59,0,0,0,3.79.94q75.07.07,150.15,0a27.93,27.93,0,0,1,28.22,28.15q0,49,0,98A27.93,27.93,0,0,1,624,313.55ZM288.11,202h55.36c3.24,0,4.68-1.45,4.69-4.69s0-6.53,0-9.8-1.43-4.75-4.66-4.75q-35.43,0-70.86,0c-3.28,0-4.69,1.42-4.7,4.68,0,4.08,0,8.16,0,12.25q0,41.38,0,82.75c0,3.34,1.43,4.95,4.47,5q35.6,0,71.21,0c2.94,0,4.5-1.57,4.54-4.55,0-3.15,0-6.3,0-9.45,0-4-1.3-5.31-5.37-5.31H290.3c-.73,0-1.45-.08-2.2-.12V243h30.67c3.28,0,4.71-1.39,4.74-4.66q0-5.34,0-10.67c0-3.35-1.46-4.72-4.87-4.72H290.13c-.67,0-1.34-.07-2-.1Zm180.55,0h55.25c3.46,0,4.84-1.4,4.85-4.89,0-3.27,0-6.53,0-9.8,0-3.06-1.47-4.55-4.5-4.55q-35.6,0-71.21,0c-3.05,0-4.5,1.46-4.5,4.52q0,47.76,0,95.53c0,3.1,1.53,4.58,4.66,4.58h70.86c3.17,0,4.67-1.53,4.69-4.75,0-3,0-5.95,0-8.92,0-4.45-1.17-5.64-5.57-5.64H468.71V243h30.69c3.26,0,4.69-1.4,4.72-4.68q0-5.34,0-10.67c0-3.28-1.47-4.7-4.71-4.7H470.71c-.67,0-1.34-.07-2.06-.11Zm-43.93,29.35c2.87,0,5.43,0,8,0,3.79,0,5.41-1.66,5.41-5.45q0-16.8,0-33.59c0-7.11,0-14.23,0-21.34a4.5,4.5,0,0,0-4.84-4.77c-4.26,0-8.51,0-12.77,0a3.92,3.92,0,0,0-3.84,1.94,8.41,8.41,0,0,0-.85,3.65q-.08,24.32,0,48.64c0,1.64-.47,2.11-2.06,2-2.56-.12-5.13-.07-7.7,0a4.44,4.44,0,0,0-4.62,4.64c0,1.46,0,2.92,0,4.37,0,5.95,0,11.9,0,17.84,0,.53-.48,1.48-.81,1.51-1.65.16-3.33.07-5.18.07,0-.88,0-1.51,0-2.13q0-10,0-19.94c0-4-1.67-5.63-5.61-5.64h-8.58c0-1,0-1.81,0-2.61q0-23.88,0-47.76c0-.7,0-1.4,0-2.1a4.52,4.52,0,0,0-4.79-4.49c-3.91,0-7.81,0-11.72,0-3.15,0-5.07,1.79-5.08,4.94q0,27.21,0,54.41c0,2.95,1.86,4.75,4.84,4.84,2.51.07,5,0,7.52,0,.56,0,1.12.06,1.85.11v2q0,10.06,0,20.12c0,4.85,1.29,6.16,6.07,6.16,2,0,4.08,0,6.12,0,.68,0,1.35.07,2.15.12,0,.83,0,1.47,0,2.1,0,7.06,0,14.11,0,21.17,0,3.39,1.8,5.15,5.2,5.16q5.95,0,11.9,0c3.45,0,5.24-1.81,5.25-5.29,0-6.71,0-13.41,0-20.12,0-.68.06-1.35.1-2.17,3.16,0,6.13,0,9.09,0,3.25,0,5-1.9,5-5.16q0-10.58,0-21.17ZM190,235.06q0,23.71,0,47.42c0,3.22,1.46,4.91,4.33,4.91q29.57,0,59.15,0c2.72,0,4.31-1.64,4.33-4.38,0-3.27,0-6.53,0-9.8,0-3.8-1.35-5.12-5.19-5.12H211.9c-2.6,0-2.6,0-2.6-2.66q0-38.94,0-77.87c0-3.41-1.37-4.79-4.75-4.8-3.09,0-6.18,0-9.27,0-4,0-5.23,1.25-5.24,5.22Q190,211.52,190,235.06Zm373.46,33c0-1,0-1.83,0-2.63q0-38.76,0-77.52c0-4-1.23-5.18-5.24-5.19-3.32,0-6.65,0-10,0a3.87,3.87,0,0,0-4,3.95c0,.64,0,1.28,0,1.92q0,43.31,0,86.62c0,2.62,0,5.25,0,7.87a4,4,0,0,0,4.29,4.25q29.57,0,59.15,0a4,4,0,0,0,4.36-4.35c0-3.27,0-6.53,0-9.8,0-3.81-1.34-5.15-5.16-5.15H563.49Z"/><path class="cls-1" d="M414,464.5h44.39c-.48-.8-.78-1.33-1.11-1.85q-21.15-33.05-42.27-66.13A7.36,7.36,0,0,1,414,392.8c-.08-13.59-.05-27.18,0-40.77,0-6.82,4.17-11,11-11H569.86c6.72,0,10.77,4,10.79,10.76,0,5.83,0,11.67,0,17.5v2.14h2c5.95,0,11.9.1,17.85,0s10.6,4.7,10.36,9.54c0,.81.1,1.63.1,2.44q0,42.35,0,84.69a21.59,21.59,0,0,1-.32,4.52c-1,4.47-4.94,7.45-9.9,7.5-5.19,0-10.38,0-15.57,0H583.1c0,.83-.12,1.5-.12,2.17-.05,6.3,0,12.6-.19,18.89a9.79,9.79,0,0,1-9.59,9.29c-.64,0-1.28,0-1.92,0H462.42v2.38q0,37.88,0,75.77a9.76,9.76,0,0,1-10.1,10.14H424a9.82,9.82,0,0,1-10-9.92q0-61.33,0-122.66C413.94,465.7,414,465.19,414,464.5Zm148.55-75H464.2V458.1h98.4Z"/><path class="cls-1" d="M362.22,570.45c0,.86-.09,1.54-.1,2.22-.05,5.77,0,11.55-.19,17.31a9.61,9.61,0,0,1-9.42,8.81q-59.93,0-119.86,0c-5.32,0-9.3-4.48-9.35-10.54,0-5.66,0-11.32,0-17,0-.69,0-1.38,0-2.25-.76,0-1.38-.09-2-.09-5.83,0-11.67,0-17.5,0-5.45-.05-9.6-3.29-10.54-8.15a13,13,0,0,1-.16-2.44q0-103.24,0-206.48c0-6.58,4.22-10.78,10.86-10.79,8.22,0,16.45,0,24.67,0,6.91,0,11.1,4.18,11.1,11.1q0,64,0,127.91,0,34,0,68.07v2.35H341.83V548q0-97.81,0-195.63c0-3.1.61-5.88,2.82-8.18a10.06,10.06,0,0,1,7.52-3.16c9.22,0,18.43-.07,27.65,0,5.74,0,9.9,3.94,10.15,9.63.24,5.53.16,11.08.17,16.61,0,8.34,0,16.68,0,25a8.76,8.76,0,0,1-1.46,5.06q-20.93,32.57-41.77,65.2c-.34.53-.65,1.07-1.12,1.86h44.32v2.25q0,46.11,0,92.21c0,6.09-2.8,10.1-7.86,11.27a11,11,0,0,1-2.43.22c-5.19,0-10.38,0-15.57,0Z"/><path class="cls-2" d="M400,655q-111.47,0-222.94-.07c-12,0-23-3.77-31.83-12.3a41.79,41.79,0,0,1-12.59-23.08,71.16,71.16,0,0,1-1.39-12.64q0-208.76.07-417.53c0-12.14,3.46-23.3,12-32.31a41.24,41.24,0,0,1,22.07-12.67,77.17,77.17,0,0,1,15.58-1.71q70.78.09,141.57,0a8.6,8.6,0,0,0,3.8-.9c19.2-9.93,38.3-20,57.58-29.79,3.36-1.7,7.43-2.1,11.23-2.81,1.92-.36,4,0,5.94-.08a32,32,0,0,1,12.38,1.68,49.78,49.78,0,0,1,6.94,3.23q27.14,14.09,54.27,28.19a6.43,6.43,0,0,0,2.86.5c48.3,0,96.59-.06,144.89.08,12.07,0,23.16,3.57,32.09,12.08,6.31,6,10.78,13.17,12.56,21.94a77.65,77.65,0,0,1,1.71,15.58q-.06,208.06-.08,416.13c0,12.07-3.48,23.17-12,32.14-6,6.33-13.13,10.84-21.89,12.64A76.68,76.68,0,0,1,619.25,655Q509.61,654.92,400,655Zm0-341.42H624a27.93,27.93,0,0,0,28.1-28.09q0-49,0-98a27.93,27.93,0,0,0-28.22-28.15q-75.07,0-150.15,0a8.59,8.59,0,0,1-3.79-.94q-29.26-15.12-58.43-30.39a16.3,16.3,0,0,0-9.28-2.27c-2.37.21-4.79-.06-7.17.08a9.71,9.71,0,0,0-3.8.91Q360.63,142.5,330,158.42a7.83,7.83,0,0,1-3.46.85q-75.42.06-150.85,0a28,28,0,0,0-27.83,27.83q0,49.09,0,98.17a27.92,27.92,0,0,0,28.31,28.23Zm14,151c0,.68-.11,1.19-.11,1.7q0,61.33,0,122.66a9.82,9.82,0,0,0,10,9.92h28.35a9.76,9.76,0,0,0,10.1-10.14q0-37.88,0-75.77v-2.38H571.27c.64,0,1.28,0,1.92,0a9.79,9.79,0,0,0,9.59-9.29c.22-6.29.13-12.59.19-18.89,0-.67.07-1.35.12-2.17h2.07c5.19,0,10.38,0,15.57,0,5,0,8.93-3,9.9-7.5a21.59,21.59,0,0,0,.32-4.52q0-42.35,0-84.69c0-.81-.13-1.63-.1-2.44.23-4.85-4.33-9.67-10.36-9.54s-11.9,0-17.85,0h-2v-2.14c0-5.83,0-11.67,0-17.5,0-6.72-4.07-10.76-10.79-10.76H425c-6.87,0-11,4.15-11,11,0,13.59,0,27.18,0,40.77a7.36,7.36,0,0,0,1.07,3.72q21.08,33.1,42.27,66.13c.33.52.63,1.05,1.11,1.85ZM362.22,570.45h2c5.19,0,10.38,0,15.57,0a11,11,0,0,0,2.43-.22c5.06-1.17,7.85-5.18,7.86-11.27q0-46.11,0-92.21v-2.25H345.8c.48-.79.79-1.34,1.12-1.86q20.87-32.61,41.77-65.2a8.76,8.76,0,0,0,1.46-5.06c-.07-8.34,0-16.68,0-25,0-5.54.07-11.08-.17-16.61-.25-5.69-4.41-9.58-10.15-9.63-9.21-.08-18.43,0-27.65,0a10.06,10.06,0,0,0-7.52,3.16c-2.21,2.3-2.82,5.08-2.82,8.18q0,97.81,0,195.63v2.46H239.73v-2.35q0-34,0-68.07,0-64,0-127.91c0-6.92-4.19-11.1-11.1-11.1-8.22,0-16.45,0-24.67,0-6.64,0-10.86,4.22-10.86,10.79q0,103.24,0,206.48a13,13,0,0,0,.16,2.44c.94,4.86,5.09,8.1,10.54,8.15,5.83.05,11.67,0,17.5,0,.62,0,1.24.05,2,.09,0,.87,0,1.56,0,2.25,0,5.66,0,11.32,0,17,0,6.05,4,10.54,9.35,10.54q59.93,0,119.86,0a9.61,9.61,0,0,0,9.42-8.81c.23-5.76.14-11.54.19-17.31C362.13,572,362.18,571.31,362.22,570.45Z"/><path class="cls-2" d="M288.11,202v20.78c.69,0,1.36.1,2,.1h28.52c3.41,0,4.84,1.37,4.87,4.72q0,5.34,0,10.67c0,3.27-1.47,4.66-4.74,4.66H288.1v25c.75,0,1.47.12,2.2.12h52.49c4.07,0,5.37,1.28,5.37,5.31,0,3.15,0,6.3,0,9.45,0,3-1.59,4.55-4.54,4.55q-35.6,0-71.21,0c-3,0-4.47-1.61-4.47-5q0-41.38,0-82.75c0-4.08,0-8.16,0-12.25,0-3.26,1.42-4.68,4.7-4.68q35.43,0,70.86,0c3.23,0,4.64,1.46,4.66,4.75s0,6.53,0,9.8S346.7,202,343.46,202H288.11Z"/><path class="cls-2" d="M468.66,202v20.78c.72,0,1.39.11,2.06.11H499.4c3.24,0,4.68,1.42,4.71,4.7q0,5.34,0,10.67c0,3.28-1.46,4.68-4.72,4.68H468.71V268.1h54.49c4.39,0,5.56,1.19,5.57,5.64,0,3,0,5.95,0,8.92,0,3.22-1.53,4.75-4.69,4.75H453.2c-3.14,0-4.66-1.48-4.66-4.58q0-47.76,0-95.53c0-3.06,1.45-4.52,4.5-4.52q35.6,0,71.21,0c3,0,4.47,1.49,4.5,4.55,0,3.27,0,6.53,0,9.8,0,3.49-1.39,4.89-4.85,4.89H468.66Z"/><path class="cls-2" d="M424.73,231.36v2.12q0,10.58,0,21.17c0,3.27-1.78,5.12-5,5.16-3,0-5.93,0-9.09,0,0,.82-.1,1.49-.1,2.17,0,6.71,0,13.41,0,20.12,0,3.48-1.8,5.28-5.25,5.29q-5.95,0-11.9,0c-3.4,0-5.19-1.77-5.2-5.16,0-7.06,0-14.11,0-21.17,0-.64,0-1.27,0-2.1-.8,0-1.48-.11-2.15-.12-2,0-4.08,0-6.12,0-4.78,0-6.07-1.31-6.07-6.16q0-10.06,0-20.12v-2c-.72,0-1.29-.1-1.85-.11-2.51,0-5,0-7.52,0-3-.09-4.84-1.89-4.84-4.84q0-27.21,0-54.41c0-3.15,1.93-4.93,5.08-4.94,3.91,0,7.81,0,11.72,0a4.52,4.52,0,0,1,4.79,4.49c.05.7,0,1.4,0,2.1q0,23.88,0,47.76c0,.8,0,1.6,0,2.61h8.58c3.94,0,5.61,1.67,5.61,5.64q0,10,0,19.94c0,.63,0,1.26,0,2.13,1.85,0,3.53.08,5.18-.07.33,0,.8-1,.81-1.51.06-5.95,0-11.9,0-17.84,0-1.46,0-2.92,0-4.37a4.44,4.44,0,0,1,4.62-4.64c2.56-.06,5.14-.1,7.7,0,1.59.07,2.07-.4,2.06-2q-.09-24.32,0-48.64a8.41,8.41,0,0,1,.85-3.65,3.92,3.92,0,0,1,3.84-1.94c4.26,0,8.51,0,12.77,0a4.5,4.5,0,0,1,4.84,4.77c0,7.11,0,14.23,0,21.34q0,16.8,0,33.59c0,3.78-1.63,5.42-5.41,5.45C430.16,231.37,427.6,231.36,424.73,231.36Z"/><path class="cls-2" d="M190,235.06q0-23.54,0-47.07c0-4,1.25-5.22,5.24-5.22,3.09,0,6.18,0,9.27,0,3.38,0,4.74,1.39,4.75,4.8q0,38.94,0,77.87c0,2.66,0,2.66,2.6,2.66h40.77c3.84,0,5.18,1.33,5.19,5.12,0,3.27,0,6.53,0,9.8,0,2.73-1.62,4.38-4.33,4.38q-29.57,0-59.15,0c-2.87,0-4.33-1.69-4.33-4.91Q190,258.77,190,235.06Z"/><path class="cls-2" d="M563.49,268.1H606.9c3.81,0,5.15,1.34,5.16,5.15,0,3.27,0,6.53,0,9.8a4,4,0,0,1-4.36,4.35q-29.57,0-59.15,0a4,4,0,0,1-4.29-4.25c-.05-2.62,0-5.25,0-7.87q0-43.31,0-86.62c0-.64,0-1.28,0-1.92a3.87,3.87,0,0,1,4-3.95c3.32-.06,6.65,0,10,0,4,0,5.24,1.22,5.24,5.19q0,38.76,0,77.52C563.49,266.27,563.49,267.07,563.49,268.1Z"/><path class="cls-2" d="M562.59,389.55V458.1H464.2V389.55Z"/></svg>