<?xml version="1.0" encoding="UTF-8"?>
<svg width="800" height="800" data-name="Layer 1" version="1.1" viewBox="0 0 800 800" xmlns="http://www.w3.org/2000/svg">
 <defs>
  <style>.cls-1 {
        fill: #fff;
      }</style>
 </defs>
 <g transform="matrix(3.1516 0 0 3.1516 99.631 105.19)">
  <path class="cls-1" d="m126.42 116.54c2.55-19.43-4.27-34.5-20.99-44.09-16.97-9.76-33.34-6.26-48.71 5.01-4.15 3.02-10.28 7.64-13.82 6.48-15.55-5.05-28.07-2.37-37.48 11.01-6.65 9.46-6.48 18.35-3.24 26.9 3.07 8.2 9.11 15.03 16.75 19.3l72.93 41.02c8.29 4.66 18.05 6.17 27.25 3.84 7.86-1.99 14.6-6.56 19.04-16.15 7.25-15.5 1.3-26.82-9.76-37.91-2.94-2.94-2.59-10.28-1.94-15.37l-0.04-0.04z"/>
  <circle class="cls-1" transform="rotate(-77.28)" cx="-41.2" cy="181.16" r="22.97"/>
  <circle class="cls-1" cx="131.94" cy="25.99" r="22.97"/>
  <circle class="cls-1" cx="66.31" cy="22.97" r="22.97"/>
 </g>
</svg>
