<svg id="Layer_1" data-name="Layer 1" xmlns="http://www.w3.org/2000/svg" viewBox="0 0 800 800"><defs><style>.cls-2{fill:#c09a5c;}</style></defs><title>Spinomenal</title><g id="SPADE_GAMING" data-name="SPADE GAMING"><path class="cls-2" d="M654,410.86c0-137.56-142.39-253.41-251-321-113.43,70-253.41,190.66-253.41,321S258.2,560.49,304.06,560.49c-26.55,48.27-108.6,43.44-108.6,43.44v29c137.56-4.83,140-74.82,142.39-106.19C193,560.49,178.56,447.06,178.56,410.86s16.89-161.7,222-289.61C608.15,249.16,627.45,362.59,627.45,410.86s-21.72,82.06-45.85,103.78-84.47,19.31-118.26,14.48c14.48,113.43,144.8,103.78,144.8,103.78V606.35c-53.09,0-82.06-14.48-108.6-45.85C538.16,558.08,654,548.43,654,410.86Z"/><path class="cls-2" d="M451.27,512.22C504.37,524.29,613,533.94,613,410.86S492.3,203.31,400.59,138.15c-91.71,70-210,159.28-210,272.71S292,529.12,354.74,509.81c0,144.8-159.28,137.56-159.28,137.56v26.55c195.49-12.07,185.83-132.74,181-197.9C333,490.5,217.17,521.88,217.17,410.86s154.46-222,183.42-238.93c33.79,16.89,188.25,132.74,188.25,238.93s-101.36,84.47-161.7,62.75c-24.13,214.79,181,200.31,181,200.31V647.37C494.72,640.13,451.27,589.45,451.27,512.22Z"/></g></svg>