<svg id="svg" version="1.1" xmlns="http://www.w3.org/2000/svg" xmlns:xlink="http://www.w3.org/1999/xlink" width="100" height="22" viewBox="0, 0, 400,87.5"><g id="svgg"><path id="path0" d="M103.750 16.080 C 94.075 17.441,85.325 24.510,82.265 33.438 C 78.999 42.968,80.948 54.614,86.854 60.867 C 90.456 64.680,92.081 65.980,95.133 67.488 C 105.221 72.475,117.511 71.199,126.951 64.185 C 128.407 63.103,128.781 63.734,122.966 57.459 C 122.224 56.657,121.510 55.851,121.382 55.667 C 121.046 55.187,120.438 55.255,119.802 55.844 C 118.722 56.843,114.696 58.534,112.417 58.946 C 100.378 61.119,91.833 54.617,91.819 43.272 C 91.808 35.006,95.746 29.591,103.333 27.439 C 105.648 26.783,110.866 26.800,113.020 27.472 C 116.357 28.512,117.930 29.213,119.707 30.450 C 120.141 30.752,120.602 31.000,120.731 31.000 C 120.996 31.000,122.846 29.129,124.190 27.502 C 124.681 26.908,125.740 25.750,126.542 24.929 C 128.152 23.281,128.202 23.164,127.542 22.577 C 124.938 20.267,119.979 17.859,115.333 16.650 C 112.350 15.873,107.069 15.613,103.750 16.080 M158.533 16.033 C 158.423 16.143,158.333 16.338,158.333 16.466 C 158.333 16.595,158.224 16.936,158.090 17.225 C 157.956 17.514,157.433 18.859,156.927 20.215 C 156.421 21.571,155.781 23.170,155.504 23.769 C 155.227 24.367,155.000 24.890,155.000 24.930 C 155.000 24.971,154.860 25.322,154.688 25.710 C 154.516 26.099,154.134 27.054,153.838 27.833 C 153.543 28.613,153.200 29.475,153.076 29.750 C 152.551 30.915,151.633 33.248,150.907 35.260 C 150.479 36.446,149.961 37.792,149.756 38.250 C 149.066 39.791,148.531 41.074,147.914 42.667 C 147.577 43.538,147.153 44.576,146.972 44.974 C 146.792 45.373,146.415 46.273,146.136 46.974 C 145.857 47.676,145.570 48.325,145.498 48.417 C 145.426 48.508,145.254 48.958,145.115 49.417 C 144.803 50.446,143.976 52.595,142.838 55.333 C 142.363 56.479,141.488 58.617,140.896 60.083 C 140.303 61.550,139.711 62.975,139.580 63.250 C 139.271 63.898,138.641 65.572,138.074 67.250 C 137.826 67.983,137.443 68.942,137.222 69.381 C 136.648 70.524,136.450 70.484,142.636 70.496 C 149.161 70.508,148.606 70.667,149.324 68.583 C 149.608 67.758,150.306 65.977,150.874 64.625 L 151.908 62.167 164.204 62.167 C 170.967 62.167,176.500 62.186,176.500 62.211 C 176.500 62.286,177.112 63.867,177.548 64.917 C 178.262 66.637,179.095 68.718,179.398 69.534 C 179.558 69.965,179.815 70.356,179.969 70.404 C 180.312 70.509,191.317 70.405,191.426 70.296 C 191.510 70.212,191.137 69.056,190.765 68.250 C 190.450 67.565,190.264 67.108,189.746 65.750 C 189.502 65.108,189.167 64.283,189.002 63.917 C 188.441 62.668,187.707 60.919,187.359 60.000 C 187.168 59.496,186.742 58.371,186.413 57.500 C 186.083 56.629,185.518 55.184,185.157 54.288 C 184.796 53.393,184.500 52.549,184.500 52.413 C 184.500 52.278,184.434 52.167,184.353 52.167 C 184.272 52.167,184.165 52.035,184.117 51.875 C 183.890 51.131,183.105 49.153,182.109 46.812 C 181.510 45.403,180.822 43.688,180.580 43.000 C 179.992 41.324,178.738 38.162,178.146 36.863 C 177.882 36.284,177.667 35.756,177.667 35.690 C 177.667 35.625,177.399 34.936,177.071 34.160 C 176.743 33.385,176.376 32.487,176.255 32.167 C 176.133 31.846,175.793 31.058,175.499 30.417 C 175.204 29.775,174.756 28.650,174.502 27.917 C 174.248 27.183,173.961 26.396,173.863 26.167 C 173.766 25.938,173.190 24.486,172.584 22.941 C 171.977 21.396,171.419 20.008,171.343 19.858 C 171.098 19.369,170.195 17.095,170.075 16.667 C 169.838 15.813,169.981 15.833,164.180 15.833 C 160.166 15.833,158.681 15.886,158.533 16.033 M200.041 43.125 L 200.083 70.417 205.313 70.461 C 209.034 70.492,210.609 70.450,210.772 70.315 C 210.961 70.158,211.000 68.226,211.000 59.063 L 211.000 48.000 221.086 48.000 L 231.171 48.000 231.127 42.875 L 231.083 37.750 221.083 37.667 L 211.083 37.583 211.039 31.875 L 210.996 26.167 224.664 26.167 L 238.333 26.167 238.333 21.000 L 238.333 15.833 219.166 15.833 L 199.999 15.833 200.041 43.125 M246.167 43.066 C 246.167 67.744,246.191 70.307,246.430 70.399 C 246.913 70.584,285.829 70.514,286.178 70.327 C 286.485 70.163,286.500 69.928,286.500 65.161 L 286.500 60.167 272.095 60.167 C 259.173 60.167,257.663 60.139,257.426 59.903 C 257.194 59.670,257.168 58.949,257.206 53.861 L 257.250 48.083 268.167 48.000 L 279.083 47.917 279.083 42.833 L 279.083 37.750 268.211 37.707 L 257.339 37.664 257.248 37.290 C 257.198 37.085,257.178 34.517,257.203 31.583 L 257.250 26.250 271.875 26.207 L 286.500 26.165 286.500 20.999 L 286.500 15.833 266.333 15.833 L 246.167 15.833 246.167 43.066 M296.778 15.944 C 296.639 16.083,296.629 69.875,296.768 70.236 C 296.913 70.613,326.504 70.636,329.506 70.262 C 335.152 69.557,339.690 66.988,341.595 63.418 C 341.694 63.234,341.854 62.933,341.951 62.750 C 342.048 62.567,342.220 62.192,342.333 61.917 C 342.446 61.642,342.616 61.268,342.711 61.087 C 343.565 59.454,344.216 54.364,343.832 52.314 C 343.032 48.040,341.298 45.428,337.006 42.031 L 336.595 41.705 337.526 40.700 C 338.518 39.628,339.356 38.058,339.812 36.417 C 340.400 34.299,340.686 30.860,340.345 30.020 C 340.247 29.780,340.097 29.133,340.010 28.583 C 338.892 21.492,334.350 16.947,327.446 16.010 C 326.008 15.815,296.969 15.753,296.778 15.944 M354.500 42.994 C 354.500 69.677,354.506 70.158,354.822 70.327 C 355.211 70.535,394.301 70.568,394.628 70.361 C 394.792 70.257,394.829 69.119,394.794 65.239 L 394.750 60.250 380.417 60.167 C 372.533 60.121,365.990 60.023,365.875 59.948 C 365.710 59.842,365.667 55.233,365.667 37.823 L 365.667 15.833 360.083 15.833 L 354.500 15.833 354.500 42.994 M325.124 27.092 C 329.294 27.767,330.799 30.720,328.925 34.552 C 327.451 37.564,326.239 37.859,315.583 37.796 L 307.917 37.750 307.873 32.502 C 307.848 29.615,307.866 27.155,307.912 27.036 C 308.032 26.723,323.146 26.773,325.124 27.092 M165.474 33.250 C 165.839 34.167,166.514 35.892,166.974 37.083 C 167.434 38.275,168.013 39.700,168.260 40.250 C 168.508 40.800,169.106 42.375,169.590 43.750 C 170.074 45.125,170.852 47.183,171.318 48.323 C 172.275 50.661,172.320 50.920,171.792 51.062 C 171.300 51.193,157.106 51.197,156.764 51.066 C 156.319 50.895,156.420 50.480,157.494 48.083 C 157.873 47.237,158.535 45.619,159.063 44.250 C 159.381 43.425,159.916 42.112,160.252 41.333 C 160.587 40.554,160.936 39.667,161.026 39.363 C 161.381 38.158,163.514 32.898,164.128 31.710 C 164.498 30.994,164.639 31.155,165.474 33.250 M327.613 48.839 C 330.541 49.227,332.502 50.450,332.985 52.190 C 333.447 53.855,333.471 54.067,333.306 54.981 C 333.213 55.496,333.075 56.264,332.998 56.689 C 332.709 58.297,331.422 60.029,329.970 60.765 C 327.939 61.794,328.488 61.750,317.750 61.750 L 307.917 61.750 307.873 55.417 C 307.849 51.934,307.865 48.990,307.909 48.876 C 308.012 48.607,325.614 48.575,327.613 48.839 " stroke="none" fill="#0483eb" fill-rule="evenodd"></path><path id="path1" d="M34.917 31.307 C 29.125 32.791,24.959 38.578,25.402 44.525 C 26.170 54.838,37.598 59.926,46.804 54.054 L 47.692 53.488 47.384 53.002 C 47.215 52.735,46.532 51.957,45.867 51.273 L 44.658 50.030 43.204 50.762 C 36.810 53.980,30.500 50.482,30.500 43.719 C 30.500 36.825,37.157 33.286,43.446 36.835 C 44.643 37.511,44.589 37.531,46.233 35.814 C 47.874 34.099,47.872 34.113,46.599 33.268 C 43.522 31.226,38.515 30.385,34.917 31.307 " stroke="none" fill="#f0f4f6" fill-rule="evenodd"></path><path id="path2" d="M48.594 11.022 C 48.928 13.723,51.708 19.053,53.198 19.850 C 55.200 20.922,64.320 18.835,66.119 16.894 L 66.508 16.474 66.088 15.975 C 64.662 14.281,61.463 12.342,58.083 11.125 C 56.040 10.389,55.339 10.285,51.867 10.205 L 48.483 10.128 48.594 11.022 M17.167 11.121 C 11.935 13.513,9.801 15.044,7.566 18.009 C 6.415 19.536,4.833 22.461,4.833 23.062 C 4.833 23.967,9.187 22.024,12.250 19.752 C 14.259 18.262,16.397 15.653,17.732 13.062 C 18.798 10.994,18.639 10.448,17.167 11.121 M34.822 30.989 C 27.555 32.929,23.306 40.762,25.679 47.843 C 28.576 56.492,38.309 59.677,46.616 54.697 C 48.419 53.615,48.418 53.487,46.571 51.525 C 44.669 49.504,44.748 49.537,43.450 50.250 C 38.303 53.079,32.396 51.104,31.066 46.111 C 29.115 38.780,35.851 33.759,43.088 37.150 C 44.856 37.979,44.878 37.972,46.600 36.082 C 48.349 34.163,48.311 34.262,47.554 33.562 C 45.012 31.210,38.741 29.943,34.822 30.989 M42.583 31.399 C 44.357 31.897,47.391 33.521,47.609 34.090 C 47.702 34.334,44.876 37.333,44.553 37.333 C 44.430 37.333,43.931 37.109,43.446 36.835 C 37.157 33.286,30.500 36.825,30.500 43.719 C 30.500 50.482,36.810 53.980,43.204 50.762 L 44.658 50.030 45.867 51.273 C 46.532 51.957,47.215 52.735,47.384 53.002 L 47.692 53.488 46.804 54.054 C 37.598 59.926,26.170 54.838,25.402 44.525 C 24.959 38.578,29.125 32.791,34.917 31.307 C 36.455 30.913,41.048 30.968,42.583 31.399 M8.500 62.337 C 8.271 62.411,7.483 62.584,6.750 62.723 C 5.117 63.031,4.522 63.249,4.392 63.588 C 4.157 64.201,5.687 67.676,7.019 69.554 C 7.290 69.937,7.688 70.516,7.903 70.840 C 8.430 71.636,10.568 73.692,11.176 73.989 C 11.446 74.120,11.667 74.289,11.667 74.364 C 11.667 74.439,11.762 74.500,11.879 74.500 C 11.997 74.500,12.486 74.796,12.966 75.157 C 13.906 75.863,16.134 77.000,16.579 77.000 C 16.728 77.000,17.052 77.102,17.300 77.226 C 18.716 77.936,20.899 78.199,25.592 78.225 C 30.933 78.254,30.683 78.335,30.252 76.715 C 28.785 71.199,24.124 65.884,18.917 63.789 C 15.570 62.443,10.402 61.722,8.500 62.337 " stroke="none" fill="#4594d2" fill-rule="evenodd"></path><path id="path3" d="M22.250 9.341 C 21.700 9.410,20.837 9.515,20.333 9.576 C 18.890 9.749,15.933 10.698,14.325 11.504 C 12.542 12.397,11.702 12.912,11.064 13.500 C 10.716 13.821,10.073 14.354,9.635 14.684 C 9.197 15.014,8.416 15.802,7.899 16.434 C 7.382 17.066,6.907 17.621,6.843 17.667 C 6.358 18.018,4.167 22.032,4.167 22.572 C 4.167 22.695,4.055 23.010,3.918 23.273 C 3.781 23.535,3.668 23.865,3.668 24.005 C 3.667 24.145,3.566 24.407,3.444 24.588 C 2.854 25.456,2.750 28.454,2.750 44.500 C 2.750 60.549,2.808 62.195,3.430 63.631 C 3.560 63.932,3.667 64.295,3.667 64.439 C 3.667 64.582,3.785 64.973,3.929 65.308 C 5.216 68.293,5.721 69.248,6.500 70.167 C 6.927 70.671,7.420 71.308,7.596 71.583 C 8.005 72.225,8.649 72.875,10.000 74.008 C 10.596 74.508,11.121 74.956,11.167 75.004 C 11.587 75.444,13.580 76.530,15.750 77.502 C 16.473 77.825,18.397 78.333,18.901 78.333 C 19.194 78.333,19.505 78.404,19.592 78.490 C 20.317 79.209,54.986 79.237,55.903 78.520 C 56.002 78.442,56.487 78.334,56.981 78.278 C 58.162 78.145,59.376 77.713,61.625 76.625 C 62.198 76.348,62.667 76.056,62.667 75.977 C 62.667 75.898,62.817 75.833,63.000 75.833 C 63.183 75.833,63.333 75.765,63.333 75.683 C 63.333 75.600,63.671 75.334,64.083 75.092 C 64.496 74.850,64.833 74.581,64.833 74.493 C 64.833 74.405,64.931 74.333,65.051 74.333 C 65.278 74.333,67.375 72.281,68.031 71.417 C 68.240 71.142,68.574 70.737,68.773 70.518 C 68.973 70.299,69.345 69.707,69.600 69.203 C 69.855 68.699,70.219 68.053,70.409 67.768 C 70.599 67.483,70.893 66.912,71.061 66.500 C 71.230 66.087,71.441 65.610,71.530 65.440 C 71.619 65.269,71.757 64.782,71.836 64.356 C 71.915 63.931,72.055 63.283,72.148 62.917 C 72.605 61.104,72.667 58.855,72.667 44.094 C 72.667 28.900,72.600 26.705,72.087 25.000 C 71.963 24.587,71.820 24.007,71.769 23.710 C 71.665 23.108,70.774 21.189,70.008 19.917 C 69.732 19.458,69.426 18.900,69.328 18.676 C 69.113 18.184,67.605 16.443,66.295 15.175 C 64.994 13.916,64.828 13.778,63.629 12.969 C 63.054 12.581,62.546 12.222,62.500 12.173 C 62.415 12.081,61.819 11.792,60.917 11.406 C 60.642 11.288,60.143 11.073,59.808 10.929 C 59.473 10.785,59.115 10.667,59.011 10.667 C 58.907 10.667,58.655 10.562,58.452 10.434 C 58.055 10.184,56.383 9.748,55.167 9.577 C 52.705 9.231,24.752 9.031,22.250 9.341 M24.380 10.662 C 24.772 12.187,23.127 16.734,21.135 19.630 C 19.692 21.727,17.086 23.981,13.803 25.974 C 11.913 27.121,8.094 28.039,5.083 28.070 L 3.750 28.083 3.793 27.083 C 4.031 21.553,8.834 14.812,14.344 12.279 C 16.986 11.064,17.486 10.865,18.190 10.754 C 18.589 10.691,19.179 10.567,19.500 10.479 C 20.180 10.293,22.823 10.027,23.657 10.060 C 24.165 10.081,24.248 10.150,24.380 10.662 M56.750 10.565 C 57.667 10.814,58.583 11.126,58.786 11.259 C 58.989 11.391,59.231 11.500,59.324 11.500 C 59.578 11.500,62.283 12.809,62.889 13.225 C 64.238 14.150,65.324 15.022,65.958 15.689 C 66.689 16.458,68.500 18.765,68.500 18.928 C 68.500 18.980,68.730 19.358,69.012 19.767 C 69.662 20.712,70.835 23.070,71.035 23.833 C 71.333 24.973,71.671 26.551,71.627 26.596 C 71.232 26.991,65.580 26.944,63.667 26.530 C 60.387 25.820,56.857 23.887,54.028 21.253 C 53.081 20.371,52.392 20.000,51.701 20.000 C 50.350 20.000,46.370 18.266,44.000 16.645 C 41.160 14.702,37.647 10.493,38.542 10.104 C 38.656 10.054,42.425 10.035,46.917 10.062 L 55.083 10.111 56.750 10.565 M102.583 15.513 C 100.152 16.078,98.725 16.498,97.583 16.985 C 97.400 17.063,96.912 17.256,96.500 17.415 C 95.363 17.852,93.671 18.710,93.471 18.952 C 93.373 19.070,93.229 19.167,93.151 19.167 C 92.299 19.167,85.167 25.698,85.167 26.479 C 85.167 26.543,84.945 26.856,84.673 27.173 C 84.402 27.490,84.177 27.797,84.173 27.855 C 84.166 27.966,83.139 29.704,82.877 30.047 C 82.792 30.159,82.624 30.512,82.503 30.833 C 82.382 31.154,82.185 31.642,82.065 31.917 C 81.225 33.844,80.368 37.062,80.069 39.417 C 79.676 42.511,79.958 48.823,80.516 49.408 C 80.599 49.495,80.666 49.758,80.666 49.992 C 80.665 50.425,81.021 51.643,81.436 52.631 C 81.563 52.932,81.667 53.270,81.667 53.382 C 81.667 53.666,82.764 56.164,82.986 56.386 C 83.085 56.485,83.167 56.655,83.167 56.762 C 83.167 57.459,86.453 61.652,88.750 63.885 C 89.760 64.868,93.117 67.271,94.250 67.824 C 94.892 68.137,95.679 68.521,96.000 68.679 C 96.855 69.098,98.606 69.750,99.750 70.076 C 100.300 70.232,100.975 70.433,101.250 70.522 C 103.922 71.385,114.528 71.033,116.917 70.002 C 117.100 69.923,117.438 69.821,117.667 69.776 C 118.367 69.638,120.088 68.990,120.667 68.646 C 120.804 68.565,121.029 68.454,121.167 68.400 C 122.535 67.862,123.192 67.546,124.141 66.967 C 124.751 66.595,125.296 66.218,125.352 66.130 C 125.409 66.042,125.605 65.883,125.787 65.777 C 129.457 63.644,129.454 63.409,125.706 59.417 C 123.264 56.816,122.244 55.716,121.790 55.195 C 121.171 54.483,120.378 54.471,119.508 55.160 C 119.165 55.432,118.348 55.927,117.692 56.260 C 117.036 56.593,116.458 56.933,116.407 57.016 C 116.356 57.099,116.187 57.167,116.032 57.168 C 115.877 57.168,115.556 57.270,115.319 57.394 C 115.082 57.517,114.482 57.733,113.986 57.874 C 113.489 58.015,112.746 58.225,112.333 58.341 C 111.086 58.692,105.635 58.745,104.333 58.420 C 101.995 57.835,102.119 57.884,99.000 56.320 C 97.584 55.610,95.113 52.884,94.212 51.037 C 91.487 45.458,91.806 38.769,95.032 33.833 C 95.723 32.775,98.414 30.139,99.167 29.781 C 99.304 29.716,99.744 29.478,100.143 29.252 C 100.543 29.026,101.125 28.794,101.437 28.735 C 101.749 28.677,102.045 28.562,102.095 28.481 C 102.145 28.400,102.302 28.333,102.443 28.333 C 102.584 28.333,102.936 28.222,103.225 28.085 C 104.272 27.591,112.129 27.502,112.733 27.978 C 112.834 28.058,113.479 28.289,114.167 28.491 C 116.034 29.040,116.953 29.477,118.917 30.747 C 120.864 32.007,121.290 32.004,122.160 30.728 C 122.385 30.398,123.061 29.630,123.661 29.022 C 124.576 28.095,125.831 26.701,125.834 26.609 C 125.835 26.595,126.472 25.922,127.251 25.114 C 128.725 23.585,128.860 23.283,128.388 22.563 C 128.147 22.195,125.654 20.167,125.443 20.167 C 125.401 20.167,124.891 19.871,124.308 19.509 C 122.827 18.587,121.170 17.796,119.417 17.172 C 118.592 16.878,117.804 16.581,117.667 16.511 C 117.427 16.390,115.779 15.988,113.226 15.428 C 111.419 15.031,104.417 15.088,102.583 15.513 M158.045 15.490 C 157.933 15.670,157.570 16.515,157.240 17.367 C 156.910 18.219,156.533 19.153,156.403 19.442 C 156.273 19.731,156.167 20.072,156.167 20.200 C 156.167 20.328,156.107 20.505,156.033 20.592 C 155.960 20.679,155.726 21.200,155.513 21.750 C 155.300 22.300,154.910 23.219,154.646 23.792 C 154.382 24.365,154.167 24.942,154.167 25.074 C 154.167 25.206,154.103 25.353,154.024 25.402 C 153.946 25.450,153.717 25.998,153.515 26.620 C 153.111 27.864,152.804 28.658,152.243 29.917 C 152.038 30.375,151.705 31.162,151.502 31.667 C 151.298 32.171,151.067 32.733,150.987 32.917 C 150.907 33.100,150.683 33.700,150.490 34.250 C 150.055 35.483,149.733 36.273,149.412 36.889 C 149.277 37.148,149.167 37.453,149.167 37.566 C 149.167 37.679,148.976 38.166,148.743 38.649 C 148.510 39.132,148.276 39.744,148.223 40.010 C 148.170 40.275,148.023 40.578,147.897 40.683 C 147.770 40.788,147.666 40.959,147.665 41.062 C 147.664 41.312,146.638 44.022,146.097 45.204 C 145.860 45.722,145.667 46.182,145.667 46.228 C 145.667 46.273,145.449 46.784,145.184 47.363 C 144.918 47.943,144.568 48.829,144.406 49.333 C 144.243 49.837,143.935 50.646,143.722 51.130 C 143.508 51.613,143.333 52.058,143.333 52.119 C 143.333 52.179,143.193 52.533,143.022 52.906 C 142.020 55.090,141.831 55.535,141.731 55.954 C 141.670 56.208,141.566 56.492,141.499 56.583 C 141.432 56.675,141.215 57.237,141.016 57.833 C 140.818 58.429,140.553 59.142,140.428 59.417 C 140.304 59.692,140.123 60.104,140.027 60.333 C 139.930 60.563,139.697 61.102,139.509 61.533 C 139.321 61.963,139.167 62.417,139.167 62.541 C 139.167 62.665,139.098 62.838,139.014 62.925 C 138.869 63.075,138.121 64.930,137.354 67.038 C 137.164 67.563,136.938 68.126,136.854 68.288 C 135.448 70.998,135.370 70.962,142.604 70.983 C 148.419 71.001,149.142 70.950,149.282 70.518 C 149.330 70.371,149.547 69.856,149.766 69.374 C 149.984 68.893,150.211 68.200,150.269 67.836 C 150.327 67.471,150.478 67.087,150.604 66.983 C 150.730 66.878,150.833 66.688,150.833 66.561 C 150.833 66.433,150.899 66.199,150.980 66.039 C 151.384 65.243,151.833 64.195,151.833 64.049 C 151.833 63.959,151.951 63.648,152.096 63.359 L 152.358 62.833 164.012 62.833 C 170.422 62.833,175.720 62.823,175.786 62.811 C 175.923 62.785,176.020 62.964,176.429 64.000 C 176.592 64.412,176.866 65.087,177.039 65.500 C 177.211 65.912,177.412 66.400,177.486 66.583 C 177.560 66.767,177.743 67.200,177.894 67.547 C 178.044 67.894,178.167 68.258,178.167 68.355 C 178.167 68.539,178.497 69.350,178.952 70.285 C 179.279 70.958,179.269 70.957,185.088 71.088 C 192.399 71.252,192.791 71.081,191.405 68.333 C 190.878 67.289,190.833 67.175,190.833 66.867 C 190.833 66.700,190.723 66.418,190.589 66.240 C 190.454 66.062,190.342 65.775,190.339 65.602 C 190.336 65.428,190.173 64.941,189.977 64.518 C 189.782 64.096,189.549 63.563,189.460 63.333 C 189.371 63.104,189.199 62.692,189.078 62.417 C 188.957 62.142,188.734 61.617,188.582 61.250 C 188.430 60.883,188.236 60.471,188.152 60.333 C 187.981 60.056,188.001 60.109,187.593 58.833 C 187.431 58.329,187.202 57.692,187.084 57.417 C 186.965 57.142,186.695 56.467,186.484 55.917 C 186.273 55.367,186.040 54.845,185.967 54.758 C 185.893 54.671,185.833 54.470,185.833 54.312 C 185.833 54.153,185.733 53.924,185.611 53.802 C 185.489 53.680,185.337 53.356,185.272 53.082 C 185.168 52.640,184.925 52.042,184.475 51.127 C 184.397 50.968,184.333 50.726,184.333 50.590 C 184.333 50.454,184.172 49.984,183.976 49.546 C 183.779 49.108,183.564 48.600,183.498 48.417 C 183.432 48.233,183.218 47.738,183.023 47.315 C 182.827 46.893,182.667 46.433,182.667 46.294 C 182.667 46.155,182.554 45.947,182.417 45.833 C 182.279 45.719,182.167 45.489,182.167 45.323 C 182.167 45.156,182.092 44.973,182.000 44.917 C 181.908 44.860,181.833 44.677,181.833 44.511 C 181.833 44.344,181.727 44.120,181.598 44.012 C 181.468 43.905,181.311 43.445,181.249 42.992 C 181.186 42.538,181.067 42.125,180.984 42.074 C 180.901 42.022,180.833 41.844,180.833 41.677 C 180.833 41.511,180.730 41.288,180.603 41.183 C 180.477 41.078,180.331 40.780,180.279 40.519 C 180.227 40.259,180.004 39.642,179.783 39.148 C 179.562 38.654,179.212 37.837,179.005 37.333 C 178.798 36.829,178.562 36.286,178.481 36.127 C 178.400 35.968,178.333 35.724,178.333 35.585 C 178.333 35.446,178.183 35.052,178.000 34.710 C 177.817 34.368,177.667 33.999,177.667 33.891 C 177.667 33.782,177.561 33.481,177.432 33.222 C 177.303 32.962,177.120 32.563,177.025 32.333 C 176.353 30.715,176.135 30.215,175.994 29.961 C 175.906 29.801,175.833 29.567,175.833 29.439 C 175.833 29.312,175.727 29.119,175.596 29.011 C 175.466 28.903,175.307 28.500,175.242 28.115 C 175.178 27.731,174.947 27.046,174.729 26.594 C 174.511 26.141,174.333 25.674,174.333 25.555 C 174.333 25.436,174.108 24.874,173.833 24.306 C 173.558 23.739,173.333 23.184,173.333 23.074 C 173.333 22.964,173.221 22.781,173.083 22.667 C 172.946 22.553,172.833 22.311,172.833 22.130 C 172.833 21.806,172.545 21.039,172.073 20.111 C 171.941 19.852,171.833 19.543,171.833 19.424 C 171.833 19.306,171.678 18.843,171.489 18.396 C 171.300 17.949,171.087 17.433,171.016 17.250 C 170.946 17.067,170.703 16.542,170.477 16.083 L 170.067 15.250 164.158 15.206 C 158.441 15.164,158.243 15.173,158.045 15.490 M199.443 15.471 C 199.017 15.941,199.017 70.335,199.442 70.688 C 199.871 71.044,211.111 71.024,211.337 70.667 C 211.432 70.516,211.496 66.102,211.497 59.542 L 211.500 48.667 221.304 48.667 L 231.109 48.667 231.471 48.281 C 231.827 47.902,231.833 47.804,231.833 42.710 L 231.833 37.524 231.394 37.179 C 230.961 36.838,230.816 36.833,221.228 36.833 L 211.500 36.833 211.500 31.833 L 211.500 26.833 224.885 26.833 C 235.330 26.833,238.332 26.788,238.554 26.625 C 238.814 26.435,238.835 25.934,238.794 20.833 L 238.750 15.250 219.235 15.208 C 200.495 15.167,199.709 15.177,199.443 15.471 M245.712 15.618 C 245.352 16.167,245.156 69.496,245.510 70.357 C 245.631 70.650,245.861 70.831,246.200 70.898 C 247.080 71.074,285.938 71.015,286.406 70.837 L 286.833 70.675 286.831 65.379 C 286.829 62.466,286.773 60.007,286.706 59.913 C 286.302 59.353,285.793 59.333,271.742 59.333 L 257.833 59.333 257.833 54.000 L 257.833 48.667 268.380 48.667 C 277.655 48.667,278.970 48.635,279.296 48.407 C 279.666 48.148,279.667 48.136,279.667 42.836 L 279.667 37.524 279.228 37.179 C 278.794 36.838,278.658 36.833,268.311 36.833 L 257.833 36.833 257.833 31.833 L 257.833 26.833 272.058 26.833 C 285.626 26.833,286.294 26.819,286.558 26.529 C 286.888 26.164,286.982 16.089,286.661 15.489 C 286.492 15.173,286.088 15.167,266.248 15.167 L 246.008 15.167 245.712 15.618 M296.312 15.442 C 296.069 15.735,295.855 66.987,296.086 69.601 L 296.191 70.786 297.054 70.987 C 298.217 71.258,327.917 71.144,330.500 70.859 C 332.116 70.680,333.694 70.287,334.075 69.966 C 334.162 69.893,334.366 69.833,334.529 69.833 C 334.780 69.833,335.483 69.490,337.417 68.425 C 339.436 67.312,341.652 64.980,342.489 63.083 C 342.692 62.625,342.965 62.014,343.095 61.725 C 343.226 61.436,343.336 61.098,343.339 60.975 C 343.342 60.851,343.454 60.604,343.589 60.426 C 343.723 60.249,343.833 59.870,343.833 59.585 C 343.833 59.300,343.904 58.995,343.991 58.908 C 344.754 58.144,344.746 51.070,343.982 50.258 C 343.900 50.171,343.833 49.958,343.833 49.784 C 343.833 49.610,343.724 49.269,343.590 49.026 C 343.456 48.782,343.189 48.246,342.996 47.833 C 342.167 46.060,341.521 45.217,339.540 43.318 L 337.699 41.554 338.144 41.069 C 338.727 40.435,339.667 38.949,339.667 38.663 C 339.667 38.540,339.809 38.134,339.984 37.761 C 340.158 37.388,340.343 36.858,340.394 36.583 C 341.126 32.629,341.187 32.070,341.016 30.917 C 340.920 30.275,340.796 29.375,340.739 28.917 C 340.682 28.458,340.576 28.008,340.502 27.917 C 340.429 27.825,340.333 27.412,340.288 27.000 C 340.212 26.293,339.960 25.460,339.354 23.917 C 338.957 22.905,337.773 21.007,337.015 20.167 C 336.643 19.754,336.337 19.360,336.336 19.292 C 336.334 19.223,336.221 19.167,336.083 19.167 C 335.946 19.167,335.830 19.073,335.827 18.958 C 335.814 18.528,331.077 15.841,330.322 15.835 C 330.178 15.834,329.503 15.685,328.822 15.504 C 327.054 15.034,296.699 14.976,296.312 15.442 M354.212 15.618 C 353.860 16.155,353.658 68.895,354.002 70.175 C 354.160 70.762,354.232 70.822,354.879 70.915 C 356.413 71.134,394.971 70.929,395.200 70.700 C 395.432 70.469,395.622 61.476,395.418 60.374 C 395.220 59.301,395.685 59.333,380.230 59.333 L 366.333 59.333 366.333 37.526 C 366.333 16.611,366.321 15.707,366.029 15.442 C 365.758 15.197,365.100 15.167,360.116 15.167 L 354.508 15.167 354.212 15.618 M169.494 15.814 C 169.790 15.897,169.960 16.115,170.100 16.590 C 170.206 16.953,170.490 17.676,170.730 18.198 C 170.970 18.719,171.167 19.232,171.167 19.339 C 171.167 19.445,171.270 19.731,171.396 19.974 C 171.523 20.218,171.700 20.604,171.791 20.833 C 171.882 21.063,172.126 21.662,172.333 22.167 C 172.541 22.671,172.771 23.233,172.846 23.417 C 172.921 23.600,173.136 24.102,173.324 24.533 C 173.513 24.963,173.667 25.392,173.667 25.485 C 173.667 25.579,173.774 25.902,173.906 26.203 C 174.038 26.504,174.369 27.350,174.643 28.083 C 174.916 28.817,175.490 30.242,175.919 31.250 C 176.751 33.206,177.136 34.154,177.747 35.750 C 177.958 36.300,178.250 36.975,178.397 37.250 C 178.544 37.525,178.666 37.825,178.667 37.917 C 178.669 38.008,178.854 38.458,179.080 38.917 C 179.305 39.375,179.492 39.845,179.495 39.962 C 179.498 40.079,179.719 40.716,179.986 41.379 C 180.254 42.041,180.638 43.033,180.841 43.583 C 181.044 44.133,181.380 44.958,181.588 45.417 C 182.361 47.124,183.380 49.602,183.539 50.165 C 183.630 50.485,183.883 51.118,184.102 51.571 C 184.321 52.025,184.500 52.467,184.500 52.555 C 184.500 52.642,184.643 53.022,184.818 53.398 C 185.510 54.885,185.818 55.646,186.245 56.919 C 186.490 57.648,186.750 58.321,186.822 58.414 C 186.895 58.507,187.004 58.792,187.065 59.046 C 187.126 59.301,187.354 59.901,187.573 60.380 C 187.792 60.858,188.173 61.775,188.421 62.417 C 188.668 63.058,188.928 63.658,188.997 63.750 C 189.066 63.842,189.275 64.329,189.462 64.833 C 190.435 67.458,190.691 68.091,190.838 68.238 C 190.927 68.327,191.000 68.516,191.001 68.658 C 191.002 68.800,191.114 69.131,191.251 69.394 C 191.859 70.559,192.157 70.500,185.687 70.500 C 181.239 70.500,179.834 70.451,179.704 70.292 C 179.610 70.177,179.293 69.446,179.000 68.667 C 178.707 67.887,178.105 66.387,177.663 65.333 C 177.220 64.279,176.808 63.213,176.746 62.965 C 176.541 62.141,176.900 62.162,164.076 62.207 L 151.939 62.250 151.199 64.000 C 150.792 64.962,150.067 66.800,149.589 68.083 L 148.719 70.417 142.776 70.460 C 136.161 70.509,136.540 70.583,137.137 69.368 C 137.304 69.028,137.690 68.075,137.994 67.250 C 138.694 65.349,140.037 61.986,142.086 57.000 C 143.826 52.768,144.734 50.468,145.081 49.417 C 145.203 49.050,145.655 47.925,146.086 46.917 C 146.517 45.908,147.276 44.071,147.772 42.833 C 148.267 41.596,148.821 40.265,149.003 39.877 C 149.185 39.488,149.333 39.072,149.333 38.952 C 149.333 38.832,149.396 38.662,149.473 38.575 C 149.622 38.407,150.238 36.877,151.315 34.000 C 151.675 33.037,152.243 31.613,152.576 30.833 C 152.910 30.054,153.451 28.706,153.779 27.838 C 154.107 26.969,154.824 25.206,155.373 23.921 C 155.921 22.635,156.544 21.096,156.757 20.500 C 156.970 19.904,157.379 18.817,157.666 18.083 C 157.954 17.350,158.265 16.548,158.357 16.301 C 158.470 16.003,158.674 15.830,158.971 15.785 C 159.737 15.668,169.062 15.694,169.494 15.814 M238.294 15.806 C 238.458 15.910,238.495 17.065,238.461 21.011 L 238.417 26.083 224.708 26.126 L 211.000 26.169 211.000 31.816 C 211.000 36.813,211.030 37.476,211.264 37.566 C 211.409 37.621,215.946 37.667,221.347 37.667 L 231.167 37.667 231.167 42.832 L 231.167 47.997 221.125 48.040 L 211.083 48.083 211.000 59.250 L 210.917 70.417 205.511 70.461 C 201.298 70.495,200.076 70.458,199.972 70.294 C 199.740 69.928,199.800 16.100,200.033 15.867 C 200.266 15.634,237.928 15.573,238.294 15.806 M286.208 15.826 C 286.480 15.833,286.500 16.193,286.500 20.999 L 286.500 26.165 271.908 26.207 L 257.316 26.250 257.329 31.814 C 257.336 34.875,257.382 37.444,257.431 37.523 C 257.480 37.602,262.390 37.667,268.343 37.667 L 279.167 37.667 279.167 42.832 L 279.167 47.998 268.292 48.040 L 257.417 48.083 257.417 54.000 L 257.417 59.917 271.917 60.000 L 286.417 60.083 286.417 65.250 L 286.417 70.417 266.344 70.459 C 250.395 70.493,246.243 70.458,246.138 70.292 C 246.065 70.177,246.004 57.877,246.003 42.959 L 246.000 15.835 261.458 15.790 C 273.901 15.754,283.943 15.768,286.208 15.826 M365.042 15.774 L 365.667 15.877 365.669 37.730 C 365.671 49.749,365.731 59.677,365.803 59.791 C 365.907 59.953,369.070 60.007,380.341 60.041 L 394.747 60.083 394.832 60.570 C 394.878 60.838,394.896 63.182,394.870 65.779 L 394.823 70.501 374.703 70.459 L 354.583 70.417 354.541 43.137 C 354.501 17.259,354.514 15.854,354.791 15.782 C 355.242 15.664,364.335 15.657,365.042 15.774 M114.917 16.477 C 119.087 17.542,121.667 18.636,125.391 20.917 C 126.599 21.656,128.000 22.890,128.000 23.214 C 128.000 23.406,127.406 24.153,126.596 24.981 C 125.823 25.771,124.979 26.685,124.721 27.012 C 123.406 28.675,121.069 31.000,120.712 31.000 C 120.504 31.000,119.978 30.749,119.542 30.443 C 117.690 29.139,115.853 28.317,113.083 27.552 C 110.994 26.975,105.290 26.855,103.750 27.355 C 103.292 27.504,102.579 27.724,102.167 27.844 C 97.712 29.137,93.416 33.595,92.507 37.869 C 92.423 38.262,92.277 38.883,92.183 39.250 C 91.735 40.982,91.810 45.714,92.312 47.384 C 92.400 47.677,92.632 48.517,92.829 49.250 C 93.501 51.758,96.648 55.908,98.583 56.836 C 98.858 56.968,99.346 57.232,99.667 57.423 C 104.680 60.406,115.414 59.551,119.744 55.825 C 120.761 54.950,120.658 54.903,122.848 57.256 C 128.622 63.460,128.451 63.182,127.083 64.138 C 126.625 64.458,126.225 64.783,126.194 64.860 C 126.164 64.937,126.071 65.000,125.988 65.000 C 125.905 65.000,125.393 65.337,124.851 65.750 C 124.308 66.162,123.793 66.500,123.705 66.500 C 123.617 66.500,123.366 66.637,123.147 66.805 C 122.929 66.973,121.925 67.456,120.917 67.878 C 107.574 73.462,92.943 69.924,85.583 59.333 C 85.233 58.829,84.773 58.187,84.561 57.907 C 82.591 55.299,80.793 49.179,80.573 44.333 C 79.971 31.026,88.167 19.969,101.167 16.549 C 104.648 15.633,111.472 15.597,114.917 16.477 M329.739 16.393 C 334.571 17.906,337.888 21.020,339.173 25.250 C 339.284 25.617,339.482 26.039,339.612 26.189 C 339.759 26.357,339.809 26.621,339.745 26.879 C 339.686 27.114,339.719 27.346,339.820 27.408 C 339.919 27.470,340.000 27.764,340.000 28.063 C 340.000 28.362,340.119 29.005,340.263 29.493 C 340.681 30.900,340.342 35.883,339.792 36.431 C 339.723 36.500,339.667 36.673,339.667 36.816 C 339.667 37.633,338.424 39.910,337.387 40.995 C 336.672 41.742,336.640 41.652,338.042 42.807 C 343.034 46.921,345.003 52.193,343.652 57.833 C 343.466 58.612,343.234 59.587,343.137 60.000 C 343.041 60.413,342.901 60.825,342.828 60.917 C 342.754 61.009,342.537 61.483,342.345 61.970 C 340.648 66.276,336.073 69.408,330.250 70.249 C 328.656 70.480,326.352 70.508,312.583 70.465 L 296.750 70.417 296.708 43.118 L 296.666 15.819 312.458 15.873 L 328.250 15.927 329.739 16.393 M307.928 27.579 C 307.649 29.067,307.855 37.500,308.175 37.671 C 308.676 37.939,322.282 37.878,324.083 37.599 C 327.400 37.086,329.122 35.423,329.506 32.361 C 329.842 29.686,329.206 28.555,326.791 27.535 L 325.750 27.095 316.895 27.038 L 308.041 26.981 307.928 27.579 M324.990 27.733 C 326.321 27.842,327.253 28.205,328.122 28.953 C 329.920 30.501,328.768 35.219,326.333 36.275 C 326.012 36.414,325.600 36.615,325.417 36.722 C 325.178 36.861,322.695 36.932,316.708 36.972 L 308.333 37.027 308.333 32.374 C 308.333 29.816,308.365 27.691,308.403 27.653 C 308.510 27.546,323.588 27.619,324.990 27.733 M42.092 30.835 C 44.393 31.372,48.167 33.421,48.167 34.135 C 48.167 34.496,45.401 37.483,44.884 37.679 C 44.606 37.785,44.164 37.654,43.088 37.150 C 35.861 33.763,29.498 38.483,31.168 45.992 C 32.260 50.906,38.596 52.982,43.613 50.071 C 44.643 49.473,44.813 49.535,46.277 51.042 C 48.779 53.617,48.776 53.639,45.645 55.214 C 37.065 59.531,27.895 55.893,25.358 47.167 C 24.579 44.488,24.736 41.705,25.822 38.917 C 28.274 32.623,35.138 29.214,42.092 30.835 M164.031 31.981 C 163.830 32.337,163.666 32.731,163.666 32.856 C 163.665 32.981,163.545 33.308,163.399 33.583 C 163.062 34.220,161.636 37.771,161.190 39.083 C 160.784 40.281,160.127 41.894,159.765 42.583 C 159.620 42.858,159.502 43.163,159.501 43.260 C 159.500 43.358,159.316 43.820,159.090 44.287 C 158.865 44.754,158.629 45.349,158.565 45.610 C 158.501 45.870,158.281 46.458,158.075 46.917 C 157.083 49.125,156.490 50.682,156.583 50.833 C 156.759 51.118,171.989 51.057,172.098 50.771 C 172.147 50.645,171.987 50.064,171.743 49.479 C 170.675 46.922,170.434 46.300,169.733 44.295 C 169.324 43.128,168.724 41.553,168.399 40.795 C 168.074 40.037,167.360 38.254,166.813 36.833 C 164.519 30.879,164.585 30.995,164.031 31.981 M165.167 34.494 C 165.167 34.640,165.268 34.907,165.393 35.088 C 165.517 35.269,165.786 35.960,165.990 36.623 C 166.193 37.287,166.419 37.867,166.492 37.912 C 166.564 37.956,166.667 38.209,166.720 38.473 C 166.810 38.927,167.399 40.348,167.927 41.389 C 168.059 41.648,168.167 41.937,168.167 42.030 C 168.167 42.123,168.285 42.473,168.431 42.808 C 168.576 43.143,168.801 43.663,168.931 43.964 C 169.060 44.265,169.167 44.612,169.167 44.734 C 169.167 44.857,169.322 45.323,169.511 45.770 C 169.904 46.699,170.010 46.958,170.426 48.000 C 170.591 48.413,170.862 49.065,171.029 49.449 C 171.197 49.834,171.333 50.190,171.333 50.241 C 171.333 50.292,168.146 50.333,164.250 50.333 L 157.166 50.333 157.500 49.711 C 157.683 49.368,157.833 48.965,157.833 48.815 C 157.833 48.664,157.946 48.447,158.083 48.333 C 158.221 48.219,158.333 48.000,158.333 47.846 C 158.333 47.692,158.393 47.495,158.467 47.408 C 158.540 47.321,158.771 46.800,158.980 46.250 C 159.189 45.700,159.475 44.950,159.614 44.583 C 159.753 44.217,159.935 43.786,160.017 43.627 C 160.099 43.468,160.167 43.251,160.167 43.146 C 160.167 43.040,160.327 42.607,160.523 42.185 C 160.718 41.762,160.933 41.267,161.000 41.083 C 161.067 40.900,161.282 40.404,161.477 39.982 C 161.673 39.559,161.833 39.139,161.833 39.049 C 161.833 38.892,162.185 38.067,162.508 37.466 C 162.592 37.309,162.709 36.879,162.768 36.510 C 162.827 36.141,162.978 35.754,163.104 35.649 C 163.230 35.545,163.333 35.355,163.333 35.227 C 163.333 35.100,163.401 34.865,163.484 34.706 C 163.567 34.547,163.809 34.023,164.023 33.541 L 164.412 32.666 164.790 33.447 C 164.997 33.877,165.167 34.348,165.167 34.494 M307.932 49.503 C 307.801 50.491,307.818 60.987,307.951 61.497 L 308.043 61.848 317.730 61.791 C 328.170 61.729,327.726 61.765,329.750 60.817 C 333.382 59.117,334.542 53.225,331.776 50.530 C 330.101 48.898,328.323 48.679,316.730 48.672 L 308.043 48.667 307.932 49.503 M328.333 49.730 C 332.510 50.477,333.857 53.498,331.910 57.750 C 331.254 59.185,329.451 60.667,328.363 60.667 C 328.113 60.667,327.746 60.780,327.549 60.918 C 327.237 61.136,325.948 61.164,317.803 61.126 L 308.417 61.083 308.373 55.292 L 308.329 49.500 317.706 49.503 C 324.804 49.506,327.387 49.561,328.333 49.730 M18.235 56.495 C 18.559 56.602,18.957 56.669,19.120 56.645 C 19.283 56.621,19.979 56.777,20.667 56.992 C 27.400 59.101,33.769 65.844,34.763 71.917 C 34.917 72.856,35.084 77.500,34.964 77.500 C 34.898 77.500,34.887 77.611,34.939 77.748 C 35.246 78.549,21.849 78.578,18.833 77.782 C 11.955 75.967,7.183 71.762,4.670 65.304 C 3.760 62.966,3.389 59.611,4.017 59.411 C 4.210 59.350,4.631 59.122,4.952 58.904 C 7.952 56.867,15.317 55.532,18.235 56.495 M59.583 61.060 C 60.375 61.158,61.319 61.344,62.667 61.666 C 63.354 61.830,64.029 61.969,64.167 61.974 C 64.304 61.979,64.904 62.096,65.500 62.233 C 66.876 62.551,69.331 62.814,70.433 62.762 L 71.283 62.723 71.047 63.986 C 70.737 65.652,68.769 69.588,67.723 70.634 C 67.600 70.757,67.500 70.917,67.500 70.990 C 67.500 71.266,64.952 73.598,63.873 74.310 C 63.255 74.717,62.548 75.189,62.301 75.357 C 58.888 77.682,56.273 78.225,48.417 78.239 C 41.238 78.252,41.447 78.281,41.181 77.211 C 41.073 76.774,40.912 76.186,40.825 75.905 C 40.115 73.611,41.224 68.664,42.866 66.802 C 43.053 66.590,43.380 66.144,43.593 65.811 C 43.926 65.289,45.812 63.868,47.844 62.607 C 50.122 61.193,55.240 60.519,59.583 61.060 " stroke="none" fill="#056dbe" fill-rule="evenodd"></path><path id="path4" d="M21.500 10.188 C 20.629 10.270,19.699 10.412,19.433 10.502 C 19.168 10.593,18.755 10.668,18.517 10.669 C 18.273 10.671,18.165 10.725,18.270 10.794 C 19.325 11.486,15.282 17.503,12.250 19.752 C 9.121 22.073,4.971 23.908,4.801 23.045 C 4.709 22.575,3.840 26.059,3.795 27.083 L 3.750 28.083 5.083 28.070 C 8.094 28.039,11.913 27.121,13.803 25.974 C 19.841 22.310,23.223 17.900,24.332 12.245 C 24.756 10.081,24.511 9.903,21.500 10.188 M38.542 10.110 C 37.634 10.477,41.168 14.708,44.000 16.645 C 46.370 18.266,50.350 20.000,51.701 20.000 C 52.392 20.000,53.081 20.371,54.028 21.253 C 56.857 23.887,60.387 25.820,63.667 26.530 C 65.580 26.944,71.232 26.991,71.627 26.596 C 71.671 26.551,71.333 24.973,71.035 23.833 C 70.835 23.070,69.662 20.712,69.012 19.767 C 68.730 19.358,68.500 18.981,68.500 18.929 C 68.500 18.762,66.513 16.229,66.125 15.902 C 65.754 15.589,65.755 15.591,66.135 16.023 L 66.521 16.460 66.125 16.887 C 64.320 18.835,55.205 20.924,53.198 19.850 C 51.715 19.057,48.927 13.722,48.597 11.046 L 48.490 10.175 51.203 10.125 C 52.696 10.097,50.504 10.064,46.333 10.050 C 42.162 10.037,38.656 10.064,38.542 10.110 M54.542 10.282 C 54.702 10.323,54.965 10.323,55.125 10.282 C 55.285 10.240,55.154 10.205,54.833 10.205 C 54.512 10.205,54.381 10.240,54.542 10.282 M17.000 11.083 C 16.771 11.214,16.658 11.322,16.750 11.322 C 16.842 11.322,17.104 11.214,17.333 11.083 C 17.563 10.952,17.675 10.845,17.583 10.845 C 17.492 10.845,17.229 10.952,17.000 11.083 M57.681 10.899 C 57.822 11.033,59.000 11.480,59.000 11.400 C 59.000 11.354,58.740 11.208,58.422 11.075 C 57.862 10.841,57.538 10.764,57.681 10.899 M13.500 12.678 C 12.996 12.956,12.509 13.261,12.417 13.357 C 12.283 13.496,14.398 12.422,14.653 12.221 C 14.948 11.988,14.247 12.266,13.500 12.678 M61.514 12.553 C 61.779 12.756,62.833 13.307,62.833 13.242 C 62.833 13.130,61.784 12.501,61.597 12.501 C 61.513 12.500,61.476 12.524,61.514 12.553 M64.167 14.211 C 64.167 14.247,64.485 14.531,64.875 14.840 C 65.265 15.150,65.477 15.272,65.348 15.111 C 65.104 14.807,64.167 14.093,64.167 14.211 M9.500 15.680 L 8.250 16.860 9.542 15.735 C 10.700 14.726,10.930 14.499,10.792 14.500 C 10.769 14.500,10.188 15.031,9.500 15.680 M161.802 15.791 C 163.206 15.819,165.456 15.819,166.802 15.791 C 168.148 15.763,167.000 15.740,164.250 15.741 C 161.500 15.741,160.398 15.763,161.802 15.791 M209.625 15.792 C 214.873 15.816,223.460 15.816,228.708 15.792 C 233.956 15.767,229.662 15.747,219.167 15.747 C 208.671 15.747,204.377 15.767,209.625 15.792 M277.868 15.790 C 278.482 15.822,279.532 15.822,280.201 15.791 C 280.870 15.759,280.367 15.733,279.083 15.732 C 277.800 15.732,277.253 15.758,277.868 15.790 M285.042 15.782 C 285.202 15.823,285.465 15.823,285.625 15.782 C 285.785 15.740,285.654 15.705,285.333 15.705 C 285.012 15.705,284.881 15.740,285.042 15.782 M357.469 15.791 C 358.872 15.819,361.122 15.819,362.469 15.791 C 363.815 15.763,362.667 15.740,359.917 15.741 C 357.167 15.741,356.065 15.763,357.469 15.791 M238.407 20.917 C 238.407 23.758,238.430 24.944,238.458 23.552 C 238.486 22.160,238.486 19.835,238.458 18.385 C 238.430 16.936,238.408 18.075,238.407 20.917 M246.081 43.000 C 246.081 57.987,246.101 64.119,246.125 56.625 C 246.149 49.131,246.149 36.869,246.125 29.375 C 246.101 21.881,246.081 28.012,246.081 43.000 M112.542 16.115 C 112.702 16.157,112.965 16.157,113.125 16.115 C 113.285 16.073,113.154 16.039,112.833 16.039 C 112.513 16.039,112.381 16.073,112.542 16.115 M199.915 43.083 C 199.915 58.025,199.934 64.113,199.958 56.612 C 199.982 49.111,199.982 36.886,199.958 29.445 C 199.934 22.005,199.915 28.142,199.915 43.083 M7.761 17.625 C 7.401 18.085,7.372 18.163,7.651 17.919 C 7.986 17.627,8.426 17.000,8.298 17.000 C 8.271 17.000,8.030 17.281,7.761 17.625 M6.964 18.625 C 6.711 18.914,6.200 19.830,6.385 19.662 C 6.534 19.526,7.330 18.333,7.271 18.333 C 7.242 18.333,7.104 18.465,6.964 18.625 M5.923 20.264 C 5.767 20.502,5.678 20.734,5.724 20.780 C 5.771 20.826,5.929 20.632,6.075 20.349 C 6.399 19.722,6.310 19.673,5.923 20.264 M88.909 23.208 L 88.250 23.917 88.958 23.258 C 89.617 22.645,89.743 22.500,89.617 22.500 C 89.590 22.500,89.271 22.819,88.909 23.208 M126.333 25.083 C 125.650 25.771,125.129 26.333,125.175 26.333 C 125.221 26.333,125.817 25.771,126.500 25.083 C 127.183 24.396,127.704 23.833,127.658 23.833 C 127.612 23.833,127.016 24.396,126.333 25.083 M257.241 31.917 C 257.241 34.942,257.264 36.203,257.291 34.719 C 257.319 33.235,257.319 30.760,257.291 29.219 C 257.264 27.678,257.241 28.892,257.241 31.917 M307.896 27.078 C 307.844 27.212,307.841 27.419,307.888 27.536 C 307.935 27.654,307.980 27.582,307.987 27.377 L 308.000 27.003 315.542 26.958 L 323.083 26.913 315.536 26.873 C 309.032 26.839,307.977 26.867,307.896 27.078 M37.383 30.624 C 38.097 30.655,39.222 30.655,39.883 30.624 C 40.543 30.592,39.958 30.566,38.583 30.567 C 37.208 30.567,36.668 30.593,37.383 30.624 M47.250 33.257 C 47.433 33.434,47.725 33.730,47.899 33.914 C 48.078 34.104,48.182 34.148,48.140 34.014 C 48.099 33.885,47.807 33.589,47.491 33.357 C 47.175 33.125,47.067 33.080,47.250 33.257 M27.538 35.792 C 27.269 36.135,26.961 36.604,26.854 36.833 C 26.691 37.184,26.694 37.201,26.872 36.940 C 26.988 36.770,27.331 36.301,27.633 35.899 C 28.301 35.007,28.223 34.918,27.538 35.792 M336.997 41.253 C 336.611 41.664,336.609 41.680,336.917 41.962 C 337.216 42.236,337.221 42.235,337.008 41.953 C 336.815 41.697,336.837 41.601,337.171 41.245 C 337.384 41.019,337.521 40.833,337.475 40.833 C 337.429 40.833,337.214 41.022,336.997 41.253 M80.563 42.833 C 80.563 43.887,80.590 44.319,80.623 43.792 C 80.656 43.265,80.656 42.402,80.623 41.875 C 80.590 41.348,80.563 41.779,80.563 42.833 M24.938 42.188 C 24.807 42.842,24.831 44.956,24.975 45.468 C 25.035 45.680,25.083 44.911,25.083 43.760 C 25.083 41.442,25.084 41.453,24.938 42.188 M30.896 43.750 C 30.896 44.758,30.924 45.149,30.957 44.619 C 30.990 44.088,30.990 43.263,30.956 42.786 C 30.922 42.308,30.895 42.742,30.896 43.750 M338.500 43.219 C 338.500 43.248,338.744 43.491,339.042 43.760 L 339.583 44.250 339.094 43.708 C 338.638 43.203,338.500 43.090,338.500 43.219 M91.872 45.167 C 91.872 45.487,91.906 45.619,91.948 45.458 C 91.990 45.298,91.990 45.035,91.948 44.875 C 91.906 44.715,91.872 44.846,91.872 45.167 M257.243 48.209 C 257.198 48.325,257.182 50.968,257.206 54.084 L 257.250 59.750 257.333 53.875 C 257.379 50.644,257.396 48.000,257.370 48.000 C 257.344 48.000,257.287 48.094,257.243 48.209 M32.290 48.750 C 32.479 49.025,32.846 49.438,33.104 49.667 C 33.416 49.943,33.358 49.831,32.930 49.333 C 32.057 48.316,31.881 48.156,32.290 48.750 M326.042 48.782 C 326.202 48.823,326.465 48.823,326.625 48.782 C 326.785 48.740,326.654 48.705,326.333 48.705 C 326.012 48.705,325.881 48.740,326.042 48.782 M44.945 49.914 C 45.139 50.049,45.924 50.818,46.689 51.622 C 47.454 52.426,47.934 52.896,47.755 52.667 C 47.156 51.899,44.926 49.667,44.758 49.667 C 44.667 49.667,44.751 49.778,44.945 49.914 M33.977 50.323 C 34.193 50.512,34.449 50.667,34.546 50.667 C 34.751 50.667,34.741 50.658,34.083 50.273 L 33.583 49.980 33.977 50.323 M331.333 50.052 C 331.333 50.081,331.577 50.325,331.875 50.594 L 332.417 51.083 331.927 50.542 C 331.471 50.037,331.333 49.923,331.333 50.052 M42.083 50.756 C 41.808 50.882,41.696 50.986,41.833 50.987 C 41.971 50.987,42.271 50.881,42.500 50.750 C 43.027 50.449,42.745 50.453,42.083 50.756 M40.167 51.200 C 39.662 51.288,38.537 51.326,37.667 51.283 C 36.392 51.220,36.230 51.236,36.833 51.363 C 37.701 51.546,40.559 51.430,41.168 51.187 C 41.676 50.984,41.373 50.988,40.167 51.200 M160.553 51.125 C 162.645 51.151,166.020 51.151,168.053 51.125 C 170.086 51.098,168.375 51.077,164.250 51.077 C 160.125 51.077,158.461 51.098,160.553 51.125 M28.167 52.552 C 28.167 52.581,28.410 52.825,28.708 53.094 L 29.250 53.583 28.760 53.042 C 28.304 52.537,28.167 52.423,28.167 52.552 M343.872 56.167 C 343.872 56.487,343.906 56.619,343.948 56.458 C 343.990 56.298,343.990 56.035,343.948 55.875 C 343.906 55.715,343.872 55.846,343.872 56.167 M12.667 56.305 C 10.114 56.642,6.482 57.865,4.952 58.904 C 4.631 59.122,4.200 59.353,3.994 59.419 C 3.637 59.532,3.625 59.595,3.723 60.810 C 3.879 62.740,4.201 64.350,4.328 63.833 C 4.460 63.298,4.976 63.058,6.693 62.734 C 7.458 62.590,8.314 62.403,8.595 62.319 C 9.923 61.923,13.224 62.162,16.083 62.860 C 22.679 64.471,28.302 69.897,30.180 76.463 C 30.584 77.877,30.581 77.978,30.125 78.161 C 29.589 78.377,34.022 78.380,34.589 78.164 C 34.882 78.053,35.001 77.911,34.939 77.748 C 34.887 77.611,34.898 77.500,34.964 77.500 C 35.084 77.500,34.917 72.856,34.763 71.917 C 33.769 65.844,27.400 59.101,20.667 56.992 C 19.979 56.777,19.283 56.621,19.120 56.645 C 18.957 56.669,18.559 56.602,18.235 56.495 C 17.693 56.316,13.632 56.178,12.667 56.305 M125.000 59.750 C 125.311 60.071,125.603 60.333,125.649 60.333 C 125.695 60.333,125.478 60.071,125.167 59.750 C 124.856 59.429,124.564 59.167,124.518 59.167 C 124.472 59.167,124.689 59.429,125.000 59.750 M264.792 60.125 C 268.756 60.150,275.244 60.150,279.208 60.125 C 283.173 60.100,279.929 60.080,272.000 60.080 C 264.071 60.080,260.827 60.100,264.792 60.125 M371.250 60.122 C 384.773 60.237,394.794 60.238,394.724 60.125 C 394.682 60.056,388.220 60.018,380.365 60.039 C 372.510 60.061,368.408 60.098,371.250 60.122 M52.083 61.157 C 50.422 61.542,48.501 62.199,47.844 62.607 C 45.812 63.868,43.926 65.289,43.593 65.811 C 43.380 66.144,43.053 66.590,42.866 66.802 C 41.224 68.664,40.115 73.611,40.825 75.905 C 40.912 76.186,41.073 76.774,41.181 77.211 C 41.447 78.281,41.238 78.252,48.417 78.239 C 56.273 78.225,58.888 77.682,62.301 75.357 C 62.548 75.189,63.255 74.717,63.873 74.310 C 64.952 73.598,67.500 71.266,67.500 70.990 C 67.500 70.917,67.600 70.757,67.723 70.634 C 68.769 69.588,70.737 65.652,71.047 63.986 L 71.283 62.723 70.433 62.762 C 69.331 62.814,66.876 62.551,65.500 62.233 C 64.904 62.096,64.304 61.979,64.167 61.974 C 64.029 61.969,63.354 61.830,62.667 61.666 C 59.212 60.840,54.438 60.611,52.083 61.157 M88.167 62.417 C 88.478 62.737,88.770 63.000,88.815 63.000 C 88.861 63.000,88.644 62.737,88.333 62.417 C 88.022 62.096,87.730 61.833,87.685 61.833 C 87.639 61.833,87.856 62.096,88.167 62.417 M6.000 68.167 C 6.187 68.533,6.378 68.833,6.423 68.833 C 6.469 68.833,6.354 68.533,6.167 68.167 C 5.980 67.800,5.789 67.500,5.743 67.500 C 5.697 67.500,5.813 67.800,6.000 68.167 M6.780 69.468 C 6.947 69.772,7.267 70.184,7.491 70.385 L 7.898 70.750 7.525 70.250 C 7.320 69.975,7.000 69.563,6.814 69.333 L 6.476 68.917 6.780 69.468 M105.708 70.453 C 105.960 70.491,106.373 70.491,106.625 70.453 C 106.877 70.415,106.671 70.383,106.167 70.383 C 105.662 70.383,105.456 70.415,105.708 70.453 M109.208 70.453 C 109.460 70.491,109.873 70.491,110.125 70.453 C 110.377 70.415,110.171 70.383,109.667 70.383 C 109.162 70.383,108.956 70.415,109.208 70.453 M185.792 70.451 C 185.998 70.491,186.335 70.491,186.542 70.451 C 186.748 70.411,186.579 70.379,186.167 70.379 C 185.754 70.379,185.585 70.411,185.792 70.451 M187.875 70.448 C 188.035 70.490,188.298 70.490,188.458 70.448 C 188.619 70.406,188.487 70.372,188.167 70.372 C 187.846 70.372,187.715 70.406,187.875 70.448 M190.042 70.448 C 190.202 70.490,190.465 70.490,190.625 70.448 C 190.785 70.406,190.654 70.372,190.333 70.372 C 190.012 70.372,189.881 70.406,190.042 70.448 M328.375 70.448 C 328.535 70.490,328.798 70.490,328.958 70.448 C 329.119 70.406,328.987 70.372,328.667 70.372 C 328.346 70.372,328.215 70.406,328.375 70.448 M9.500 72.750 C 10.091 73.346,10.611 73.833,10.657 73.833 C 10.703 73.833,10.257 73.346,9.667 72.750 C 9.076 72.154,8.555 71.667,8.510 71.667 C 8.464 71.667,8.909 72.154,9.500 72.750 M11.847 74.568 C 12.089 74.806,14.172 76.153,14.000 75.960 C 13.768 75.700,12.071 74.500,11.935 74.500 C 11.849 74.500,11.809 74.531,11.847 74.568 M22.625 78.284 C 22.831 78.324,23.169 78.324,23.375 78.284 C 23.581 78.245,23.412 78.212,23.000 78.212 C 22.587 78.212,22.419 78.245,22.625 78.284 " stroke="none" fill="#2786d1" fill-rule="evenodd"></path></g></svg>
