<svg id="svg" version="1.1" xmlns="http://www.w3.org/2000/svg" xmlns:xlink="http://www.w3.org/1999/xlink" width="160" height="118.125" viewBox="0, 0, 400,118.125"><g id="svgg"><path id="path0" d="M275.667 24.594 C 275.667 24.848,276.123 25.483,276.738 26.083 C 277.884 27.204,280.667 30.585,280.667 30.856 C 280.667 30.935,285.783 31.000,292.043 31.000 L 303.420 31.000 303.379 29.708 C 303.323 27.957,303.274 27.831,302.409 27.198 C 301.501 26.535,300.667 25.430,300.667 24.892 L 300.667 24.500 288.167 24.500 C 281.292 24.500,275.667 24.542,275.667 24.594 M336.675 24.819 C 336.579 24.998,336.500 26.034,336.500 27.120 L 336.500 29.095 337.714 30.256 C 338.381 30.894,339.518 31.867,340.240 32.417 C 340.961 32.967,341.831 33.660,342.171 33.958 C 342.512 34.256,342.839 34.500,342.898 34.500 C 342.957 34.500,342.985 32.269,342.961 29.542 L 342.917 24.583 339.883 24.538 C 337.017 24.495,336.839 24.511,336.675 24.819 M347.542 24.828 C 347.287 25.237,347.234 40.833,347.487 40.833 C 348.074 40.833,349.121 42.400,349.826 44.333 C 350.313 45.668,350.564 46.036,351.670 47.035 C 352.308 47.611,352.832 48.158,352.835 48.250 C 352.838 48.342,352.987 48.604,353.167 48.833 C 353.346 49.063,353.494 49.419,353.496 49.625 C 353.498 49.831,353.575 50.000,353.668 50.000 C 353.779 50.000,353.821 45.734,353.793 37.292 L 353.750 24.583 350.750 24.538 C 347.901 24.496,347.739 24.510,347.542 24.828 M285.833 35.812 C 285.833 36.534,286.729 37.642,288.658 39.307 C 289.756 40.256,290.700 41.174,290.755 41.349 C 290.852 41.653,291.097 41.667,296.604 41.667 C 301.161 41.667,302.326 41.623,302.223 41.458 C 302.152 41.344,302.113 41.096,302.138 40.908 C 302.162 40.720,302.029 40.427,301.841 40.257 C 301.653 40.087,301.500 39.861,301.500 39.753 C 301.500 39.646,301.325 39.394,301.112 39.193 C 300.898 38.993,300.557 38.496,300.354 38.090 C 300.152 37.684,299.845 37.306,299.672 37.252 C 299.500 37.197,299.091 36.856,298.763 36.493 C 298.436 36.130,298.059 35.833,297.927 35.833 C 297.795 35.833,297.640 35.758,297.583 35.667 C 297.363 35.311,285.833 35.454,285.833 35.812 M303.958 36.297 C 303.077 36.376,303.135 37.517,304.079 38.667 C 304.191 38.804,304.461 39.254,304.678 39.667 C 304.895 40.079,305.183 40.551,305.318 40.714 C 305.524 40.965,305.529 41.105,305.349 41.603 C 305.139 42.184,305.320 42.605,306.023 43.165 C 306.242 43.340,306.667 44.558,306.667 45.011 C 306.667 45.269,306.742 45.527,306.834 45.584 C 306.945 45.653,306.945 45.790,306.834 45.999 C 306.742 46.171,306.667 46.508,306.667 46.747 C 306.667 47.284,306.236 48.148,305.767 48.552 C 304.216 49.888,304.457 49.833,300.096 49.833 L 296.188 49.833 296.285 50.458 C 296.600 52.491,299.062 54.674,301.034 54.668 C 301.584 54.666,302.185 55.045,302.071 55.321 C 301.817 55.934,301.803 56.167,302.022 56.179 C 303.367 56.251,304.736 56.103,305.316 55.823 C 305.683 55.645,306.124 55.500,306.295 55.500 C 307.026 55.500,307.611 54.658,307.720 53.448 C 307.970 50.679,308.353 49.842,310.271 47.868 C 311.222 46.889,312.000 46.031,312.000 45.961 C 312.000 45.892,312.282 45.629,312.628 45.376 C 313.223 44.940,313.602 43.667,313.136 43.667 C 313.061 43.667,313.000 43.442,313.000 43.167 C 313.000 42.892,312.925 42.667,312.833 42.667 C 312.742 42.667,312.667 42.442,312.667 42.167 C 312.667 41.892,312.592 41.667,312.500 41.667 C 312.408 41.667,312.333 41.531,312.333 41.365 C 312.333 41.199,312.183 40.902,312.000 40.705 C 311.817 40.508,311.666 40.288,311.666 40.215 C 311.665 40.143,311.448 39.960,311.183 39.809 C 310.881 39.637,310.658 39.342,310.587 39.018 C 310.525 38.733,310.406 38.500,310.323 38.500 C 310.240 38.500,309.895 38.230,309.555 37.900 C 308.842 37.207,308.225 36.778,307.867 36.726 C 307.729 36.705,307.560 36.598,307.492 36.486 C 307.368 36.286,305.313 36.176,303.958 36.297 M320.417 52.667 C 320.360 52.758,320.031 52.833,319.685 52.833 C 317.704 52.833,317.296 53.058,315.583 55.089 C 314.712 56.120,314.000 57.035,314.000 57.121 C 314.000 57.360,314.963 58.167,315.249 58.167 C 315.387 58.167,315.500 58.242,315.500 58.333 C 315.500 58.425,315.692 58.500,315.927 58.500 C 316.221 58.500,316.316 58.565,316.233 58.708 C 316.166 58.823,316.315 58.704,316.562 58.443 C 317.048 57.932,317.500 58.045,317.500 58.677 C 317.500 59.048,318.400 59.213,320.000 59.136 L 321.083 59.083 321.174 58.333 C 321.265 57.583,321.573 56.839,321.798 56.827 C 321.863 56.823,322.177 56.598,322.494 56.326 L 323.072 55.832 322.703 55.573 C 322.294 55.287,322.238 54.891,322.518 54.277 C 322.874 53.496,320.858 51.952,320.417 52.667 M338.125 59.131 L 336.500 59.179 336.500 62.201 L 336.500 65.222 337.732 66.403 C 338.409 67.052,339.546 68.033,340.258 68.583 C 340.970 69.133,341.822 69.825,342.151 70.121 C 342.481 70.417,342.807 70.661,342.877 70.663 C 342.947 70.665,342.985 68.060,342.960 64.875 L 342.917 59.083 341.333 59.083 C 340.462 59.083,339.019 59.105,338.125 59.131 M347.444 59.111 C 347.383 59.172,347.333 63.210,347.333 68.084 L 347.333 76.946 347.733 77.129 C 348.306 77.390,348.866 78.222,349.498 79.750 C 349.802 80.483,350.147 81.308,350.265 81.583 C 350.384 81.858,350.935 82.531,351.491 83.078 C 352.046 83.625,352.500 84.171,352.500 84.290 C 352.500 84.466,353.938 84.505,359.981 84.495 L 367.463 84.482 368.606 83.124 C 369.235 82.377,370.012 81.503,370.333 81.181 C 370.882 80.630,371.342 78.543,371.044 77.958 C 370.838 77.555,362.698 77.912,362.502 78.333 C 362.145 79.101,362.012 79.270,361.604 79.470 C 360.865 79.833,360.198 79.587,360.070 78.905 C 360.006 78.564,359.865 78.333,359.720 78.333 C 359.586 78.333,359.364 78.221,359.226 78.083 C 359.026 77.883,358.468 77.833,356.405 77.833 L 353.833 77.833 353.833 68.417 L 353.833 59.000 350.694 59.000 C 348.968 59.000,347.506 59.050,347.444 59.111 M275.596 60.812 C 275.547 60.893,275.960 61.428,276.515 62.002 C 277.458 62.978,278.725 64.438,279.935 65.943 C 280.219 66.298,280.506 66.755,280.571 66.960 C 280.682 67.310,280.783 67.333,282.178 67.333 L 283.667 67.333 283.673 68.375 C 283.679 69.363,283.707 69.434,284.213 69.752 C 284.595 69.993,285.006 70.593,285.665 71.875 C 286.566 73.627,288.891 76.145,289.625 76.162 C 289.787 76.166,289.833 75.175,289.833 71.750 L 289.833 67.333 295.742 67.333 C 301.899 67.333,303.316 67.214,303.353 66.695 C 303.394 66.129,303.310 64.408,303.230 64.167 C 303.185 64.029,302.705 63.579,302.165 63.167 C 301.403 62.586,301.100 62.220,300.821 61.542 L 300.461 60.667 288.074 60.667 C 281.182 60.667,275.646 60.731,275.596 60.812 M310.993 76.660 C 310.466 77.321,309.194 77.715,307.333 77.795 C 306.371 77.836,305.490 77.946,305.375 78.039 C 305.232 78.154,305.090 78.144,304.923 78.005 C 304.715 77.833,304.689 77.885,304.749 78.357 C 304.831 79.007,304.326 79.667,303.745 79.667 C 303.329 79.667,302.433 78.909,302.576 78.678 C 302.629 78.593,302.527 78.478,302.351 78.422 C 302.175 78.366,301.989 78.211,301.937 78.077 C 301.858 77.870,301.056 77.833,296.672 77.833 C 290.872 77.833,291.094 77.778,291.818 79.032 C 291.993 79.335,292.311 80.101,292.525 80.733 C 292.846 81.683,293.095 82.064,293.957 82.926 C 294.531 83.500,295.000 84.091,295.000 84.239 C 295.000 84.484,295.644 84.508,301.920 84.495 C 305.726 84.486,308.804 84.421,308.760 84.349 C 308.716 84.278,309.070 84.205,309.547 84.188 C 310.309 84.161,310.466 84.092,310.833 83.622 C 311.062 83.328,311.625 82.649,312.083 82.112 C 313.593 80.347,313.543 80.444,313.630 79.090 C 313.726 77.598,313.618 77.419,312.231 76.763 C 311.157 76.254,311.307 76.266,310.993 76.660 M320.250 88.943 C 319.792 89.082,318.920 89.246,318.313 89.307 C 317.091 89.429,317.071 89.445,314.821 92.167 C 314.328 92.763,313.779 93.370,313.601 93.516 C 313.010 94.001,313.365 94.374,314.290 94.238 C 314.727 94.173,315.108 94.056,315.139 93.977 C 315.169 93.898,315.376 93.833,315.597 93.833 C 315.819 93.833,316.000 93.758,316.000 93.667 C 316.000 93.575,316.143 93.500,316.318 93.500 C 316.658 93.500,318.047 92.833,318.139 92.625 C 318.169 92.556,318.338 92.500,318.514 92.500 C 318.690 92.500,318.833 92.432,318.833 92.350 C 318.833 92.267,319.040 92.127,319.292 92.039 C 319.544 91.951,320.107 91.606,320.543 91.273 C 320.979 90.939,321.376 90.667,321.426 90.667 C 321.815 90.667,322.334 89.810,322.092 89.568 C 321.949 89.425,321.754 89.163,321.660 88.987 C 321.458 88.611,321.352 88.607,320.250 88.943 M297.500 88.988 C 297.500 89.470,299.350 90.458,301.111 90.917 C 302.317 91.231,302.292 91.183,301.775 92.179 C 301.246 93.199,301.250 93.167,301.667 93.167 C 301.850 93.167,302.000 93.087,302.000 92.990 C 302.000 92.893,302.065 92.854,302.145 92.903 C 302.371 93.043,304.136 92.553,305.333 92.018 C 307.079 91.239,307.409 91.107,307.542 91.138 C 307.610 91.154,307.667 90.642,307.667 90.000 L 307.667 88.833 302.583 88.833 C 299.566 88.833,297.500 88.896,297.500 88.988 M355.000 88.928 C 355.000 89.516,356.558 90.406,358.350 90.842 C 358.845 90.962,359.314 91.115,359.392 91.181 C 359.553 91.316,359.171 92.500,358.967 92.500 C 358.893 92.500,358.833 92.650,358.833 92.833 C 358.833 93.017,358.927 93.164,359.042 93.162 C 359.562 93.149,362.223 92.334,362.472 92.111 C 362.625 91.974,363.176 91.719,363.697 91.544 C 365.058 91.087,365.167 90.959,365.167 89.813 L 365.167 88.833 360.083 88.833 C 357.287 88.833,355.000 88.876,355.000 88.928 M374.653 89.067 C 374.760 89.196,374.781 89.327,374.701 89.359 C 374.556 89.416,373.325 90.808,372.614 91.716 C 370.556 94.349,369.308 94.883,366.917 94.154 C 366.389 93.993,365.500 93.021,365.500 92.606 C 365.500 92.263,365.321 91.833,365.178 91.833 C 365.112 91.833,365.091 92.058,365.131 92.333 C 365.192 92.748,365.147 92.833,364.867 92.833 C 364.681 92.833,364.340 93.058,364.109 93.333 C 363.878 93.608,363.608 93.833,363.511 93.833 C 363.413 93.833,363.333 93.974,363.333 94.145 C 363.333 94.394,363.164 94.480,362.500 94.568 C 360.307 94.858,361.986 95.000,367.627 95.000 C 373.406 95.000,373.593 94.990,373.795 94.667 C 373.909 94.483,374.152 94.333,374.333 94.333 C 374.515 94.333,374.758 94.483,374.872 94.667 C 375.059 94.967,375.261 95.000,376.895 95.000 L 378.710 95.000 378.612 94.397 C 378.512 93.777,379.388 92.685,380.208 92.409 C 380.797 92.211,380.603 90.322,379.952 89.914 C 379.658 89.729,379.393 89.411,379.363 89.206 C 379.311 88.840,379.268 88.833,376.885 88.833 C 374.822 88.833,374.488 88.868,374.653 89.067 M307.853 92.208 C 307.842 92.369,307.740 92.500,307.625 92.501 C 307.510 92.502,307.292 92.721,307.140 92.989 C 306.955 93.313,306.706 93.493,306.390 93.529 C 306.014 93.572,305.906 93.678,305.864 94.042 C 305.823 94.397,305.723 94.500,305.419 94.500 C 304.914 94.500,304.500 94.661,304.500 94.857 C 304.500 94.947,305.985 95.004,308.083 94.993 C 311.495 94.977,312.490 94.841,310.976 94.599 C 309.306 94.332,308.289 93.563,307.978 92.333 C 307.913 92.075,307.865 92.028,307.853 92.208 " stroke="none" fill="#d0a904" fill-rule="evenodd"></path><path id="path1" d="M275.333 24.838 C 275.333 25.023,275.652 25.496,276.042 25.887 C 276.958 26.808,277.667 27.749,277.667 28.044 C 277.667 28.173,277.723 28.334,277.792 28.403 C 277.860 28.472,277.917 28.615,277.917 28.722 C 277.917 28.829,278.174 29.000,278.488 29.101 C 278.841 29.216,278.968 29.319,278.821 29.374 C 278.645 29.440,278.718 29.585,279.104 29.939 C 280.232 30.973,280.667 31.228,280.667 30.856 C 280.667 30.584,277.957 27.298,276.640 25.974 C 276.214 25.545,275.815 25.037,275.754 24.847 C 275.613 24.403,275.333 24.397,275.333 24.838 M336.500 29.214 C 336.500 29.577,337.072 30.667,337.263 30.667 C 337.481 30.667,337.415 31.137,337.170 31.333 C 336.620 31.774,336.500 32.970,336.519 37.839 L 336.538 42.750 337.940 44.000 C 338.712 44.688,340.098 45.981,341.022 46.875 C 341.946 47.769,342.769 48.500,342.851 48.500 C 342.936 48.500,342.996 45.535,342.992 41.542 L 342.983 34.583 342.200 33.958 C 341.769 33.613,340.779 32.839,340.000 32.238 C 339.221 31.636,338.393 30.942,338.160 30.697 C 337.428 29.926,336.500 29.096,336.500 29.214 M278.000 33.003 C 277.679 33.180,276.892 33.564,276.250 33.856 C 274.060 34.852,272.386 36.161,273.292 36.169 C 274.464 36.179,275.178 36.744,275.922 38.250 C 276.254 38.922,276.670 39.602,276.846 39.762 C 277.022 39.921,277.167 40.107,277.167 40.174 C 277.167 40.353,278.833 42.000,279.014 42.000 C 279.103 42.000,279.167 40.056,279.167 37.333 C 279.167 32.116,279.224 32.328,278.000 33.003 M283.667 41.417 C 283.667 45.196,283.726 47.333,283.831 47.333 C 284.141 47.333,286.334 49.566,286.684 50.238 C 286.877 50.607,287.214 51.123,287.434 51.384 C 287.654 51.645,287.833 51.935,287.833 52.029 C 287.833 52.122,287.987 52.415,288.176 52.679 L 288.518 53.160 289.002 52.664 C 289.579 52.074,290.736 51.527,292.667 50.931 C 295.319 50.111,295.169 49.833,292.073 49.833 L 289.833 49.833 289.833 45.750 L 289.833 41.667 290.333 41.667 C 291.252 41.667,290.960 41.276,288.352 39.019 C 286.691 37.581,285.833 36.490,285.833 35.816 C 285.833 35.538,285.703 35.500,284.750 35.500 L 283.667 35.500 283.667 41.417 M347.333 46.269 L 347.333 51.704 347.792 51.613 C 348.626 51.446,350.247 50.967,350.417 50.837 C 350.508 50.767,350.879 50.657,351.241 50.591 C 351.603 50.526,352.082 50.329,352.305 50.153 C 352.852 49.723,353.143 49.751,353.333 50.250 C 353.523 50.749,353.833 50.801,353.833 50.333 C 353.833 50.150,353.758 50.000,353.667 50.000 C 353.575 50.000,353.498 49.831,353.496 49.625 C 353.494 49.419,353.346 49.063,353.167 48.833 C 352.987 48.604,352.838 48.342,352.835 48.250 C 352.832 48.158,352.308 47.611,351.670 47.035 C 350.564 46.036,350.313 45.668,349.826 44.333 C 349.121 42.400,348.074 40.833,347.487 40.833 C 347.396 40.833,347.333 43.057,347.333 46.269 M295.833 50.268 C 295.833 50.987,296.804 52.794,297.600 53.556 L 298.345 54.271 297.909 54.504 C 297.117 54.928,296.766 55.585,297.115 55.992 C 297.414 56.341,301.150 56.545,300.937 56.200 C 300.892 56.127,301.000 55.976,301.177 55.865 C 301.456 55.691,301.500 55.709,301.500 55.999 C 301.500 56.461,301.913 56.423,301.931 55.958 C 301.939 55.752,301.998 55.465,302.063 55.321 C 302.186 55.045,301.590 54.666,301.034 54.668 C 299.196 54.673,296.333 52.246,296.333 50.682 C 296.333 50.245,296.163 49.833,295.982 49.833 C 295.900 49.833,295.833 50.029,295.833 50.268 M307.556 56.092 C 307.556 56.225,307.693 56.333,307.861 56.333 C 308.029 56.333,308.167 56.298,308.167 56.256 C 308.167 56.213,308.029 56.105,307.861 56.015 C 307.630 55.891,307.556 55.910,307.556 56.092 M303.208 56.288 C 303.552 56.324,304.115 56.324,304.458 56.288 C 304.802 56.252,304.521 56.223,303.833 56.223 C 303.146 56.223,302.865 56.252,303.208 56.288 M353.376 56.798 C 352.813 58.070,352.194 58.810,351.636 58.879 C 351.332 58.916,351.702 58.959,352.458 58.973 L 353.833 59.000 353.833 57.667 C 353.833 56.260,353.714 56.034,353.376 56.798 M340.295 59.121 C 340.594 59.158,341.044 59.157,341.295 59.119 C 341.545 59.081,341.300 59.051,340.750 59.052 C 340.200 59.053,339.995 59.084,340.295 59.121 M275.096 60.813 C 275.046 60.894,275.335 61.314,275.738 61.746 C 276.822 62.910,277.471 63.750,277.696 64.279 C 277.805 64.538,278.163 65.012,278.490 65.333 C 278.817 65.654,279.314 66.184,279.595 66.512 C 280.693 67.795,281.005 67.275,279.935 65.943 C 278.725 64.438,277.458 62.978,276.515 62.002 C 275.960 61.428,275.547 60.893,275.596 60.812 C 275.646 60.732,275.574 60.667,275.436 60.667 C 275.299 60.667,275.146 60.733,275.096 60.813 M336.500 65.409 C 336.500 65.596,336.922 66.445,337.151 66.719 C 337.306 66.904,337.340 67.065,337.240 67.135 C 336.740 67.488,336.606 68.809,336.563 73.833 L 336.520 78.917 338.207 80.417 C 340.815 82.736,341.833 83.787,341.833 84.161 C 341.833 84.495,341.912 84.500,347.167 84.500 C 353.261 84.500,353.015 84.581,351.491 83.078 C 350.935 82.531,350.383 81.858,350.263 81.583 C 350.143 81.308,349.791 80.453,349.481 79.683 C 348.712 77.774,347.333 76.304,347.333 77.393 C 347.333 77.824,346.398 77.996,344.042 77.999 L 343.000 78.000 343.000 74.333 C 343.000 72.317,342.944 70.665,342.875 70.663 C 342.806 70.661,342.481 70.417,342.151 70.121 C 341.822 69.825,340.970 69.133,340.257 68.583 C 339.544 68.033,338.435 67.077,337.792 66.458 C 336.670 65.380,336.500 65.241,336.500 65.409 M278.167 69.076 C 277.754 69.296,276.779 69.771,276.000 70.131 C 275.221 70.491,274.292 71.022,273.935 71.310 C 273.579 71.598,273.223 71.833,273.144 71.833 C 273.065 71.833,273.000 71.983,273.000 72.167 C 273.000 72.449,273.111 72.500,273.730 72.500 C 274.616 72.500,275.320 73.117,275.915 74.417 C 276.470 75.629,278.557 78.167,278.999 78.167 C 279.107 78.167,279.167 76.489,279.167 73.417 C 279.167 70.804,279.110 68.668,279.042 68.671 C 278.973 68.673,278.579 68.855,278.167 69.076 M283.667 76.482 C 283.667 82.553,283.700 83.477,283.918 83.561 C 284.056 83.614,284.256 83.847,284.362 84.079 L 284.554 84.500 289.777 84.500 C 295.827 84.500,295.612 84.581,293.957 82.926 C 293.095 82.064,292.846 81.683,292.525 80.733 C 292.311 80.101,291.993 79.335,291.818 79.032 C 291.643 78.729,291.500 78.335,291.500 78.157 C 291.500 77.880,291.381 77.833,290.667 77.833 L 289.833 77.833 289.833 77.012 C 289.833 76.446,289.761 76.174,289.600 76.137 C 288.683 75.925,286.468 73.537,285.651 71.878 C 284.903 70.360,284.238 69.500,283.811 69.500 C 283.732 69.500,283.667 72.642,283.667 76.482 M297.257 89.208 C 297.388 89.647,298.061 90.333,298.359 90.333 C 298.473 90.333,298.244 90.540,297.849 90.792 C 297.117 91.259,295.000 94.195,295.000 94.743 C 295.000 95.291,296.214 95.061,296.942 94.375 C 297.774 93.591,301.729 91.494,301.414 92.005 C 301.206 92.341,300.835 94.042,300.858 94.550 L 300.883 95.083 300.948 94.583 C 301.031 93.950,301.255 93.314,301.789 92.203 C 302.285 91.170,302.319 91.232,301.067 90.906 C 299.659 90.539,297.710 89.566,297.583 89.166 C 297.525 88.983,297.403 88.833,297.311 88.833 C 297.216 88.833,297.193 88.994,297.257 89.208 M354.667 89.149 C 354.667 89.323,354.916 89.684,355.220 89.951 L 355.773 90.437 355.207 90.843 C 354.437 91.398,354.437 91.398,353.409 92.996 C 352.270 94.767,352.250 95.000,353.239 95.000 C 353.821 95.000,353.999 94.932,354.079 94.679 C 354.135 94.503,354.534 94.145,354.966 93.884 C 355.397 93.624,355.900 93.317,356.083 93.203 C 356.439 92.982,357.670 92.398,358.292 92.155 C 358.748 91.977,358.817 92.632,358.417 93.333 C 358.144 93.811,358.084 95.000,358.333 95.000 C 358.425 95.000,358.500 94.814,358.500 94.586 C 358.500 94.116,358.862 92.626,359.007 92.500 C 359.801 91.807,359.533 91.130,358.350 90.842 C 356.916 90.493,355.348 89.715,355.134 89.246 C 354.911 88.756,354.667 88.706,354.667 89.149 " stroke="none" fill="#07950a" fill-rule="evenodd"></path><path id="path2" d="M273.000 30.083 C 273.000 33.154,273.056 35.667,273.126 35.667 C 273.195 35.667,273.626 35.398,274.084 35.070 C 274.542 34.741,275.479 34.215,276.167 33.899 C 276.854 33.584,277.694 33.177,278.033 32.996 C 278.372 32.815,278.766 32.667,278.908 32.667 C 279.107 32.667,279.167 32.475,279.167 31.833 C 279.167 31.019,279.178 31.000,279.667 31.000 C 279.942 31.000,280.167 30.925,280.167 30.833 C 280.167 30.742,280.105 30.667,280.030 30.667 C 279.711 30.667,278.585 29.465,278.821 29.376 C 278.970 29.320,278.845 29.217,278.488 29.101 C 278.174 29.000,277.917 28.829,277.917 28.722 C 277.917 28.615,277.860 28.472,277.792 28.403 C 277.723 28.334,277.667 28.173,277.667 28.044 C 277.667 27.749,276.958 26.808,276.042 25.887 C 275.652 25.496,275.333 25.023,275.333 24.838 C 275.333 24.531,275.227 24.500,274.167 24.500 L 273.000 24.500 273.000 30.083 M336.401 54.500 C 336.405 70.496,336.452 80.246,336.506 76.167 C 336.604 68.767,336.706 67.512,337.240 67.135 C 337.340 67.065,337.303 66.903,337.146 66.719 C 336.570 66.044,336.492 65.460,336.538 62.165 L 336.583 58.917 337.988 58.833 L 339.393 58.750 337.946 57.398 L 336.500 56.046 336.500 44.487 C 336.500 32.591,336.538 31.839,337.170 31.333 C 337.409 31.142,337.481 30.667,337.272 30.667 C 336.829 30.667,336.597 29.746,336.495 27.583 C 336.440 26.392,336.397 38.504,336.401 54.500 M35.500 26.500 C 35.500 26.599,34.861 26.667,33.917 26.667 C 32.972 26.667,32.333 26.734,32.333 26.833 C 32.333 26.925,31.921 27.000,31.417 27.000 C 30.912 27.000,30.500 27.075,30.500 27.167 C 30.500 27.258,30.200 27.333,29.833 27.333 C 29.467 27.333,29.167 27.408,29.167 27.500 C 29.167 27.592,28.904 27.667,28.583 27.667 C 28.262 27.667,28.000 27.742,28.000 27.833 C 28.000 27.925,27.775 28.000,27.500 28.000 C 27.225 28.000,27.000 28.070,27.000 28.155 C 27.000 28.240,26.587 28.361,26.083 28.424 C 25.579 28.487,25.167 28.605,25.167 28.686 C 25.167 28.767,25.032 28.833,24.867 28.833 C 24.494 28.833,23.670 29.206,23.668 29.375 C 23.667 29.444,23.517 29.500,23.333 29.500 C 23.150 29.500,23.000 29.575,23.000 29.667 C 23.000 29.758,22.850 29.833,22.667 29.833 C 22.483 29.833,22.333 29.908,22.333 30.000 C 22.333 30.092,22.183 30.167,22.000 30.167 C 21.817 30.167,21.667 30.242,21.667 30.333 C 21.667 30.425,21.554 30.500,21.417 30.500 C 21.279 30.500,21.167 30.575,21.167 30.667 C 21.167 30.758,21.022 30.833,20.845 30.833 C 20.668 30.833,20.411 30.946,20.274 31.083 C 20.136 31.221,19.906 31.333,19.762 31.333 C 19.618 31.333,19.500 31.408,19.500 31.500 C 19.500 31.592,19.418 31.667,19.317 31.667 C 19.216 31.667,18.924 31.892,18.667 32.167 C 18.410 32.442,18.114 32.667,18.009 32.667 C 17.904 32.667,17.631 32.854,17.402 33.083 C 17.172 33.313,16.906 33.500,16.809 33.500 C 16.712 33.500,16.112 34.025,15.477 34.667 C 14.842 35.308,14.257 35.833,14.179 35.833 C 13.953 35.833,13.000 36.778,13.000 37.002 C 13.000 37.113,12.587 37.582,12.083 38.044 C 11.579 38.505,11.167 38.992,11.167 39.125 C 11.167 39.258,10.942 39.576,10.667 39.833 C 10.392 40.090,10.167 40.353,10.167 40.417 C 10.167 40.481,9.942 40.743,9.667 41.000 C 9.392 41.257,9.167 41.587,9.167 41.734 C 9.167 41.880,9.092 42.000,9.000 42.000 C 8.908 42.000,8.833 42.145,8.833 42.321 C 8.833 42.498,8.721 42.755,8.583 42.893 C 8.446 43.030,8.333 43.223,8.333 43.321 C 8.333 43.420,8.258 43.500,8.167 43.500 C 8.075 43.500,8.000 43.650,8.000 43.833 C 8.000 44.017,7.925 44.167,7.833 44.167 C 7.742 44.167,7.667 44.317,7.667 44.500 C 7.667 44.683,7.592 44.833,7.500 44.833 C 7.408 44.833,7.333 44.983,7.333 45.167 C 7.333 45.350,7.258 45.500,7.167 45.500 C 7.075 45.500,7.000 45.612,7.000 45.750 C 7.000 45.887,6.925 46.000,6.833 46.000 C 6.742 46.000,6.667 46.150,6.667 46.333 C 6.667 46.517,6.596 46.667,6.510 46.667 C 6.424 46.667,6.303 47.004,6.241 47.417 C 6.179 47.829,6.062 48.167,5.981 48.167 C 5.900 48.167,5.833 48.392,5.833 48.667 C 5.833 48.942,5.758 49.167,5.667 49.167 C 5.575 49.167,5.500 49.392,5.500 49.667 C 5.500 49.942,5.425 50.167,5.333 50.167 C 5.242 50.167,5.167 50.429,5.167 50.750 C 5.167 51.071,5.092 51.333,5.000 51.333 C 4.908 51.333,4.833 51.633,4.833 52.000 C 4.833 52.367,4.758 52.667,4.667 52.667 C 4.575 52.667,4.500 53.004,4.500 53.417 C 4.500 53.829,4.425 54.167,4.333 54.167 C 4.239 54.167,4.167 54.636,4.167 55.240 C 4.167 55.831,4.092 56.360,4.000 56.417 C 3.896 56.481,3.833 58.110,3.833 60.750 C 3.833 63.390,3.896 65.019,4.000 65.083 C 4.092 65.140,4.167 65.707,4.167 66.343 C 4.167 67.003,4.238 67.500,4.333 67.500 C 4.425 67.500,4.500 67.875,4.500 68.333 C 4.500 68.792,4.575 69.167,4.667 69.167 C 4.758 69.167,4.833 69.429,4.833 69.750 C 4.833 70.071,4.908 70.333,5.000 70.333 C 5.092 70.333,5.167 70.633,5.167 71.000 C 5.167 71.367,5.242 71.667,5.333 71.667 C 5.425 71.667,5.500 71.854,5.500 72.083 C 5.500 72.313,5.575 72.500,5.667 72.500 C 5.758 72.500,5.833 72.725,5.833 73.000 C 5.833 73.275,5.898 73.500,5.978 73.500 C 6.058 73.500,6.165 73.817,6.217 74.205 C 6.269 74.592,6.392 74.936,6.489 74.969 C 6.587 75.001,6.667 75.172,6.667 75.347 C 6.667 75.523,6.742 75.667,6.833 75.667 C 6.925 75.667,7.000 75.817,7.000 76.000 C 7.000 76.183,7.075 76.333,7.167 76.333 C 7.258 76.333,7.333 76.483,7.333 76.667 C 7.333 76.850,7.408 77.000,7.500 77.000 C 7.592 77.000,7.667 77.112,7.667 77.250 C 7.667 77.387,7.742 77.500,7.833 77.500 C 7.925 77.500,8.000 77.650,8.000 77.833 C 8.000 78.017,8.075 78.167,8.167 78.167 C 8.258 78.167,8.333 78.317,8.333 78.500 C 8.333 78.683,8.394 78.833,8.468 78.833 C 8.542 78.833,8.743 79.152,8.914 79.542 C 9.085 79.931,9.437 80.449,9.696 80.692 C 9.955 80.935,10.167 81.224,10.167 81.333 C 10.167 81.443,10.392 81.743,10.667 82.000 C 10.942 82.257,11.167 82.548,11.167 82.647 C 11.167 82.746,11.651 83.297,12.243 83.872 C 13.526 85.116,13.473 85.064,14.574 86.191 C 15.534 87.173,16.282 87.833,16.434 87.833 C 16.489 87.833,16.743 88.058,17.000 88.333 C 17.257 88.608,17.553 88.833,17.658 88.833 C 17.763 88.833,18.036 89.021,18.265 89.250 C 18.494 89.479,18.791 89.667,18.924 89.667 C 19.058 89.667,19.167 89.742,19.167 89.833 C 19.167 89.925,19.300 90.000,19.463 90.000 C 19.626 90.000,19.868 90.150,20.000 90.333 C 20.132 90.517,20.374 90.667,20.537 90.667 C 20.700 90.667,20.833 90.742,20.833 90.833 C 20.833 90.925,20.911 91.000,21.007 91.000 C 21.102 91.000,21.342 91.150,21.538 91.333 C 21.735 91.517,22.070 91.667,22.281 91.667 C 22.493 91.667,22.667 91.733,22.667 91.815 C 22.667 91.896,22.929 92.012,23.250 92.072 C 23.571 92.133,23.833 92.253,23.833 92.341 C 23.833 92.428,23.983 92.500,24.167 92.500 C 24.350 92.500,24.500 92.575,24.500 92.667 C 24.500 92.758,24.725 92.833,25.000 92.833 C 25.275 92.833,25.500 92.908,25.500 93.000 C 25.500 93.092,25.688 93.167,25.917 93.167 C 26.146 93.167,26.333 93.242,26.333 93.333 C 26.333 93.425,26.558 93.500,26.833 93.500 C 27.108 93.500,27.333 93.575,27.333 93.667 C 27.333 93.758,27.558 93.833,27.833 93.833 C 28.108 93.833,28.333 93.908,28.333 94.000 C 28.333 94.092,28.581 94.167,28.883 94.167 C 29.186 94.167,29.505 94.238,29.592 94.325 C 29.679 94.413,30.557 94.536,31.542 94.600 C 32.527 94.664,33.333 94.780,33.333 94.858 C 33.333 94.936,34.308 95.000,35.500 95.000 C 36.833 95.000,37.667 95.064,37.667 95.167 C 37.667 95.258,37.929 95.333,38.250 95.333 C 38.571 95.333,38.833 95.258,38.833 95.167 C 38.833 95.063,39.750 95.000,41.250 95.000 C 42.579 95.000,43.667 94.936,43.667 94.858 C 43.667 94.780,44.473 94.664,45.458 94.601 C 46.444 94.537,47.275 94.414,47.306 94.326 C 47.336 94.238,47.692 94.167,48.097 94.167 C 48.502 94.167,48.833 94.092,48.833 94.000 C 48.833 93.908,49.058 93.833,49.333 93.833 C 49.608 93.833,49.833 93.758,49.833 93.667 C 49.833 93.575,50.058 93.500,50.333 93.500 C 50.608 93.500,50.833 93.425,50.833 93.333 C 50.833 93.242,51.021 93.167,51.250 93.167 C 51.479 93.167,51.667 93.092,51.667 93.000 C 51.667 92.908,51.892 92.833,52.167 92.833 C 52.442 92.833,52.667 92.758,52.667 92.667 C 52.667 92.575,52.817 92.500,53.000 92.500 C 53.183 92.500,53.333 92.434,53.333 92.352 C 53.333 92.271,53.671 92.154,54.083 92.092 C 54.496 92.030,54.833 91.909,54.833 91.823 C 54.833 91.737,54.983 91.667,55.167 91.667 C 55.350 91.667,55.500 91.592,55.500 91.500 C 55.500 91.408,55.650 91.333,55.833 91.333 C 56.017 91.333,56.167 91.258,56.167 91.167 C 56.167 91.075,56.279 91.000,56.417 91.000 C 56.554 91.000,56.667 90.925,56.667 90.833 C 56.667 90.742,56.817 90.667,57.000 90.667 C 57.183 90.667,57.333 90.592,57.333 90.500 C 57.333 90.408,57.467 90.333,57.630 90.333 C 57.793 90.333,58.033 90.186,58.162 90.006 C 58.292 89.826,58.598 89.635,58.843 89.581 C 59.088 89.527,59.445 89.337,59.637 89.158 C 59.829 88.980,60.072 88.833,60.176 88.833 C 60.281 88.833,60.576 88.608,60.833 88.333 C 61.090 88.058,61.348 87.833,61.407 87.833 C 61.519 87.833,61.768 87.642,62.383 87.083 C 62.585 86.900,62.956 86.644,63.208 86.514 C 63.939 86.137,63.788 85.703,62.500 84.478 C 61.858 83.867,61.333 83.290,61.333 83.195 C 61.333 83.100,60.658 82.333,59.833 81.491 C 59.008 80.648,58.333 79.891,58.333 79.807 C 58.333 79.723,57.546 78.871,56.583 77.913 C 55.621 76.955,54.833 76.058,54.833 75.919 C 54.833 75.526,53.796 75.589,53.500 76.000 C 53.368 76.183,53.143 76.333,53.000 76.333 C 52.857 76.333,52.632 76.483,52.500 76.667 C 52.368 76.850,52.126 77.000,51.963 77.000 C 51.800 77.000,51.667 77.058,51.667 77.129 C 51.667 77.200,51.404 77.399,51.083 77.572 C 50.762 77.744,50.500 77.949,50.500 78.026 C 50.500 78.103,50.350 78.167,50.167 78.167 C 49.983 78.167,49.833 78.242,49.833 78.333 C 49.833 78.425,49.683 78.500,49.500 78.500 C 49.317 78.500,49.167 78.575,49.167 78.667 C 49.167 78.758,48.979 78.833,48.750 78.833 C 48.521 78.833,48.333 78.908,48.333 79.000 C 48.333 79.092,48.183 79.167,48.000 79.167 C 47.817 79.167,47.667 79.242,47.667 79.333 C 47.667 79.425,47.442 79.500,47.167 79.500 C 46.892 79.500,46.667 79.568,46.667 79.651 C 46.667 79.734,46.292 79.854,45.834 79.917 C 45.375 79.980,44.958 80.099,44.907 80.182 C 44.856 80.265,44.481 80.333,44.073 80.333 C 43.666 80.333,43.333 80.408,43.333 80.500 C 43.333 80.594,42.861 80.667,42.250 80.667 C 41.639 80.667,41.167 80.739,41.167 80.833 C 41.167 80.938,40.111 81.000,38.333 81.000 C 36.556 81.000,35.500 80.938,35.500 80.833 C 35.500 80.742,35.092 80.667,34.593 80.667 C 34.094 80.667,33.640 80.592,33.583 80.500 C 33.527 80.408,33.147 80.333,32.740 80.333 C 32.333 80.333,32.000 80.264,32.000 80.179 C 32.000 80.094,31.587 79.972,31.083 79.909 C 30.579 79.846,30.167 79.729,30.167 79.647 C 30.167 79.566,30.017 79.500,29.833 79.500 C 29.650 79.500,29.500 79.425,29.500 79.333 C 29.500 79.242,29.350 79.167,29.167 79.167 C 28.983 79.167,28.833 79.106,28.833 79.031 C 28.833 78.957,28.571 78.793,28.250 78.667 C 27.929 78.541,27.667 78.377,27.667 78.302 C 27.667 78.228,27.517 78.167,27.333 78.167 C 27.150 78.167,27.000 78.109,27.000 78.038 C 27.000 77.967,26.737 77.768,26.417 77.595 C 26.096 77.422,25.833 77.218,25.833 77.140 C 25.833 77.063,25.721 77.000,25.583 77.000 C 25.298 77.000,22.333 74.096,22.333 73.816 C 22.333 73.716,22.119 73.433,21.857 73.189 C 21.595 72.944,21.327 72.576,21.262 72.372 C 21.197 72.167,21.074 72.000,20.989 72.000 C 20.903 72.000,20.833 71.850,20.833 71.667 C 20.833 71.483,20.758 71.333,20.667 71.333 C 20.575 71.333,20.500 71.183,20.500 71.000 C 20.500 70.817,20.425 70.667,20.333 70.667 C 20.242 70.667,20.167 70.554,20.167 70.417 C 20.167 70.279,20.092 70.167,20.000 70.167 C 19.908 70.167,19.833 70.017,19.833 69.833 C 19.833 69.650,19.758 69.500,19.667 69.500 C 19.575 69.500,19.500 69.275,19.500 69.000 C 19.500 68.725,19.425 68.500,19.333 68.500 C 19.242 68.500,19.167 68.313,19.167 68.083 C 19.167 67.854,19.099 67.667,19.017 67.667 C 18.935 67.667,18.815 67.066,18.750 66.332 C 18.685 65.599,18.565 64.957,18.483 64.906 C 18.400 64.855,18.333 64.256,18.333 63.573 C 18.333 62.858,18.263 62.333,18.167 62.333 C 18.066 62.333,18.000 61.639,18.000 60.583 C 18.000 59.528,18.066 58.833,18.167 58.833 C 18.263 58.833,18.333 58.306,18.333 57.583 C 18.333 56.896,18.402 56.333,18.486 56.333 C 18.570 56.333,18.691 55.771,18.755 55.083 C 18.820 54.396,18.939 53.833,19.020 53.833 C 19.100 53.833,19.167 53.608,19.167 53.333 C 19.167 53.058,19.242 52.833,19.333 52.833 C 19.425 52.833,19.500 52.721,19.500 52.583 C 19.500 52.446,19.575 52.333,19.667 52.333 C 19.758 52.333,19.833 52.183,19.833 52.000 C 19.833 51.817,19.908 51.667,20.000 51.667 C 20.092 51.667,20.167 51.517,20.167 51.333 C 20.167 51.150,20.242 51.000,20.333 51.000 C 20.425 51.000,20.500 50.850,20.500 50.667 C 20.500 50.483,20.575 50.333,20.667 50.333 C 20.758 50.333,20.833 50.221,20.833 50.083 C 20.833 49.946,20.908 49.833,21.000 49.833 C 21.092 49.833,21.167 49.687,21.167 49.508 C 21.167 49.328,21.354 48.994,21.583 48.765 C 21.813 48.536,22.000 48.306,22.000 48.253 C 22.000 48.201,22.319 47.831,22.708 47.432 C 23.098 47.033,23.650 46.454,23.934 46.145 C 24.669 45.348,25.650 44.500,25.838 44.500 C 25.925 44.500,26.091 44.350,26.205 44.167 C 26.320 43.983,26.529 43.833,26.670 43.833 C 26.811 43.833,27.035 43.683,27.167 43.500 C 27.299 43.317,27.502 43.167,27.619 43.167 C 27.939 43.167,29.167 42.606,29.167 42.461 C 29.167 42.391,29.317 42.333,29.500 42.333 C 29.683 42.333,29.833 42.258,29.833 42.167 C 29.833 42.075,30.058 42.000,30.333 42.000 C 30.608 42.000,30.833 41.925,30.833 41.833 C 30.833 41.742,31.021 41.667,31.250 41.667 C 31.479 41.667,31.667 41.592,31.667 41.500 C 31.667 41.408,31.967 41.333,32.333 41.333 C 32.700 41.333,33.000 41.258,33.000 41.167 C 33.000 41.075,33.337 41.000,33.750 41.000 C 34.162 41.000,34.500 40.925,34.500 40.833 C 34.500 40.727,35.861 40.667,38.250 40.667 C 40.639 40.667,42.000 40.727,42.000 40.833 C 42.000 40.925,42.412 41.000,42.917 41.000 C 43.421 41.000,43.833 41.075,43.833 41.167 C 43.833 41.258,44.133 41.333,44.500 41.333 C 44.867 41.333,45.167 41.408,45.167 41.500 C 45.167 41.592,45.392 41.667,45.667 41.667 C 45.942 41.667,46.167 41.742,46.167 41.833 C 46.167 41.925,46.354 42.000,46.583 42.000 C 46.813 42.000,47.000 42.075,47.000 42.167 C 47.000 42.258,47.146 42.333,47.323 42.333 C 47.501 42.333,47.693 42.408,47.750 42.500 C 47.807 42.592,48.036 42.667,48.260 42.667 C 48.484 42.667,48.667 42.738,48.667 42.826 C 48.667 42.913,48.929 43.034,49.250 43.094 C 49.571 43.155,49.833 43.270,49.833 43.352 C 49.833 43.433,49.983 43.500,50.167 43.500 C 50.350 43.500,50.500 43.575,50.500 43.667 C 50.500 43.758,50.632 43.833,50.793 43.833 C 50.955 43.833,51.180 43.983,51.295 44.167 C 51.409 44.350,51.615 44.500,51.751 44.500 C 51.888 44.500,52.000 44.562,52.000 44.639 C 52.000 44.715,52.206 44.883,52.458 45.014 C 52.710 45.144,53.008 45.325,53.119 45.417 C 53.231 45.508,53.434 45.677,53.571 45.792 C 54.083 46.221,54.340 46.102,55.551 44.876 C 56.679 43.736,57.333 43.016,57.333 42.917 C 57.333 42.728,60.187 39.836,60.375 39.834 C 60.444 39.834,60.500 39.717,60.500 39.576 C 60.500 39.351,60.823 38.926,61.490 38.273 C 63.278 36.525,63.667 36.100,63.667 35.897 C 63.667 35.612,62.596 34.500,62.322 34.500 C 62.219 34.500,61.933 34.286,61.689 34.023 C 61.444 33.761,61.076 33.494,60.872 33.429 C 60.667 33.364,60.500 33.241,60.500 33.155 C 60.500 33.070,60.367 33.000,60.203 33.000 C 60.040 33.000,59.799 32.850,59.667 32.667 C 59.535 32.483,59.311 32.333,59.170 32.333 C 59.029 32.333,58.820 32.183,58.705 32.000 C 58.591 31.817,58.385 31.667,58.249 31.667 C 58.112 31.667,58.000 31.592,58.000 31.500 C 58.000 31.408,57.882 31.333,57.738 31.333 C 57.594 31.333,57.364 31.221,57.226 31.083 C 57.089 30.946,56.832 30.833,56.655 30.833 C 56.478 30.833,56.333 30.758,56.333 30.667 C 56.333 30.575,56.221 30.500,56.083 30.500 C 55.946 30.500,55.833 30.425,55.833 30.333 C 55.833 30.242,55.683 30.167,55.500 30.167 C 55.317 30.167,55.167 30.092,55.167 30.000 C 55.167 29.908,55.017 29.833,54.833 29.833 C 54.650 29.833,54.500 29.758,54.500 29.667 C 54.500 29.575,54.313 29.500,54.083 29.500 C 53.854 29.500,53.667 29.425,53.667 29.333 C 53.667 29.242,53.521 29.167,53.343 29.167 C 53.165 29.167,52.973 29.092,52.917 29.000 C 52.860 28.908,52.631 28.833,52.407 28.833 C 52.183 28.833,52.000 28.764,52.000 28.679 C 52.000 28.594,51.587 28.472,51.083 28.409 C 50.579 28.346,50.167 28.229,50.167 28.147 C 50.167 28.066,49.942 28.000,49.667 28.000 C 49.392 28.000,49.167 27.925,49.167 27.833 C 49.167 27.742,48.829 27.667,48.417 27.667 C 48.004 27.667,47.667 27.592,47.667 27.500 C 47.667 27.408,47.367 27.333,47.000 27.333 C 46.633 27.333,46.333 27.258,46.333 27.167 C 46.333 27.073,45.861 27.000,45.250 27.000 C 44.639 27.000,44.167 26.927,44.167 26.833 C 44.167 26.735,43.583 26.667,42.750 26.667 C 41.917 26.667,41.333 26.598,41.333 26.500 C 41.333 26.395,40.250 26.333,38.417 26.333 C 36.583 26.333,35.500 26.395,35.500 26.500 M101.368 26.532 C 101.257 26.643,101.167 26.943,101.167 27.200 C 101.167 27.457,101.092 27.667,101.000 27.667 C 100.908 27.667,100.833 27.817,100.833 28.000 C 100.833 28.183,100.758 28.333,100.667 28.333 C 100.575 28.333,100.500 28.521,100.500 28.750 C 100.500 28.979,100.425 29.167,100.333 29.167 C 100.242 29.167,100.167 29.317,100.167 29.500 C 100.167 29.683,100.092 29.833,100.000 29.833 C 99.908 29.833,99.833 30.058,99.833 30.333 C 99.833 30.608,99.777 30.834,99.708 30.835 C 99.539 30.836,99.167 31.661,99.167 32.033 C 99.167 32.198,99.096 32.333,99.010 32.333 C 98.924 32.333,98.803 32.671,98.741 33.083 C 98.679 33.496,98.562 33.833,98.481 33.833 C 98.400 33.833,98.333 33.983,98.333 34.167 C 98.333 34.350,98.258 34.500,98.167 34.500 C 98.075 34.500,98.000 34.725,98.000 35.000 C 98.000 35.275,97.944 35.501,97.875 35.501 C 97.706 35.503,97.333 36.327,97.333 36.700 C 97.333 36.865,97.258 37.000,97.167 37.000 C 97.075 37.000,97.000 37.150,97.000 37.333 C 97.000 37.517,96.925 37.667,96.833 37.667 C 96.742 37.667,96.667 37.808,96.667 37.981 C 96.667 38.154,96.555 38.510,96.418 38.773 C 96.281 39.035,96.168 39.456,96.168 39.708 C 96.167 39.960,96.092 40.167,96.000 40.167 C 95.908 40.167,95.833 40.317,95.833 40.500 C 95.833 40.683,95.758 40.833,95.667 40.833 C 95.575 40.833,95.500 41.021,95.500 41.250 C 95.500 41.479,95.425 41.667,95.333 41.667 C 95.242 41.667,95.167 41.817,95.167 42.000 C 95.167 42.183,95.092 42.333,95.000 42.333 C 94.908 42.333,94.833 42.481,94.833 42.662 C 94.833 42.842,94.683 43.257,94.500 43.583 C 94.317 43.910,94.167 44.325,94.167 44.505 C 94.167 44.686,94.096 44.833,94.010 44.833 C 93.924 44.833,93.803 45.171,93.741 45.583 C 93.679 45.996,93.562 46.333,93.481 46.333 C 93.400 46.333,93.333 46.483,93.333 46.667 C 93.333 46.850,93.258 47.000,93.167 47.000 C 93.075 47.000,93.000 47.225,93.000 47.500 C 93.000 47.775,92.944 48.001,92.875 48.001 C 92.706 48.003,92.333 48.827,92.333 49.200 C 92.333 49.365,92.258 49.500,92.167 49.500 C 92.075 49.500,92.000 49.650,92.000 49.833 C 92.000 50.017,91.925 50.167,91.833 50.167 C 91.742 50.167,91.667 50.308,91.667 50.481 C 91.667 50.654,91.555 51.010,91.418 51.273 C 91.281 51.535,91.168 51.956,91.168 52.208 C 91.167 52.460,91.110 52.667,91.042 52.668 C 90.873 52.670,90.500 53.494,90.500 53.867 C 90.500 54.032,90.425 54.167,90.333 54.167 C 90.242 54.167,90.167 54.317,90.167 54.500 C 90.167 54.683,90.092 54.833,90.000 54.833 C 89.908 54.833,89.833 55.021,89.833 55.250 C 89.833 55.479,89.758 55.667,89.667 55.667 C 89.575 55.667,89.500 55.812,89.500 55.990 C 89.500 56.168,89.425 56.360,89.333 56.417 C 89.242 56.473,89.167 56.703,89.167 56.927 C 89.167 57.150,89.096 57.333,89.010 57.333 C 88.924 57.333,88.803 57.671,88.741 58.083 C 88.679 58.496,88.562 58.833,88.481 58.833 C 88.400 58.833,88.333 58.983,88.333 59.167 C 88.333 59.350,88.258 59.500,88.167 59.500 C 88.075 59.500,88.000 59.688,88.000 59.917 C 88.000 60.146,87.925 60.333,87.833 60.333 C 87.742 60.333,87.667 60.483,87.667 60.667 C 87.667 60.850,87.592 61.000,87.500 61.000 C 87.408 61.000,87.333 61.225,87.333 61.500 C 87.333 61.775,87.258 62.000,87.167 62.000 C 87.075 62.000,87.000 62.150,87.000 62.333 C 87.000 62.517,86.925 62.667,86.833 62.667 C 86.742 62.667,86.667 62.808,86.667 62.981 C 86.667 63.154,86.555 63.510,86.418 63.773 C 86.281 64.035,86.168 64.456,86.168 64.708 C 86.167 64.960,86.092 65.167,86.000 65.167 C 85.908 65.167,85.833 65.279,85.833 65.417 C 85.833 65.554,85.758 65.667,85.667 65.667 C 85.575 65.667,85.500 65.892,85.500 66.167 C 85.500 66.442,85.425 66.667,85.333 66.667 C 85.242 66.667,85.167 66.817,85.167 67.000 C 85.167 67.183,85.092 67.333,85.000 67.333 C 84.908 67.333,84.833 67.521,84.833 67.750 C 84.833 67.979,84.758 68.167,84.667 68.167 C 84.575 68.167,84.500 68.312,84.500 68.490 C 84.500 68.668,84.425 68.860,84.333 68.917 C 84.242 68.973,84.167 69.196,84.167 69.413 C 84.167 69.629,84.087 69.832,83.989 69.865 C 83.892 69.897,83.769 70.241,83.717 70.629 C 83.665 71.016,83.558 71.333,83.478 71.333 C 83.398 71.333,83.333 71.483,83.333 71.667 C 83.333 71.850,83.258 72.000,83.167 72.000 C 83.075 72.000,83.000 72.188,83.000 72.417 C 83.000 72.646,82.925 72.833,82.833 72.833 C 82.742 72.833,82.667 72.983,82.667 73.167 C 82.667 73.350,82.592 73.500,82.500 73.500 C 82.408 73.500,82.333 73.725,82.333 74.000 C 82.333 74.275,82.258 74.500,82.167 74.500 C 82.075 74.500,82.000 74.650,82.000 74.833 C 82.000 75.017,81.925 75.167,81.833 75.167 C 81.742 75.167,81.667 75.354,81.667 75.583 C 81.667 75.813,81.596 76.000,81.510 76.000 C 81.424 76.000,81.303 76.338,81.241 76.750 C 81.179 77.163,81.062 77.500,80.981 77.500 C 80.900 77.500,80.833 77.650,80.833 77.833 C 80.833 78.017,80.758 78.167,80.667 78.167 C 80.575 78.167,80.500 78.392,80.500 78.667 C 80.500 78.942,80.425 79.167,80.333 79.167 C 80.242 79.167,80.167 79.317,80.167 79.500 C 80.167 79.683,80.092 79.833,80.000 79.833 C 79.908 79.833,79.833 80.021,79.833 80.250 C 79.833 80.479,79.758 80.667,79.667 80.667 C 79.575 80.667,79.500 80.812,79.500 80.990 C 79.500 81.168,79.425 81.360,79.333 81.417 C 79.242 81.473,79.167 81.696,79.167 81.913 C 79.167 82.129,79.087 82.332,78.989 82.365 C 78.892 82.397,78.769 82.741,78.717 83.129 C 78.665 83.516,78.558 83.833,78.478 83.833 C 78.398 83.833,78.333 83.983,78.333 84.167 C 78.333 84.350,78.258 84.500,78.167 84.500 C 78.075 84.500,78.000 84.688,78.000 84.917 C 78.000 85.146,77.925 85.333,77.833 85.333 C 77.742 85.333,77.667 85.483,77.667 85.667 C 77.667 85.850,77.592 86.000,77.500 86.000 C 77.408 86.000,77.333 86.225,77.333 86.500 C 77.333 86.775,77.277 87.001,77.208 87.001 C 77.039 87.003,76.667 87.827,76.667 88.200 C 76.667 88.365,76.596 88.500,76.510 88.500 C 76.424 88.500,76.303 88.837,76.241 89.250 C 76.179 89.662,76.062 90.000,75.981 90.000 C 75.900 90.000,75.833 90.150,75.833 90.333 C 75.833 90.517,75.758 90.667,75.667 90.667 C 75.575 90.667,75.500 90.892,75.500 91.167 C 75.500 91.442,75.425 91.667,75.333 91.667 C 75.242 91.667,75.167 91.817,75.167 92.000 C 75.167 92.183,75.092 92.333,75.000 92.333 C 74.908 92.333,74.833 92.521,74.833 92.750 C 74.833 92.979,74.758 93.167,74.667 93.167 C 74.575 93.167,74.500 93.317,74.500 93.500 C 74.500 93.683,74.425 93.833,74.333 93.833 C 74.242 93.833,74.167 94.171,74.167 94.583 L 74.167 95.333 81.667 95.333 C 89.056 95.333,89.167 95.328,89.167 95.000 C 89.167 94.817,89.242 94.667,89.333 94.667 C 89.425 94.667,89.500 94.479,89.500 94.250 C 89.500 94.021,89.575 93.833,89.667 93.833 C 89.758 93.833,89.833 93.683,89.833 93.500 C 89.833 93.317,89.908 93.167,90.000 93.167 C 90.092 93.167,90.167 92.942,90.167 92.667 C 90.167 92.392,90.223 92.166,90.292 92.165 C 90.461 92.164,90.833 91.339,90.833 90.967 C 90.833 90.802,90.904 90.667,90.990 90.667 C 91.076 90.667,91.197 90.329,91.259 89.917 C 91.321 89.504,91.438 89.167,91.519 89.167 C 91.600 89.167,91.667 89.017,91.667 88.833 C 91.667 88.650,91.742 88.500,91.833 88.500 C 91.925 88.500,92.000 88.275,92.000 88.000 C 92.000 87.725,92.075 87.500,92.167 87.500 C 92.258 87.500,92.333 87.313,92.333 87.083 C 92.333 86.854,92.408 86.667,92.500 86.667 C 92.592 86.667,92.667 86.517,92.667 86.333 C 92.667 86.150,92.742 86.000,92.833 86.000 C 92.925 86.000,93.000 85.783,93.000 85.518 C 93.000 84.806,92.363 84.833,108.680 84.833 C 123.569 84.833,123.833 84.839,123.833 85.157 C 123.833 85.335,123.908 85.527,124.000 85.583 C 124.092 85.640,124.167 85.832,124.167 86.010 C 124.167 86.188,124.242 86.333,124.333 86.333 C 124.425 86.333,124.500 86.516,124.500 86.740 C 124.500 86.964,124.575 87.193,124.667 87.250 C 124.758 87.307,124.833 87.536,124.833 87.760 C 124.833 87.984,124.908 88.167,125.000 88.167 C 125.092 88.167,125.167 88.317,125.167 88.500 C 125.167 88.683,125.242 88.833,125.333 88.833 C 125.425 88.833,125.500 89.021,125.500 89.250 C 125.500 89.479,125.575 89.667,125.667 89.667 C 125.758 89.667,125.833 89.817,125.833 90.000 C 125.833 90.183,125.908 90.333,126.000 90.333 C 126.092 90.333,126.167 90.540,126.168 90.792 C 126.168 91.044,126.281 91.465,126.418 91.727 C 126.555 91.990,126.667 92.346,126.667 92.519 C 126.667 92.692,126.742 92.833,126.833 92.833 C 126.925 92.833,127.000 92.983,127.000 93.167 C 127.000 93.350,127.075 93.500,127.167 93.500 C 127.258 93.500,127.333 93.683,127.333 93.907 C 127.333 94.131,127.408 94.360,127.500 94.417 C 127.592 94.473,127.667 94.703,127.667 94.927 L 127.667 95.333 130.750 95.333 C 132.694 95.333,133.833 95.272,133.833 95.167 C 133.833 95.060,135.472 95.000,138.417 95.000 C 142.380 95.000,143.000 94.966,143.000 94.750 C 143.000 94.612,142.925 94.500,142.833 94.500 C 142.742 94.500,142.667 94.350,142.667 94.167 C 142.667 93.983,142.592 93.833,142.500 93.833 C 142.408 93.833,142.333 93.608,142.333 93.333 C 142.333 93.058,142.258 92.833,142.167 92.833 C 142.075 92.833,142.000 92.721,142.000 92.583 C 142.000 92.446,141.925 92.333,141.833 92.333 C 141.742 92.333,141.667 92.108,141.667 91.833 C 141.667 91.558,141.596 91.333,141.510 91.333 C 141.424 91.333,141.303 90.996,141.241 90.583 C 141.179 90.171,141.062 89.833,140.981 89.833 C 140.900 89.833,140.833 89.683,140.833 89.500 C 140.833 89.317,140.758 89.167,140.667 89.167 C 140.575 89.167,140.500 88.942,140.500 88.667 C 140.500 88.392,140.425 88.167,140.333 88.167 C 140.242 88.167,140.167 88.017,140.167 87.833 C 140.167 87.650,140.092 87.500,140.000 87.500 C 139.908 87.500,139.833 87.313,139.833 87.083 C 139.833 86.854,139.758 86.667,139.667 86.667 C 139.575 86.667,139.500 86.517,139.500 86.333 C 139.500 86.150,139.425 86.000,139.333 86.000 C 139.242 86.000,139.167 85.775,139.167 85.500 C 139.167 85.225,139.100 85.000,139.019 85.000 C 138.938 85.000,138.821 84.662,138.759 84.250 C 138.697 83.837,138.576 83.500,138.490 83.500 C 138.404 83.500,138.333 83.313,138.333 83.083 C 138.333 82.854,138.258 82.667,138.167 82.667 C 138.075 82.667,138.000 82.517,138.000 82.333 C 138.000 82.150,137.925 82.000,137.833 82.000 C 137.742 82.000,137.667 81.775,137.667 81.500 C 137.667 81.225,137.592 81.000,137.500 81.000 C 137.408 81.000,137.333 80.850,137.333 80.667 C 137.333 80.483,137.258 80.333,137.167 80.333 C 137.075 80.333,137.000 80.146,137.000 79.917 C 137.000 79.688,136.925 79.500,136.833 79.500 C 136.742 79.500,136.667 79.350,136.667 79.167 C 136.667 78.983,136.602 78.833,136.522 78.833 C 136.442 78.833,136.335 78.516,136.283 78.129 C 136.231 77.741,136.108 77.397,136.011 77.365 C 135.913 77.332,135.833 77.087,135.833 76.819 C 135.833 76.552,135.758 76.333,135.667 76.333 C 135.575 76.333,135.500 76.183,135.500 76.000 C 135.500 75.817,135.425 75.667,135.333 75.667 C 135.242 75.667,135.167 75.479,135.167 75.250 C 135.167 75.021,135.092 74.833,135.000 74.833 C 134.908 74.833,134.833 74.683,134.833 74.500 C 134.833 74.317,134.758 74.167,134.667 74.167 C 134.575 74.167,134.500 73.942,134.500 73.667 C 134.500 73.392,134.425 73.167,134.333 73.167 C 134.242 73.167,134.167 73.054,134.167 72.917 C 134.167 72.779,134.092 72.667,134.000 72.667 C 133.908 72.667,133.833 72.460,133.832 72.208 C 133.832 71.956,133.719 71.535,133.582 71.273 C 133.445 71.010,133.333 70.654,133.333 70.481 C 133.333 70.308,133.258 70.167,133.167 70.167 C 133.075 70.167,133.000 70.017,133.000 69.833 C 133.000 69.650,132.925 69.500,132.833 69.500 C 132.742 69.500,132.667 69.275,132.667 69.000 C 132.667 68.725,132.592 68.500,132.500 68.500 C 132.408 68.500,132.333 68.350,132.333 68.167 C 132.333 67.983,132.258 67.833,132.167 67.833 C 132.075 67.833,132.000 67.646,132.000 67.417 C 132.000 67.188,131.925 67.000,131.833 67.000 C 131.742 67.000,131.667 66.850,131.667 66.667 C 131.667 66.483,131.600 66.333,131.519 66.333 C 131.438 66.333,131.321 65.996,131.259 65.583 C 131.197 65.171,131.076 64.833,130.990 64.833 C 130.904 64.833,130.833 64.650,130.833 64.427 C 130.833 64.203,130.758 63.973,130.667 63.917 C 130.575 63.860,130.500 63.668,130.500 63.490 C 130.500 63.312,130.425 63.167,130.333 63.167 C 130.242 63.167,130.167 62.979,130.167 62.750 C 130.167 62.521,130.092 62.333,130.000 62.333 C 129.908 62.333,129.833 62.183,129.833 62.000 C 129.833 61.817,129.758 61.667,129.667 61.667 C 129.575 61.667,129.500 61.442,129.500 61.167 C 129.500 60.892,129.425 60.667,129.333 60.667 C 129.242 60.667,129.167 60.554,129.167 60.417 C 129.167 60.279,129.092 60.167,129.000 60.167 C 128.908 60.167,128.833 59.960,128.832 59.708 C 128.832 59.456,128.719 59.035,128.582 58.773 C 128.445 58.510,128.333 58.154,128.333 57.981 C 128.333 57.808,128.258 57.667,128.167 57.667 C 128.075 57.667,128.000 57.517,128.000 57.333 C 128.000 57.150,127.925 57.000,127.833 57.000 C 127.742 57.000,127.667 56.775,127.667 56.500 C 127.667 56.225,127.610 55.999,127.542 55.999 C 127.373 55.997,127.000 55.173,127.000 54.800 C 127.000 54.635,126.925 54.500,126.833 54.500 C 126.742 54.500,126.667 54.350,126.667 54.167 C 126.667 53.983,126.600 53.833,126.519 53.833 C 126.438 53.833,126.321 53.496,126.259 53.083 C 126.197 52.671,126.076 52.333,125.990 52.333 C 125.904 52.333,125.833 52.150,125.833 51.927 C 125.833 51.703,125.758 51.473,125.667 51.417 C 125.575 51.360,125.500 51.168,125.500 50.990 C 125.500 50.812,125.425 50.667,125.333 50.667 C 125.242 50.667,125.167 50.479,125.167 50.250 C 125.167 50.021,125.092 49.833,125.000 49.833 C 124.908 49.833,124.833 49.683,124.833 49.500 C 124.833 49.317,124.758 49.167,124.667 49.167 C 124.575 49.167,124.500 49.032,124.500 48.867 C 124.500 48.494,124.127 47.670,123.958 47.668 C 123.890 47.667,123.833 47.460,123.832 47.208 C 123.832 46.956,123.719 46.535,123.582 46.273 C 123.445 46.010,123.333 45.654,123.333 45.481 C 123.333 45.308,123.258 45.167,123.167 45.167 C 123.075 45.167,123.000 45.017,123.000 44.833 C 123.000 44.650,122.925 44.500,122.833 44.500 C 122.742 44.500,122.667 44.365,122.667 44.200 C 122.667 43.827,122.294 43.003,122.125 43.001 C 122.056 43.001,122.000 42.775,122.000 42.500 C 122.000 42.225,121.925 42.000,121.833 42.000 C 121.742 42.000,121.667 41.850,121.667 41.667 C 121.667 41.483,121.600 41.333,121.519 41.333 C 121.438 41.333,121.321 40.996,121.259 40.583 C 121.197 40.171,121.076 39.833,120.990 39.833 C 120.904 39.833,120.833 39.686,120.833 39.505 C 120.833 39.325,120.683 38.910,120.500 38.583 C 120.317 38.257,120.167 37.842,120.167 37.662 C 120.167 37.481,120.092 37.333,120.000 37.333 C 119.908 37.333,119.833 37.183,119.833 37.000 C 119.833 36.817,119.758 36.667,119.667 36.667 C 119.575 36.667,119.500 36.479,119.500 36.250 C 119.500 36.021,119.425 35.833,119.333 35.833 C 119.242 35.833,119.167 35.683,119.167 35.500 C 119.167 35.317,119.092 35.167,119.000 35.167 C 118.908 35.167,118.833 34.960,118.832 34.708 C 118.832 34.456,118.719 34.035,118.582 33.773 C 118.445 33.510,118.333 33.154,118.333 32.981 C 118.333 32.808,118.258 32.667,118.167 32.667 C 118.075 32.667,118.000 32.517,118.000 32.333 C 118.000 32.150,117.925 32.000,117.833 32.000 C 117.742 32.000,117.667 31.865,117.667 31.700 C 117.667 31.327,117.294 30.503,117.125 30.501 C 117.056 30.501,117.000 30.275,117.000 30.000 C 117.000 29.725,116.925 29.500,116.833 29.500 C 116.742 29.500,116.667 29.350,116.667 29.167 C 116.667 28.983,116.600 28.833,116.519 28.833 C 116.438 28.833,116.321 28.496,116.259 28.083 C 116.197 27.671,116.081 27.333,116.001 27.333 C 115.921 27.333,115.832 27.127,115.803 26.875 L 115.750 26.417 108.660 26.373 C 103.285 26.340,101.521 26.379,101.368 26.532 M152.667 60.833 L 152.667 95.333 159.667 95.333 L 166.667 95.333 166.667 81.167 L 166.667 67.000 179.500 67.000 L 192.333 67.000 192.333 60.417 L 192.333 53.833 179.500 53.833 L 166.667 53.833 166.667 46.833 L 166.667 39.833 183.919 39.833 L 201.170 39.833 201.127 33.125 L 201.083 26.417 176.875 26.374 L 152.667 26.332 152.667 60.833 M210.500 60.833 L 210.500 95.333 235.833 95.333 L 261.167 95.333 261.167 88.667 L 261.167 82.000 242.833 82.000 L 224.500 82.000 224.500 74.500 L 224.500 67.000 238.250 67.000 L 252.000 67.000 252.000 60.417 L 252.000 53.833 238.250 53.833 L 224.500 53.833 224.500 46.833 L 224.500 39.833 242.835 39.833 L 261.170 39.833 261.127 33.125 L 261.083 26.417 235.792 26.374 L 210.500 26.332 210.500 60.833 M315.772 29.208 C 315.338 30.827,315.884 32.180,317.942 34.591 C 318.415 35.146,318.955 35.858,319.141 36.175 C 319.890 37.447,320.333 38.419,320.333 38.785 C 320.333 38.997,320.474 39.488,320.645 39.877 C 320.969 40.608,321.342 41.913,321.684 43.500 C 321.956 44.769,323.340 46.500,324.081 46.500 C 324.229 46.500,324.174 43.358,324.025 43.266 C 323.947 43.217,323.838 42.526,323.781 41.729 C 323.725 40.931,323.601 40.201,323.506 40.106 C 323.411 40.011,323.333 39.765,323.333 39.560 C 323.333 39.354,323.273 39.149,323.200 39.104 C 323.126 39.058,322.961 38.637,322.833 38.167 C 322.705 37.697,322.541 37.275,322.467 37.230 C 322.393 37.184,322.333 37.001,322.333 36.823 C 322.333 36.646,322.258 36.500,322.167 36.500 C 322.075 36.500,322.000 36.350,322.000 36.167 C 322.000 35.983,321.925 35.833,321.833 35.833 C 321.742 35.833,321.667 35.683,321.667 35.500 C 321.667 35.317,321.603 35.167,321.525 35.167 C 321.448 35.167,321.249 34.867,321.083 34.500 C 320.918 34.133,320.719 33.833,320.641 33.833 C 320.564 33.833,320.500 33.737,320.500 33.620 C 320.500 33.503,320.350 33.299,320.167 33.167 C 319.983 33.035,319.833 32.829,319.833 32.709 C 319.833 32.472,316.248 28.833,316.015 28.833 C 315.936 28.833,315.827 29.002,315.772 29.208 M109.167 46.733 C 109.167 46.874,109.317 47.257,109.500 47.583 C 109.683 47.910,109.833 48.325,109.833 48.505 C 109.833 48.686,109.908 48.833,110.000 48.833 C 110.092 48.833,110.167 48.983,110.167 49.167 C 110.167 49.350,110.242 49.500,110.333 49.500 C 110.425 49.500,110.500 49.688,110.500 49.917 C 110.500 50.146,110.575 50.333,110.667 50.333 C 110.758 50.333,110.833 50.483,110.833 50.667 C 110.833 50.850,110.899 51.000,110.979 51.000 C 111.058 51.000,111.173 51.372,111.233 51.826 C 111.294 52.281,111.416 52.698,111.505 52.753 C 111.594 52.808,111.667 52.999,111.667 53.177 C 111.667 53.354,111.742 53.500,111.833 53.500 C 111.925 53.500,112.000 53.725,112.000 54.000 C 112.000 54.275,112.075 54.500,112.167 54.500 C 112.258 54.500,112.333 54.650,112.333 54.833 C 112.333 55.017,112.408 55.167,112.500 55.167 C 112.592 55.167,112.667 55.354,112.667 55.583 C 112.667 55.813,112.742 56.000,112.833 56.000 C 112.925 56.000,113.000 56.150,113.000 56.333 C 113.000 56.517,113.075 56.667,113.167 56.667 C 113.258 56.667,113.333 56.892,113.333 57.167 C 113.333 57.442,113.400 57.667,113.481 57.667 C 113.562 57.667,113.679 58.004,113.741 58.417 C 113.803 58.829,113.924 59.167,114.010 59.167 C 114.096 59.167,114.167 59.354,114.167 59.583 C 114.167 59.813,114.242 60.000,114.333 60.000 C 114.425 60.000,114.500 60.150,114.500 60.333 C 114.500 60.517,114.575 60.667,114.667 60.667 C 114.758 60.667,114.833 60.892,114.833 61.167 C 114.833 61.442,114.908 61.667,115.000 61.667 C 115.092 61.667,115.167 61.817,115.167 62.000 C 115.167 62.183,115.242 62.333,115.333 62.333 C 115.425 62.333,115.500 62.521,115.500 62.750 C 115.500 62.979,115.575 63.167,115.667 63.167 C 115.758 63.167,115.833 63.392,115.833 63.667 C 115.833 63.942,115.902 64.167,115.985 64.167 C 116.069 64.167,116.188 64.466,116.250 64.832 C 116.312 65.199,116.431 65.541,116.515 65.592 C 116.598 65.644,116.667 65.832,116.667 66.010 C 116.667 66.188,116.742 66.333,116.833 66.333 C 116.925 66.333,117.000 66.468,117.000 66.633 C 117.000 67.006,117.373 67.830,117.542 67.832 C 117.610 67.833,117.667 68.058,117.667 68.333 C 117.667 68.608,117.742 68.833,117.833 68.833 C 117.925 68.833,118.000 68.968,118.000 69.133 C 118.000 69.506,118.373 70.330,118.542 70.332 C 118.610 70.333,118.667 70.408,118.667 70.500 C 118.667 70.609,115.250 70.667,108.750 70.667 C 102.250 70.667,98.833 70.609,98.833 70.500 C 98.833 70.408,98.908 70.333,99.000 70.333 C 99.092 70.333,99.167 70.146,99.167 69.917 C 99.167 69.688,99.242 69.500,99.333 69.500 C 99.425 69.500,99.500 69.350,99.500 69.167 C 99.500 68.983,99.575 68.833,99.667 68.833 C 99.758 68.833,99.833 68.608,99.833 68.333 C 99.833 68.058,99.890 67.833,99.958 67.832 C 100.127 67.830,100.500 67.006,100.500 66.633 C 100.500 66.468,100.575 66.333,100.667 66.333 C 100.758 66.333,100.833 66.183,100.833 66.000 C 100.833 65.817,100.900 65.667,100.981 65.667 C 101.062 65.667,101.179 65.329,101.241 64.917 C 101.303 64.504,101.424 64.167,101.510 64.167 C 101.596 64.167,101.667 63.942,101.667 63.667 C 101.667 63.392,101.723 63.166,101.792 63.165 C 101.961 63.164,102.333 62.339,102.333 61.967 C 102.333 61.802,102.408 61.667,102.500 61.667 C 102.592 61.667,102.667 61.517,102.667 61.333 C 102.667 61.150,102.742 61.000,102.833 61.000 C 102.925 61.000,103.000 60.852,103.000 60.672 C 103.000 60.491,103.141 60.092,103.314 59.785 C 103.486 59.478,103.680 58.913,103.745 58.530 C 103.810 58.147,103.931 57.833,104.015 57.833 C 104.098 57.833,104.167 57.646,104.167 57.417 C 104.167 57.188,104.242 57.000,104.333 57.000 C 104.425 57.000,104.500 56.850,104.500 56.667 C 104.500 56.483,104.575 56.333,104.667 56.333 C 104.758 56.333,104.833 56.108,104.833 55.833 C 104.833 55.558,104.908 55.333,105.000 55.333 C 105.092 55.333,105.167 55.221,105.167 55.083 C 105.167 54.946,105.242 54.833,105.333 54.833 C 105.425 54.833,105.500 54.608,105.500 54.333 C 105.500 54.058,105.575 53.833,105.667 53.833 C 105.758 53.833,105.833 53.683,105.833 53.500 C 105.833 53.317,105.900 53.167,105.981 53.167 C 106.062 53.167,106.179 52.829,106.241 52.417 C 106.303 52.004,106.424 51.667,106.510 51.667 C 106.596 51.667,106.667 51.442,106.667 51.167 C 106.667 50.892,106.742 50.667,106.833 50.667 C 106.925 50.667,107.000 50.554,107.000 50.417 C 107.000 50.279,107.075 50.167,107.167 50.167 C 107.258 50.167,107.333 49.942,107.333 49.667 C 107.333 49.392,107.408 49.167,107.500 49.167 C 107.592 49.167,107.667 49.017,107.667 48.833 C 107.667 48.650,107.742 48.500,107.833 48.500 C 107.925 48.500,108.000 48.313,108.000 48.083 C 108.000 47.854,108.075 47.667,108.167 47.667 C 108.258 47.667,108.333 47.521,108.333 47.343 C 108.333 47.165,108.408 46.973,108.500 46.917 C 108.592 46.860,108.667 46.625,108.667 46.395 C 108.667 46.023,108.694 46.004,108.917 46.226 C 109.054 46.364,109.167 46.592,109.167 46.733 M294.428 50.019 C 294.587 50.276,294.295 50.427,292.667 50.931 C 290.745 51.524,289.580 52.074,289.013 52.654 C 288.659 53.015,288.491 53.091,288.350 52.950 C 288.070 52.670,288.293 53.702,288.773 54.904 C 289.255 56.113,289.255 56.126,288.792 56.216 C 288.585 56.255,290.404 56.291,292.833 56.294 C 295.262 56.297,297.438 56.234,297.667 56.153 L 298.083 56.006 297.658 56.057 C 296.633 56.179,296.809 55.093,297.909 54.504 L 298.345 54.271 297.600 53.556 C 296.804 52.794,295.833 50.987,295.833 50.268 C 295.833 49.863,295.781 49.833,295.073 49.833 C 294.558 49.833,294.351 49.893,294.428 50.019 M352.305 50.153 C 352.082 50.329,351.603 50.526,351.241 50.591 C 350.879 50.657,350.508 50.767,350.417 50.837 C 350.245 50.969,348.615 51.448,347.775 51.615 L 347.300 51.709 347.359 55.375 L 347.417 59.040 349.734 58.966 C 352.363 58.882,352.325 58.902,353.180 57.161 C 353.402 56.708,353.640 56.337,353.708 56.336 C 353.907 56.332,353.862 50.667,353.663 50.667 C 353.569 50.667,353.420 50.479,353.333 50.250 C 353.143 49.751,352.852 49.723,352.305 50.153 M273.000 51.389 C 273.000 52.891,273.000 52.891,274.096 52.481 C 274.587 52.297,275.148 52.135,275.343 52.120 C 275.634 52.098,275.509 51.923,274.640 51.135 C 273.184 49.813,273.000 49.842,273.000 51.389 M275.750 53.432 C 275.292 53.557,274.485 53.741,273.958 53.841 L 273.000 54.024 273.000 55.178 L 273.000 56.333 276.000 56.333 C 279.267 56.333,279.268 56.333,278.416 55.393 C 278.096 55.040,277.664 54.397,277.458 53.965 C 277.051 53.112,276.993 53.094,275.750 53.432 M301.099 55.923 C 300.809 56.138,300.806 56.167,301.065 56.266 C 301.405 56.397,301.549 56.282,301.473 55.941 C 301.424 55.723,301.374 55.720,301.099 55.923 M322.396 56.708 C 321.849 57.285,321.744 57.494,321.836 57.833 C 322.088 58.764,322.218 59.000,322.478 59.003 C 323.140 59.009,323.256 59.295,322.777 59.740 C 322.523 59.975,322.257 60.167,322.184 60.167 C 322.111 60.167,321.916 60.317,321.750 60.500 C 321.457 60.823,321.459 60.833,321.798 60.833 C 322.634 60.833,322.195 61.547,320.969 62.179 C 320.358 62.494,320.354 62.494,320.245 62.152 C 320.185 61.963,320.096 61.848,320.047 61.897 C 319.999 61.946,319.820 61.820,319.652 61.618 C 319.483 61.416,319.342 61.311,319.339 61.386 C 319.334 61.509,319.618 61.883,320.791 63.298 C 320.998 63.547,321.166 63.837,321.166 63.944 C 321.167 64.051,321.223 64.164,321.292 64.194 C 321.360 64.225,321.706 64.850,322.060 65.583 C 322.414 66.317,322.770 67.047,322.852 67.206 C 322.933 67.365,323.000 67.646,323.000 67.831 C 323.000 68.016,323.075 68.167,323.167 68.167 C 323.258 68.167,323.333 68.423,323.333 68.736 C 323.333 69.049,323.423 69.335,323.531 69.372 C 323.817 69.467,323.822 75.412,323.537 75.697 C 323.425 75.808,323.333 76.148,323.333 76.450 C 323.333 76.753,323.258 77.000,323.167 77.000 C 323.075 77.000,323.000 77.131,323.000 77.292 C 322.999 77.452,322.667 78.258,322.261 79.083 C 321.607 80.412,321.555 80.599,321.803 80.718 C 321.957 80.791,322.299 81.141,322.562 81.494 C 323.542 82.808,325.629 83.543,326.055 82.725 C 326.328 82.199,328.672 79.667,328.885 79.667 C 328.959 79.667,328.973 79.742,328.917 79.833 C 328.860 79.925,328.902 80.000,329.010 80.000 C 329.125 80.000,329.169 79.860,329.116 79.656 C 329.061 79.446,329.118 79.278,329.263 79.222 C 329.412 79.165,329.500 78.889,329.500 78.482 C 329.500 78.125,329.575 77.833,329.667 77.833 C 329.758 77.833,329.833 77.496,329.833 77.083 C 329.833 76.671,329.904 76.333,329.990 76.333 C 330.082 76.333,330.152 74.797,330.160 72.583 C 330.169 70.129,330.115 68.833,330.004 68.833 C 329.908 68.833,329.833 68.430,329.833 67.917 C 329.833 67.412,329.758 67.000,329.667 67.000 C 329.575 67.000,329.500 66.775,329.500 66.500 C 329.500 66.225,329.425 66.000,329.333 66.000 C 329.242 66.000,329.167 65.737,329.167 65.417 C 329.167 65.096,329.092 64.833,329.000 64.833 C 328.908 64.833,328.833 64.729,328.833 64.602 C 328.833 64.194,328.287 62.667,328.141 62.667 C 328.064 62.667,328.000 62.517,328.000 62.333 C 328.000 62.150,327.925 62.000,327.833 62.000 C 327.742 62.000,327.667 61.902,327.667 61.781 C 327.667 61.661,327.517 61.402,327.333 61.205 C 327.150 61.008,327.000 60.732,327.000 60.590 C 327.000 60.449,326.925 60.333,326.833 60.333 C 326.742 60.333,326.667 60.255,326.667 60.160 C 326.667 60.064,326.590 59.895,326.497 59.785 C 326.404 59.674,326.197 59.430,326.039 59.242 C 325.829 58.993,325.555 58.901,325.033 58.904 C 324.349 58.909,323.906 58.620,324.104 58.300 C 324.149 58.226,324.073 58.167,323.934 58.167 C 323.785 58.167,323.612 57.912,323.509 57.542 C 323.273 56.691,323.289 56.500,323.595 56.500 C 323.828 56.500,323.829 56.472,323.607 56.250 C 323.244 55.886,323.140 55.926,322.396 56.708 M323.833 56.833 C 323.833 56.925,323.908 57.000,324.000 57.000 C 324.092 57.000,324.167 57.229,324.167 57.510 C 324.167 57.807,324.236 57.977,324.333 57.917 C 324.578 57.766,324.536 57.179,324.262 56.905 C 323.983 56.626,323.833 56.601,323.833 56.833 M338.042 57.812 C 338.486 57.888,338.095 58.333,337.583 58.333 C 337.208 58.333,337.000 58.254,337.000 58.111 C 337.000 57.728,337.205 57.670,338.042 57.812 M273.000 66.250 C 273.000 69.321,273.065 71.833,273.144 71.833 C 273.223 71.833,273.579 71.598,273.935 71.310 C 274.292 71.022,275.221 70.490,276.000 70.128 C 279.128 68.676,279.146 68.664,279.201 67.920 C 279.250 67.251,279.251 67.250,279.917 67.287 C 280.283 67.307,280.479 67.279,280.351 67.223 C 280.223 67.168,279.885 66.851,279.601 66.520 C 279.317 66.188,278.817 65.654,278.490 65.333 C 278.163 65.012,277.805 64.538,277.696 64.279 C 277.471 63.750,276.822 62.910,275.738 61.746 C 275.335 61.314,275.046 60.894,275.096 60.813 C 275.146 60.733,274.694 60.667,274.093 60.667 L 273.000 60.667 273.000 66.250 M315.947 65.038 C 315.410 65.974,315.565 67.265,316.375 68.598 C 317.145 69.867,318.810 72.000,319.030 72.000 C 319.105 72.000,319.167 72.112,319.167 72.250 C 319.167 72.387,319.242 72.500,319.333 72.500 C 319.425 72.500,319.500 72.237,319.500 71.917 C 319.500 71.596,319.425 71.333,319.333 71.333 C 319.242 71.333,319.167 70.921,319.167 70.417 C 319.167 69.912,319.100 69.500,319.019 69.500 C 318.938 69.500,318.820 69.087,318.757 68.583 C 318.694 68.079,318.573 67.667,318.488 67.667 C 318.403 67.667,318.333 67.517,318.333 67.333 C 318.333 67.150,318.258 67.000,318.167 67.000 C 318.075 67.000,318.000 66.902,318.000 66.781 C 318.000 66.661,317.850 66.402,317.667 66.205 C 317.483 66.008,317.333 65.804,317.333 65.751 C 317.333 65.699,317.085 65.407,316.780 65.103 L 316.228 64.550 315.947 65.038 M343.713 77.956 C 344.152 77.990,344.827 77.990,345.213 77.955 C 345.600 77.920,345.242 77.892,344.417 77.892 C 343.592 77.893,343.275 77.922,343.713 77.956 M378.765 78.208 C 378.831 78.415,379.019 79.103,379.184 79.738 C 379.393 80.550,379.633 81.043,379.991 81.401 L 380.500 81.910 380.500 79.973 C 380.500 77.816,380.510 77.833,379.308 77.833 C 378.695 77.833,378.653 77.862,378.765 78.208 M328.500 80.843 C 328.500 81.032,328.575 81.140,328.667 81.083 C 328.758 81.027,328.833 80.872,328.833 80.740 C 328.833 80.608,328.758 80.500,328.667 80.500 C 328.575 80.500,328.500 80.654,328.500 80.843 M273.000 87.583 C 273.000 89.006,273.045 89.038,274.354 88.575 C 274.755 88.434,275.219 88.353,275.385 88.396 C 275.834 88.512,275.687 88.313,274.561 87.275 C 273.159 85.983,273.000 86.014,273.000 87.583 M288.271 89.375 C 288.434 90.292,289.001 91.713,289.513 92.487 C 289.781 92.892,290.000 93.432,290.000 93.685 C 290.000 93.939,290.068 94.189,290.151 94.240 C 290.234 94.292,290.263 94.484,290.215 94.667 C 290.131 94.989,290.210 95.000,292.564 95.000 C 294.646 95.000,295.000 94.963,295.000 94.743 C 295.000 94.195,297.117 91.259,297.849 90.792 C 298.244 90.540,298.477 90.333,298.368 90.333 C 298.044 90.333,297.368 89.661,297.260 89.232 L 297.160 88.833 292.668 88.833 L 288.175 88.833 288.271 89.375 M345.667 89.411 C 345.667 89.780,345.972 90.581,346.509 91.620 C 347.680 93.887,347.866 94.444,347.554 94.756 C 347.339 94.970,347.625 95.000,349.905 95.000 C 352.278 95.000,352.500 94.975,352.500 94.705 C 352.500 94.542,352.909 93.774,353.409 92.996 C 354.437 91.398,354.437 91.398,355.207 90.843 L 355.773 90.437 355.220 89.951 C 354.916 89.684,354.667 89.323,354.667 89.149 C 354.667 88.847,354.474 88.833,350.167 88.833 L 345.667 88.833 345.667 89.411 M276.583 89.487 C 276.400 89.559,275.519 89.760,274.625 89.933 L 273.000 90.247 273.000 92.624 L 273.000 95.000 277.333 95.000 C 279.717 95.000,281.667 94.937,281.667 94.859 C 281.667 94.781,280.834 93.900,279.817 92.901 C 278.799 91.901,277.742 90.690,277.467 90.208 C 277.193 89.727,276.957 89.338,276.942 89.344 C 276.928 89.350,276.767 89.414,276.583 89.487 M336.367 91.917 C 336.327 95.152,336.253 95.000,337.853 95.000 C 339.469 95.000,339.469 94.973,337.875 93.506 L 336.583 92.317 336.489 90.950 C 336.408 89.768,336.392 89.898,336.367 91.917 M299.583 92.745 C 297.826 93.615,296.500 94.518,296.500 94.845 C 296.500 94.932,297.447 95.000,298.667 95.000 L 300.833 95.000 300.833 94.508 C 300.833 94.009,301.231 92.300,301.418 91.998 C 301.563 91.763,301.597 91.749,299.583 92.745 M357.583 92.447 C 357.033 92.678,356.471 92.954,356.333 93.060 C 356.196 93.166,355.798 93.398,355.449 93.574 C 354.725 93.941,354.000 94.567,354.000 94.825 C 354.000 94.938,354.742 95.000,356.083 95.000 L 358.167 95.000 358.167 94.408 C 358.167 94.083,358.284 93.591,358.427 93.314 C 358.570 93.037,358.663 92.635,358.635 92.419 L 358.583 92.027 357.583 92.447 M379.750 93.048 C 378.986 93.866,379.088 95.000,379.926 95.000 L 380.500 95.000 380.500 93.750 C 380.500 92.343,380.451 92.298,379.750 93.048 M337.454 93.676 C 337.507 93.879,337.637 93.983,337.772 93.931 C 337.901 93.882,338.000 93.950,338.000 94.089 C 338.000 94.411,337.270 94.409,337.002 94.085 C 336.774 93.810,336.885 93.333,337.177 93.333 C 337.280 93.333,337.405 93.488,337.454 93.676 M280.742 94.193 C 280.976 94.300,281.167 94.487,281.167 94.610 C 281.167 94.913,280.846 94.894,280.727 94.583 C 280.674 94.446,280.527 94.333,280.399 94.333 C 280.271 94.333,280.167 94.258,280.167 94.167 C 280.167 93.955,280.224 93.957,280.742 94.193 " stroke="none" fill="#040404" fill-rule="evenodd"></path><path id="path3" d="M300.667 24.892 C 300.667 25.430,301.501 26.535,302.409 27.198 C 303.275 27.832,303.330 27.970,303.380 29.667 L 303.417 30.917 304.375 30.967 C 304.902 30.994,305.333 31.088,305.333 31.175 C 305.333 31.262,305.633 31.333,306.000 31.333 C 306.367 31.333,306.667 31.408,306.667 31.500 C 306.667 31.592,306.892 31.667,307.167 31.667 C 307.442 31.667,307.667 31.742,307.667 31.833 C 307.667 31.925,307.773 32.000,307.903 32.000 C 308.033 32.000,308.634 32.262,309.239 32.583 C 309.843 32.904,310.433 33.167,310.549 33.167 C 310.665 33.167,310.868 33.317,311.000 33.500 C 311.132 33.683,311.336 33.833,311.453 33.833 C 311.571 33.833,311.667 33.908,311.667 34.000 C 311.667 34.092,311.749 34.167,311.850 34.167 C 312.069 34.167,313.897 35.989,314.590 36.898 C 314.861 37.255,315.177 37.643,315.292 37.761 C 315.406 37.879,315.500 38.077,315.500 38.201 C 315.500 38.325,315.650 38.535,315.833 38.667 C 316.017 38.799,316.167 39.026,316.167 39.172 C 316.167 39.318,316.354 39.826,316.583 40.301 C 316.813 40.776,317.000 41.348,317.000 41.573 C 317.000 41.797,317.067 42.022,317.148 42.072 C 317.495 42.286,317.874 48.333,317.541 48.333 C 317.463 48.333,317.380 48.652,317.358 49.042 C 317.335 49.431,317.245 49.775,317.158 49.806 C 317.071 49.836,317.000 50.046,317.000 50.272 C 317.000 50.769,316.475 51.836,316.376 51.542 C 316.337 51.427,316.129 51.333,315.913 51.333 C 315.696 51.333,315.479 51.267,315.429 51.186 C 315.378 51.105,315.130 50.996,314.877 50.943 C 313.351 50.627,312.278 50.364,312.458 50.350 C 312.573 50.341,312.667 50.146,312.667 49.917 C 312.667 49.688,312.742 49.500,312.833 49.500 C 312.925 49.500,313.000 49.275,313.000 49.000 C 313.000 48.725,313.075 48.500,313.167 48.500 C 313.267 48.500,313.333 47.806,313.333 46.750 C 313.333 44.643,313.313 44.635,311.862 46.193 C 311.250 46.849,310.255 47.887,309.650 48.500 C 308.429 49.737,307.943 50.983,307.720 53.448 C 307.612 54.641,307.028 55.500,306.324 55.500 C 305.803 55.500,304.779 56.012,304.953 56.186 C 305.220 56.453,307.594 56.298,307.533 56.017 C 307.492 55.825,307.550 55.828,307.867 56.034 C 308.078 56.172,308.662 56.338,309.167 56.403 C 311.194 56.664,311.423 56.707,311.575 56.850 C 311.662 56.933,311.894 57.000,312.091 57.000 C 312.415 57.000,313.097 57.259,313.873 57.677 C 314.360 57.940,314.576 57.860,314.276 57.529 C 313.879 57.090,313.853 57.138,315.583 55.089 C 317.296 53.058,317.704 52.833,319.685 52.833 C 320.031 52.833,320.360 52.758,320.417 52.667 C 320.658 52.277,321.385 52.513,322.049 53.197 L 322.726 53.895 322.880 53.489 C 322.965 53.266,323.102 52.953,323.184 52.794 C 323.266 52.635,323.333 52.331,323.333 52.119 C 323.333 51.907,323.405 51.662,323.493 51.574 C 323.580 51.486,323.704 50.794,323.767 50.035 C 323.830 49.277,323.946 48.617,324.024 48.568 C 324.422 48.322,324.174 46.560,323.708 46.320 C 322.784 45.843,321.932 44.657,321.684 43.500 C 321.342 41.913,320.969 40.608,320.645 39.877 C 320.474 39.488,320.333 38.997,320.333 38.785 C 320.333 38.419,319.890 37.447,319.141 36.175 C 318.955 35.858,318.415 35.146,317.942 34.591 C 315.989 32.304,315.595 31.474,315.714 29.900 C 315.807 28.672,315.690 28.333,315.170 28.333 C 315.025 28.333,314.799 28.183,314.667 28.000 C 314.535 27.817,314.327 27.667,314.206 27.667 C 314.085 27.667,313.838 27.529,313.657 27.360 C 313.476 27.191,313.160 26.974,312.956 26.877 C 311.696 26.279,310.870 25.958,310.385 25.879 C 310.082 25.830,309.833 25.725,309.833 25.645 C 309.833 25.565,309.608 25.500,309.333 25.500 C 309.058 25.500,308.833 25.425,308.833 25.333 C 308.833 25.242,308.575 25.167,308.260 25.167 C 307.944 25.167,307.640 25.092,307.583 25.000 C 307.527 24.908,307.039 24.833,306.500 24.833 C 305.961 24.833,305.473 24.758,305.417 24.667 C 305.356 24.568,304.359 24.500,302.990 24.500 L 300.667 24.500 300.667 24.892 M297.583 35.667 C 297.640 35.758,297.795 35.833,297.927 35.833 C 298.059 35.833,298.436 36.130,298.763 36.493 C 299.091 36.856,299.500 37.197,299.672 37.252 C 299.845 37.306,300.152 37.684,300.354 38.090 C 300.557 38.496,300.898 38.993,301.112 39.193 C 301.325 39.394,301.500 39.646,301.500 39.753 C 301.500 39.861,301.653 40.087,301.841 40.257 C 302.029 40.427,302.162 40.720,302.138 40.908 C 302.067 41.457,302.308 41.667,303.010 41.667 C 303.371 41.667,303.667 41.742,303.667 41.833 C 303.667 41.925,303.854 42.000,304.083 42.000 C 304.313 42.000,304.500 42.075,304.500 42.167 C 304.500 42.258,304.650 42.333,304.833 42.333 C 305.017 42.333,305.167 42.390,305.167 42.460 C 305.167 42.530,305.335 42.689,305.542 42.815 C 305.915 43.043,305.915 43.042,305.526 42.619 C 305.166 42.228,305.152 42.148,305.349 41.603 C 305.529 41.105,305.524 40.965,305.318 40.714 C 305.183 40.551,304.895 40.079,304.678 39.667 C 304.461 39.254,304.191 38.804,304.079 38.667 C 303.132 37.513,303.072 36.343,303.958 36.309 C 304.302 36.296,304.808 36.268,305.083 36.247 C 305.358 36.226,305.794 36.200,306.052 36.188 C 306.615 36.162,306.489 35.833,305.917 35.833 C 305.698 35.833,305.473 35.758,305.417 35.667 C 305.353 35.563,303.828 35.500,301.397 35.500 C 298.828 35.500,297.516 35.557,297.583 35.667 M306.667 36.167 C 306.667 36.258,306.835 36.332,307.042 36.331 C 307.345 36.329,307.369 36.297,307.167 36.167 C 306.844 35.958,306.667 35.958,306.667 36.167 M310.589 39.000 C 310.695 39.415,311.238 40.000,311.517 40.000 C 311.598 40.000,311.518 39.831,311.339 39.625 C 311.160 39.419,310.894 39.100,310.748 38.917 C 310.489 38.592,310.485 38.594,310.589 39.000 M274.299 52.417 C 273.691 52.630,273.150 52.761,273.096 52.708 C 273.043 52.655,273.000 52.924,273.000 53.306 C 273.000 53.688,273.019 54.000,273.042 54.000 C 273.274 54.000,275.879 53.452,276.300 53.314 C 276.978 53.094,276.922 52.874,276.066 52.398 L 275.405 52.030 274.299 52.417 M322.231 56.514 C 321.424 57.154,321.285 57.394,321.173 58.333 L 321.083 59.083 320.000 59.136 C 318.400 59.213,317.500 59.048,317.500 58.677 C 317.500 58.115,317.065 57.935,316.667 58.333 C 316.222 58.778,316.287 58.975,317.009 59.358 C 317.325 59.526,317.705 59.811,317.854 59.991 C 318.003 60.171,318.172 60.272,318.229 60.215 C 318.287 60.158,318.333 60.202,318.333 60.313 C 318.333 60.555,319.083 61.333,319.316 61.333 C 319.407 61.333,319.586 61.483,319.714 61.666 C 319.842 61.848,319.989 61.955,320.041 61.903 C 320.094 61.851,320.185 61.963,320.245 62.152 C 320.354 62.494,320.358 62.494,320.969 62.179 C 322.195 61.547,322.634 60.833,321.798 60.833 C 321.459 60.833,321.457 60.823,321.750 60.500 C 321.916 60.317,322.111 60.167,322.184 60.167 C 322.257 60.167,322.523 59.975,322.777 59.740 C 323.256 59.295,323.140 59.009,322.478 59.003 C 322.218 59.000,322.088 58.764,321.836 57.833 C 321.744 57.494,321.849 57.285,322.396 56.708 C 323.191 55.872,323.130 55.801,322.231 56.514 M323.334 56.708 C 323.337 57.254,323.706 58.167,323.925 58.167 C 324.058 58.167,324.158 58.223,324.147 58.292 C 324.062 58.832,324.769 59.136,325.490 58.870 C 325.871 58.729,325.868 58.719,325.240 58.202 C 324.760 57.806,324.551 57.722,324.385 57.859 C 324.213 58.003,324.167 57.931,324.167 57.520 C 324.167 57.234,324.092 57.000,324.000 57.000 C 323.908 57.000,323.833 56.887,323.833 56.750 C 323.833 56.612,323.721 56.500,323.583 56.500 C 323.446 56.500,323.334 56.594,323.334 56.708 M337.088 57.801 C 336.813 58.076,337.052 58.333,337.583 58.333 C 338.095 58.333,338.486 57.888,338.042 57.812 C 337.563 57.731,337.163 57.726,337.088 57.801 M336.583 59.000 C 336.517 59.107,337.057 59.167,338.083 59.167 C 339.110 59.167,339.649 59.107,339.583 59.000 C 339.527 58.908,338.852 58.833,338.083 58.833 C 337.315 58.833,336.640 58.908,336.583 59.000 M300.547 60.875 C 301.092 62.245,301.252 62.472,302.164 63.167 C 303.283 64.019,303.302 64.056,303.343 65.417 C 303.391 67.018,303.406 66.983,302.625 67.123 C 302.153 67.208,303.112 67.278,305.500 67.333 C 309.986 67.438,310.241 67.528,312.042 69.655 C 312.442 70.127,312.667 70.563,312.667 70.863 C 312.667 71.122,312.742 71.333,312.833 71.333 C 313.478 71.333,312.805 74.433,311.905 75.614 C 311.378 76.304,311.393 76.417,312.042 76.673 C 314.038 77.460,314.344 79.676,312.695 81.408 C 311.712 82.441,310.478 84.033,310.580 84.136 C 310.631 84.187,310.761 84.139,310.869 84.031 C 310.978 83.922,311.239 83.833,311.450 83.833 C 311.661 83.833,311.833 83.758,311.833 83.667 C 311.833 83.575,312.021 83.500,312.250 83.500 C 312.479 83.500,312.667 83.425,312.667 83.333 C 312.667 83.242,312.817 83.167,313.000 83.167 C 313.183 83.167,313.333 83.092,313.333 83.000 C 313.333 82.908,313.446 82.833,313.583 82.833 C 313.721 82.833,313.833 82.758,313.833 82.667 C 313.833 82.575,313.939 82.500,314.069 82.500 C 314.340 82.500,314.974 81.999,315.728 81.189 C 316.015 80.880,316.493 80.377,316.791 80.070 C 317.089 79.763,317.482 79.247,317.666 78.923 C 317.850 78.599,318.152 78.064,318.338 77.736 C 318.525 77.407,318.722 76.807,318.778 76.402 C 318.833 75.998,318.943 75.667,319.023 75.667 C 319.102 75.667,319.167 75.259,319.167 74.760 C 319.167 74.261,319.242 73.807,319.333 73.750 C 319.425 73.693,319.500 73.389,319.500 73.073 C 319.500 72.758,319.425 72.500,319.333 72.500 C 319.242 72.500,319.167 72.387,319.167 72.250 C 319.167 72.112,319.105 72.000,319.030 72.000 C 318.810 72.000,317.145 69.867,316.375 68.598 C 315.590 67.306,315.394 65.791,315.922 65.093 C 316.491 64.341,315.684 63.439,313.583 62.479 C 313.308 62.353,312.938 62.119,312.760 61.958 C 312.583 61.798,312.339 61.667,312.219 61.667 C 312.098 61.667,312.000 61.592,312.000 61.500 C 312.000 61.408,311.737 61.333,311.417 61.333 C 311.096 61.333,310.833 61.258,310.833 61.167 C 310.833 61.074,310.392 61.000,309.843 61.000 C 309.299 61.000,308.807 60.925,308.750 60.833 C 308.586 60.568,300.441 60.609,300.547 60.875 M301.937 78.077 C 301.989 78.211,302.175 78.366,302.351 78.422 C 302.527 78.478,302.629 78.593,302.576 78.678 C 302.433 78.909,303.329 79.667,303.745 79.667 C 304.456 79.667,304.855 78.943,304.688 77.958 C 304.676 77.890,304.032 77.833,303.255 77.833 C 302.085 77.833,301.860 77.875,301.937 78.077 M304.967 78.033 C 305.122 78.189,305.211 78.189,305.367 78.033 C 305.522 77.878,305.478 77.833,305.167 77.833 C 304.856 77.833,304.811 77.878,304.967 78.033 M359.226 78.083 C 359.364 78.221,359.586 78.333,359.720 78.333 C 359.865 78.333,360.006 78.564,360.070 78.905 C 360.198 79.587,360.865 79.833,361.604 79.470 C 362.012 79.270,362.148 79.098,362.502 78.333 C 362.566 78.194,362.941 78.039,363.350 77.983 C 363.753 77.928,362.934 77.872,361.530 77.858 C 359.260 77.836,359.004 77.861,359.226 78.083 M371.045 78.042 C 371.106 79.703,370.978 80.537,370.606 80.883 C 370.389 81.085,369.603 81.962,368.858 82.833 L 367.504 84.417 373.793 84.460 C 377.252 84.484,380.176 84.468,380.291 84.424 C 380.777 84.237,380.554 81.947,379.997 81.414 C 379.721 81.149,379.417 80.629,379.322 80.258 C 379.226 79.887,379.038 79.190,378.903 78.708 L 378.657 77.833 374.847 77.833 C 371.906 77.833,371.039 77.881,371.045 78.042 M327.505 80.984 C 326.829 81.708,326.170 82.503,326.041 82.750 C 325.625 83.544,323.520 82.782,322.562 81.490 C 321.910 80.611,321.167 80.520,321.167 81.320 C 321.167 81.490,320.743 82.049,320.125 82.695 C 319.965 82.863,319.833 83.038,319.833 83.086 C 319.833 83.376,316.854 86.000,316.525 86.000 C 316.419 86.000,316.333 86.075,316.333 86.167 C 316.333 86.258,316.221 86.333,316.083 86.333 C 315.946 86.333,315.833 86.408,315.833 86.500 C 315.833 86.592,315.683 86.667,315.500 86.667 C 315.317 86.667,315.167 86.742,315.167 86.833 C 315.167 86.925,315.054 87.000,314.917 87.000 C 314.779 87.000,314.667 87.075,314.667 87.167 C 314.667 87.258,314.557 87.333,314.422 87.333 C 314.198 87.333,313.327 87.666,312.627 88.020 C 312.468 88.101,312.116 88.167,311.845 88.167 C 311.575 88.167,311.307 88.242,311.250 88.333 C 311.193 88.425,310.781 88.500,310.333 88.500 C 309.886 88.500,309.473 88.575,309.417 88.667 C 309.360 88.758,308.943 88.833,308.490 88.833 L 307.667 88.833 307.667 90.000 C 307.667 90.642,307.610 91.154,307.542 91.138 C 307.409 91.107,307.079 91.239,305.333 92.018 C 304.136 92.553,302.371 93.043,302.145 92.903 C 302.065 92.854,302.000 92.893,302.000 92.990 C 302.000 93.087,301.862 93.167,301.693 93.167 C 301.333 93.167,301.000 93.811,301.000 94.508 C 301.000 95.026,301.531 95.231,301.736 94.792 C 301.814 94.625,301.853 94.625,301.931 94.792 C 302.077 95.106,304.286 95.071,304.607 94.750 C 304.745 94.612,305.072 94.500,305.334 94.500 C 305.731 94.500,305.820 94.423,305.864 94.042 C 305.906 93.678,306.014 93.572,306.390 93.529 C 306.706 93.493,306.955 93.313,307.140 92.989 C 307.292 92.721,307.505 92.502,307.613 92.501 C 307.721 92.500,307.843 92.369,307.885 92.208 C 307.942 91.990,307.966 92.012,307.981 92.294 C 308.037 93.399,309.419 94.407,311.160 94.614 C 311.998 94.713,314.543 94.486,313.865 94.372 C 313.338 94.284,313.202 93.843,313.601 93.516 C 313.779 93.370,314.328 92.763,314.821 92.167 C 317.071 89.445,317.091 89.429,318.313 89.307 C 318.920 89.246,319.862 89.069,320.406 88.914 C 321.472 88.611,321.493 88.618,321.990 89.482 C 322.259 89.950,324.500 88.494,324.500 87.851 C 324.500 87.749,324.800 87.395,325.167 87.064 C 325.533 86.732,325.833 86.392,325.833 86.307 C 325.833 86.161,325.972 85.965,326.458 85.423 C 326.573 85.295,326.667 85.073,326.667 84.929 C 326.667 84.785,326.742 84.667,326.833 84.667 C 326.925 84.667,327.000 84.554,327.000 84.417 C 327.000 84.279,327.075 84.167,327.167 84.167 C 327.258 84.167,327.333 84.017,327.333 83.833 C 327.333 83.650,327.408 83.500,327.500 83.500 C 327.592 83.500,327.667 83.413,327.667 83.308 C 327.667 83.202,327.868 82.696,328.115 82.183 C 328.361 81.670,328.543 81.081,328.520 80.875 C 328.495 80.665,328.567 80.500,328.683 80.500 C 328.796 80.500,328.842 80.453,328.784 80.395 C 328.726 80.337,328.753 80.149,328.845 79.978 C 329.188 79.338,328.696 79.707,327.505 80.984 M274.333 88.583 C 274.012 88.707,273.581 88.814,273.375 88.821 C 273.051 88.832,273.000 88.924,273.000 89.500 C 273.000 90.243,273.184 90.314,274.333 90.011 C 274.654 89.927,275.348 89.772,275.875 89.667 C 277.034 89.436,277.086 89.189,276.079 88.700 C 275.219 88.282,275.131 88.276,274.333 88.583 M365.167 89.813 C 365.167 90.955,365.056 91.087,363.722 91.537 C 363.214 91.709,362.600 91.989,362.358 92.160 C 362.115 92.331,361.215 92.644,360.357 92.856 C 358.678 93.269,358.500 93.428,358.500 94.511 L 358.500 95.000 360.083 95.000 C 360.990 95.000,361.667 94.931,361.667 94.839 C 361.667 94.751,362.042 94.628,362.500 94.568 C 363.164 94.480,363.333 94.394,363.333 94.145 C 363.333 93.974,363.413 93.833,363.511 93.833 C 363.608 93.833,363.878 93.608,364.109 93.333 C 364.340 93.058,364.681 92.833,364.867 92.833 C 365.147 92.833,365.192 92.748,365.131 92.333 C 365.091 92.058,365.112 91.833,365.178 91.833 C 365.321 91.833,365.500 92.263,365.500 92.606 C 365.500 93.021,366.389 93.993,366.917 94.154 C 369.308 94.883,370.556 94.349,372.614 91.716 C 373.325 90.808,374.556 89.416,374.701 89.359 C 374.781 89.327,374.760 89.196,374.653 89.067 C 374.495 88.877,373.596 88.833,369.813 88.833 L 365.167 88.833 365.167 89.813 M379.333 89.155 C 379.333 89.459,380.048 90.167,380.356 90.167 C 380.435 90.167,380.500 89.867,380.500 89.500 C 380.500 88.849,380.486 88.833,379.917 88.833 C 379.452 88.833,379.333 88.899,379.333 89.155 M379.548 92.875 C 379.201 93.173,378.826 93.502,378.716 93.606 C 378.391 93.911,378.638 95.000,379.031 95.000 C 379.306 95.000,379.345 94.898,379.301 94.292 C 379.256 93.661,379.320 93.515,379.882 92.958 C 380.658 92.191,380.414 92.131,379.548 92.875 M336.893 93.585 C 336.840 93.724,336.889 93.949,337.002 94.085 C 337.270 94.409,338.000 94.411,338.000 94.089 C 338.000 93.950,337.901 93.882,337.772 93.931 C 337.637 93.983,337.507 93.879,337.454 93.676 C 337.349 93.275,337.032 93.224,336.893 93.585 M280.167 94.167 C 280.167 94.258,280.271 94.333,280.399 94.333 C 280.527 94.333,280.674 94.446,280.727 94.583 C 280.846 94.894,281.167 94.913,281.167 94.610 C 281.167 94.487,280.976 94.300,280.742 94.193 C 280.224 93.957,280.167 93.955,280.167 94.167 M373.867 94.533 C 373.522 94.878,373.644 95.000,374.333 95.000 C 374.700 95.000,375.000 94.940,375.000 94.867 C 375.000 94.642,374.615 94.333,374.333 94.333 C 374.187 94.333,373.977 94.423,373.867 94.533 " stroke="none" fill="#aa0904" fill-rule="evenodd"></path><path id="path4" d="M273.000 43.167 C 273.000 49.721,273.019 50.167,273.292 50.169 C 273.452 50.171,274.146 50.693,274.833 51.329 C 275.521 51.966,276.164 52.490,276.262 52.494 C 276.511 52.503,277.015 53.139,277.463 54.011 C 277.673 54.417,278.104 55.040,278.422 55.393 C 278.740 55.747,279.000 56.108,279.000 56.194 C 279.000 56.377,288.907 56.316,289.090 56.132 C 289.155 56.067,289.021 55.542,288.793 54.966 C 288.564 54.389,288.328 53.643,288.268 53.308 C 288.138 52.593,287.738 51.718,287.325 51.250 C 287.163 51.067,286.874 50.613,286.683 50.242 C 286.336 49.569,284.144 47.333,283.831 47.333 C 283.738 47.333,283.667 47.873,283.667 48.583 L 283.667 49.833 281.417 49.833 L 279.167 49.833 279.167 45.917 C 279.167 43.650,279.102 42.000,279.014 42.000 C 278.833 42.000,277.167 40.353,277.167 40.174 C 277.167 40.107,277.022 39.921,276.846 39.762 C 276.670 39.602,276.254 38.922,275.922 38.250 C 275.250 36.889,275.062 36.687,274.189 36.383 C 272.896 35.932,273.000 35.338,273.000 43.167 M336.500 49.434 L 336.500 56.034 338.042 57.510 L 339.583 58.985 341.292 58.993 L 343.000 59.000 343.000 53.750 C 343.000 50.769,342.935 48.500,342.851 48.500 C 342.769 48.500,341.944 47.769,341.018 46.875 C 338.536 44.478,336.744 42.833,336.614 42.833 C 336.551 42.833,336.500 45.803,336.500 49.434 M347.375 58.250 C 347.377 58.617,347.411 58.747,347.451 58.540 C 347.491 58.332,347.490 58.032,347.448 57.873 C 347.406 57.714,347.374 57.883,347.375 58.250 M273.000 79.417 C 273.000 85.891,273.019 86.334,273.292 86.337 C 273.452 86.339,274.166 86.897,274.878 87.577 C 275.590 88.257,276.308 88.856,276.473 88.908 C 276.638 88.960,277.024 89.450,277.331 89.996 C 277.681 90.617,278.596 91.686,279.778 92.854 C 280.817 93.880,281.667 94.782,281.667 94.860 C 281.667 95.211,290.122 95.020,290.215 94.667 C 290.263 94.484,290.234 94.292,290.151 94.240 C 290.068 94.189,290.000 93.943,290.000 93.693 C 290.000 93.443,289.756 92.860,289.458 92.396 C 288.956 91.615,288.483 90.394,288.255 89.292 L 288.160 88.833 283.663 88.833 L 279.167 88.833 279.167 83.500 C 279.167 80.037,279.108 78.167,278.999 78.167 C 278.557 78.167,276.470 75.629,275.915 74.417 C 275.320 73.117,274.616 72.500,273.730 72.500 L 273.000 72.500 273.000 79.417 M336.500 81.649 C 336.500 84.793,336.199 84.500,339.430 84.500 C 342.325 84.500,342.418 84.394,340.861 82.869 C 339.411 81.449,336.713 79.000,336.600 79.000 C 336.545 79.000,336.500 80.192,336.500 81.649 M283.667 84.000 C 283.667 84.422,283.731 84.500,284.083 84.500 C 284.568 84.500,284.598 84.380,284.241 83.870 C 283.882 83.359,283.667 83.407,283.667 84.000 M336.512 90.515 L 336.483 92.196 337.950 93.596 L 339.417 94.996 343.363 94.998 C 348.515 95.001,348.348 95.180,346.509 91.620 C 345.972 90.581,345.667 89.780,345.667 89.411 L 345.667 88.833 341.104 88.833 L 336.541 88.833 336.512 90.515 " stroke="none" fill="#0437dd" fill-rule="evenodd"></path></g></svg>
