<svg xmlns="http://www.w3.org/2000/svg" width="3264" height="382" viewBox="0 0 3264 382" version="1.1"><path d="M 865.500 53.774 C 863.850 53.945, 861.825 54.321, 861 54.608 C 860.175 54.894, 859.275 55.159, 859 55.195 C 858.725 55.232, 857.440 57.790, 856.144 60.881 C 853.359 67.524, 846.764 77.715, 841.048 84.208 C 832.527 93.889, 816.301 104.200, 805.054 107.083 C 799.810 108.427, 798.389 110.476, 797.435 118.070 C 797.129 120.507, 796.696 123.063, 796.471 123.750 C 795.921 125.435, 805.119 125.355, 815.022 123.588 C 822.854 122.191, 835.349 117.737, 838.079 115.369 C 838.947 114.616, 840.084 114, 840.605 114 C 842.073 114, 854.711 103.651, 859.137 98.824 C 865.151 92.265, 868.819 86.669, 873.003 77.673 C 876.606 69.927, 880.419 55.488, 879.328 53.722 C 878.865 52.973, 872.986 52.995, 865.500 53.774 M 938 54.156 C 938 55.736, 942.321 61.341, 948.958 68.367 C 959.489 79.516, 972.188 86.952, 987.318 90.828 L 994.976 92.789 991.564 88.803 C 985.296 81.481, 977.413 64.008, 976.811 56.102 L 976.575 53 957.287 53 C 943.364 53, 938 53.321, 938 54.156 M 1049.500 81.646 C 1045.425 84.896, 1031.253 90.858, 1023.500 92.583 C 1019.100 93.562, 1011.595 94.394, 1006.822 94.432 C 996.763 94.511, 996.762 94.491, 1007.500 102.940 C 1019.284 112.210, 1030.155 116.894, 1044.880 119.044 C 1052.715 120.188, 1067.688 119.929, 1069.819 118.612 C 1070.656 118.095, 1069.418 112.392, 1066.431 103 C 1065.994 101.625, 1065.617 100.275, 1065.594 100 C 1065.571 99.725, 1064.640 98.451, 1063.526 97.170 C 1062.412 95.888, 1061.461 94.538, 1061.414 94.170 C 1061.221 92.676, 1059.528 89.467, 1057.916 87.543 C 1051.377 79.735, 1051.652 79.929, 1049.500 81.646 M 829.500 243.559 C 818.929 245.350, 811.010 248.172, 802.698 253.110 C 795.233 257.545, 795.711 256.336, 797.588 266.039 C 798.019 268.269, 798.619 268.949, 799.838 268.592 C 815.122 264.116, 832.869 263.292, 845.500 266.473 C 870.671 272.811, 891.823 291.255, 901.728 315.500 C 903.525 319.900, 905.260 325.075, 905.583 327 L 906.171 330.500 914.085 330.174 L 922 329.848 921.987 322.174 C 921.948 299.747, 912.297 278.153, 895.932 263.878 C 880.866 250.737, 871.390 246.124, 854 243.465 C 842.796 241.751, 840.109 241.762, 829.500 243.559 M 1007.500 269.559 C 1006.400 269.812, 1003.025 270.504, 1000 271.095 C 990.795 272.895, 978.763 279.315, 971.167 286.481 C 960.582 296.467, 955.852 306.989, 955.651 321 C 955.592 325.125, 955.936 329.124, 956.416 329.887 C 957.135 331.032, 961.418 331.180, 980.894 330.736 C 1003.551 330.219, 1012.456 329.130, 1019.500 326.014 C 1020.600 325.527, 1023.601 324.241, 1026.170 323.156 C 1039.028 317.724, 1057.140 301.090, 1061.464 290.741 C 1062.292 288.759, 1063.392 286.876, 1063.908 286.557 C 1064.424 286.238, 1065.142 284.632, 1065.503 282.989 C 1065.864 281.345, 1066.573 280, 1067.079 280 C 1067.586 280, 1067.996 279.438, 1067.990 278.750 C 1067.976 276.899, 1031.176 269.888, 1019.184 269.451 C 1013.858 269.257, 1008.600 269.306, 1007.500 269.559 M 1010 272.066 C 1008.625 272.470, 1005.362 272.845, 1002.750 272.900 C 999.239 272.974, 998 273.391, 998 274.500 C 998 275.426, 997.061 276, 995.547 276 C 992.286 276, 988 278.016, 988 279.549 C 988 280.225, 986.468 281.065, 984.597 281.416 C 982.725 281.767, 980.939 282.717, 980.628 283.527 C 980.317 284.337, 979.473 285, 978.752 285 C 978.031 285, 976.793 285.900, 976 287 C 975.207 288.100, 974.094 289, 973.526 289 C 971.828 289, 967.163 294.504, 966.448 297.350 C 966.022 299.048, 965.104 300, 963.892 300 C 962.351 300, 962 300.743, 962 304 C 962 306.739, 961.564 308, 960.617 308 C 958.919 308, 958.306 311.196, 958.987 316.500 L 959.500 320.500 984.750 320.642 L 1010 320.785 1010 318.392 C 1010 316.667, 1010.557 316, 1012 316 C 1013.100 316, 1014 316.450, 1014 317 C 1014 318.479, 1015.929 318.214, 1017.643 316.500 C 1018.468 315.675, 1020.011 315, 1021.071 315 C 1022.333 315, 1023 314.309, 1023 313 C 1023 311.667, 1023.667 311, 1025 311 C 1026.100 311, 1027 310.550, 1027 310 C 1027 309.450, 1028.125 309, 1029.500 309 C 1030.875 309, 1032 308.550, 1032 308 C 1032 307.450, 1032.852 307, 1033.893 307 C 1034.934 307, 1036.045 306.325, 1036.362 305.500 C 1036.736 304.524, 1038.432 303.952, 1041.219 303.864 C 1043.573 303.789, 1044.487 303.533, 1043.250 303.294 C 1041.848 303.024, 1041 302.137, 1041 300.939 C 1041 298.779, 1046.568 293, 1048.648 293 C 1049.555 293, 1050 291.705, 1050 289.070 C 1050 285.755, 1050.353 285.089, 1052.250 284.820 C 1054.094 284.558, 1054.500 283.868, 1054.500 281 L 1054.500 277.500 1047.211 276.500 C 1043.203 275.950, 1039.602 274.979, 1039.209 274.342 C 1038.177 272.666, 1014.290 270.805, 1010 272.066 M 981.582 325 C 965.697 325.362, 959.554 325.833, 959.262 326.710 C 958.958 327.625, 963.849 327.991, 979.271 328.210 C 1001.968 328.532, 1005.033 328.260, 1004.112 326 C 1003.585 324.709, 1000.445 324.570, 981.582 325" stroke="none" fill="#2787d1" fill-rule="evenodd"/><path d="M 978.012 55.250 C 978.050 62.513, 984.871 78.503, 991.768 87.500 L 995.600 92.500 1008.050 92.462 C 1022.217 92.419, 1029.393 90.885, 1040.468 85.530 C 1052.731 79.601, 1052.603 79.994, 1044.692 72.616 C 1036.383 64.867, 1024.960 58.754, 1012.598 55.443 C 1005.211 53.463, 1001.102 53.005, 990.750 53.003 C 978.190 53, 978 53.034, 978.012 55.250 M 848.658 57.670 C 828.546 64.974, 808.617 83.897, 802.016 101.957 L 800.124 107.132 803.312 106.451 C 822.556 102.343, 845.874 82.050, 854.878 61.572 C 856.070 58.862, 856.697 56.316, 856.272 55.915 C 855.848 55.513, 852.421 56.303, 848.658 57.670 M 2367.750 110.746 L 2378 111.070 2378 117.035 L 2378 123 2367.243 123 L 2356.487 123 2337.993 132.490 C 2327.822 137.709, 2319.351 141.984, 2319.168 141.990 C 2318.985 141.995, 2318.985 138.891, 2319.168 135.092 C 2319.351 131.293, 2319.162 128.394, 2318.750 128.651 C 2317.742 129.279, 2317.787 141.750, 2318.799 142.376 C 2319.239 142.648, 2327.452 138.769, 2337.049 133.756 L 2354.500 124.643 2366.500 124.071 L 2378.500 123.500 2378.796 116.750 L 2379.091 110 2368.296 110.211 L 2357.500 110.422 2367.750 110.746 M 937 133.979 C 942.775 134.429, 950.457 135.736, 954.072 136.884 C 971.321 142.360, 985.861 157.849, 990.511 175.703 C 992.398 182.950, 992.437 200.770, 990.580 207.744 C 985.795 225.720, 972.210 240.223, 954.532 246.229 C 950.114 247.729, 947.217 248.967, 948.093 248.979 C 951.463 249.024, 961.688 244.787, 967.766 240.827 C 979.258 233.340, 989.012 219.678, 991.919 207 C 993.548 199.899, 993.247 181.203, 991.404 174.932 C 987.388 161.269, 978.767 149.684, 966.915 142.024 C 957.909 136.202, 949.638 133.837, 937 133.467 L 926.500 133.160 937 133.979 M 914.977 136.345 C 906.747 139.251, 898.812 144.382, 892.883 150.633 C 888.105 155.669, 883 162.774, 883 164.387 C 883 164.895, 884.722 162.646, 886.827 159.390 C 894.189 147.998, 907.189 138.839, 920.601 135.594 C 923.846 134.809, 925.375 134.139, 924 134.104 C 922.625 134.070, 918.565 135.079, 914.977 136.345 M 2375 136.082 C 2373.826 136.903, 2373.990 136.993, 2375.750 136.498 C 2377.913 135.890, 2378 136.110, 2378 142.203 L 2378 148.540 2372.250 150.520 L 2366.500 152.500 2366.500 163.500 L 2366.500 174.500 2372.250 176.480 L 2378 178.460 2378 184.837 C 2378 190.507, 2377.806 191.137, 2376.250 190.522 C 2364.117 185.728, 2334.654 175.013, 2334.374 175.292 C 2334.008 175.659, 2377.056 192, 2378.387 192 C 2378.772 192, 2378.955 188.773, 2378.794 184.830 L 2378.500 177.660 2372.750 175.747 L 2367 173.833 2367 163.500 L 2367 153.167 2372.750 151.250 L 2378.500 149.333 2378.500 142.500 C 2378.500 135.591, 2377.727 134.174, 2375 136.082 M 925.105 147.583 C 922.137 148.381, 917.412 150.262, 914.605 151.763 C 908.511 155.020, 898.945 164.191, 896.590 169.031 C 894.845 172.620, 895.549 171.868, 900.259 165.113 C 906.369 156.350, 920.212 148.574, 931.874 147.355 C 948.284 145.640, 967.059 157.066, 975.162 173.698 C 978.297 180.133, 978.476 181.093, 978.488 191.500 C 978.499 201.815, 978.301 202.921, 975.299 209.259 C 973.524 213.005, 969.742 218.507, 966.813 221.605 C 957.898 231.031, 949.568 234.924, 936 236.006 L 927.500 236.683 934.595 236.842 C 953.563 237.265, 971.555 224.045, 978.043 204.917 C 981.280 195.374, 980.506 182.942, 976.101 173.711 C 969.942 160.806, 958.233 151.119, 944.458 147.531 C 937.289 145.664, 932.190 145.677, 925.105 147.583 M 2349 158.065 C 2337.502 162.077, 2334.856 163.253, 2335.665 163.991 C 2336.124 164.409, 2340.325 165.999, 2345 167.522 C 2349.675 169.046, 2354.063 170.500, 2354.750 170.754 C 2355.681 171.096, 2356 169.271, 2356 163.607 C 2356 159.423, 2355.662 156.033, 2355.250 156.073 C 2354.838 156.113, 2352.025 157.010, 2349 158.065 M 2346.103 160.056 C 2341.484 161.654, 2337.520 163.146, 2337.295 163.372 C 2337.069 163.598, 2340.960 165.150, 2345.942 166.820 L 2355 169.858 2355 163.429 C 2355 159.893, 2354.887 157.034, 2354.750 157.075 C 2354.613 157.117, 2350.721 158.458, 2346.103 160.056 M 924.667 170.667 C 924.300 171.033, 924 180.660, 924 192.060 C 924 214.388, 923.913 214.029, 929.332 213.981 C 930.524 213.970, 937.237 209.705, 944.250 204.502 C 955.269 196.327, 956.998 194.666, 956.985 192.271 C 956.976 190.747, 956.639 189.001, 956.235 188.392 C 955.831 187.782, 950.160 183.395, 943.634 178.642 C 934.563 172.035, 931.011 170, 928.551 170 C 926.781 170, 925.033 170.300, 924.667 170.667 M 925.230 191.750 L 925.500 212.500 928.175 212.809 C 930.227 213.046, 933.781 210.988, 943.425 203.976 C 960.233 191.755, 960.227 192.087, 943.863 179.980 C 934.205 172.834, 931.035 171, 928.343 171 L 924.959 171 925.230 191.750 M 2368 206.500 L 2368 219 2344.122 219 C 2324.725 219, 2320.024 219.266, 2319.067 220.419 C 2318.389 221.236, 2318.019 224.098, 2318.195 227.169 L 2318.500 232.500 2348.750 232.765 L 2379 233.029 2379 213.515 C 2379 202.782, 2378.662 194, 2378.250 193.999 C 2377.838 193.998, 2377.631 202.548, 2377.792 212.999 L 2378.084 232 2348.492 232 L 2318.900 232 2319.200 226.250 L 2319.500 220.500 2344.195 220.233 L 2368.889 219.965 2369.195 206.981 C 2369.363 199.839, 2369.162 193.997, 2368.750 193.998 C 2368.338 193.999, 2368 199.625, 2368 206.500 M 898.772 217.531 C 904.230 225.593, 915.958 233.771, 924.500 235.472 C 926.150 235.800, 924.795 235.024, 921.489 233.747 C 913.673 230.728, 907.313 226.290, 901.450 219.763 C 898.849 216.869, 897.644 215.864, 898.772 217.531 M 886.972 225.826 C 887.621 227.105, 890.774 230.774, 893.980 233.980 C 900.156 240.156, 913.332 247.529, 920 248.539 C 922.474 248.914, 921.879 248.525, 917.972 247.212 C 906.065 243.210, 897.301 237.216, 889.146 227.497 C 887.302 225.299, 886.323 224.547, 886.972 225.826 M 2327.226 244.131 C 2325.425 245.284, 2322.725 248.314, 2321.226 250.864 C 2318.624 255.288, 2318.484 256.219, 2318.145 271.250 C 2317.950 279.913, 2318.175 286.999, 2318.645 286.998 C 2319.115 286.997, 2319.500 280.134, 2319.500 271.748 C 2319.500 258.011, 2319.720 256.053, 2321.722 251.991 C 2323.120 249.155, 2325.513 246.466, 2328.173 244.741 C 2330.498 243.234, 2331.973 242.008, 2331.450 242.017 C 2330.928 242.026, 2329.026 242.977, 2327.226 244.131 M 2343.669 256.392 C 2346.171 258.544, 2346.489 259.547, 2346.834 266.392 L 2347.219 274 2338.609 274 L 2330 274 2330 266.539 C 2330 260.109, 2330.311 258.779, 2332.250 256.916 C 2334.422 254.828, 2334.426 254.791, 2332.368 255.849 C 2329.463 257.341, 2329 258.960, 2329 267.619 L 2329 275.075 2338.250 274.788 L 2347.500 274.500 2347.815 269.503 C 2347.988 266.754, 2347.855 263.040, 2347.519 261.249 C 2346.940 258.161, 2343.631 254, 2341.756 254 C 2341.279 254, 2342.140 255.076, 2343.669 256.392 M 2357.434 265.500 L 2357.500 274.500 2367.703 274.784 L 2377.906 275.069 2378.260 281.284 L 2378.615 287.500 2378.807 280.750 L 2379 274 2368.539 274 L 2358.078 274 2357.723 265.250 L 2357.369 256.500 2357.434 265.500 M 816.021 266.110 C 810.179 266.798, 799.714 269.348, 798.287 270.431 C 797.877 270.742, 800.788 279.534, 802.615 283.500 C 805.468 289.697, 813.823 301.858, 818.383 306.452 C 823.105 311.209, 831.362 318, 832.424 318 C 832.820 318, 833.769 318.626, 834.534 319.391 C 836.382 321.239, 850.101 326.922, 857 328.698 C 860.417 329.577, 870.546 330.331, 883.750 330.689 C 908.589 331.361, 906.939 332.462, 901.913 318.572 C 889.078 283.101, 853.942 261.641, 816.021 266.110" stroke="none" fill="#4397d7" fill-rule="evenodd"/><path d="M 865.500 53.774 C 863.850 53.945, 861.825 54.321, 861 54.608 C 860.175 54.894, 859.275 55.159, 859 55.195 C 858.725 55.232, 857.440 57.790, 856.144 60.881 C 853.359 67.524, 846.764 77.715, 841.048 84.208 C 832.527 93.889, 816.301 104.200, 805.054 107.083 C 799.810 108.427, 798.389 110.476, 797.435 118.070 C 797.129 120.507, 796.696 123.063, 796.471 123.750 C 795.921 125.435, 805.119 125.355, 815.022 123.588 C 822.854 122.191, 835.349 117.737, 838.079 115.369 C 838.947 114.616, 840.084 114, 840.605 114 C 842.073 114, 854.711 103.651, 859.137 98.824 C 865.151 92.265, 868.819 86.669, 873.003 77.673 C 876.606 69.927, 880.419 55.488, 879.328 53.722 C 878.865 52.973, 872.986 52.995, 865.500 53.774 M 938 54.156 C 938 55.736, 942.321 61.341, 948.958 68.367 C 959.489 79.516, 972.188 86.952, 987.318 90.828 L 994.976 92.789 991.564 88.803 C 985.296 81.481, 977.413 64.008, 976.811 56.102 L 976.575 53 957.287 53 C 943.364 53, 938 53.321, 938 54.156 M 1049.500 81.646 C 1045.425 84.896, 1031.253 90.858, 1023.500 92.583 C 1019.100 93.562, 1011.595 94.394, 1006.822 94.432 C 996.763 94.511, 996.762 94.491, 1007.500 102.940 C 1019.284 112.210, 1030.155 116.894, 1044.880 119.044 C 1052.715 120.188, 1067.688 119.929, 1069.819 118.612 C 1070.656 118.095, 1069.418 112.392, 1066.431 103 C 1065.994 101.625, 1065.617 100.275, 1065.594 100 C 1065.571 99.725, 1064.640 98.451, 1063.526 97.170 C 1062.412 95.888, 1061.461 94.538, 1061.414 94.170 C 1061.221 92.676, 1059.528 89.467, 1057.916 87.543 C 1051.377 79.735, 1051.652 79.929, 1049.500 81.646 M 829.500 243.559 C 818.929 245.350, 811.010 248.172, 802.698 253.110 C 795.233 257.545, 795.711 256.336, 797.588 266.039 C 798.019 268.269, 798.619 268.949, 799.838 268.592 C 815.122 264.116, 832.869 263.292, 845.500 266.473 C 870.671 272.811, 891.823 291.255, 901.728 315.500 C 903.525 319.900, 905.260 325.075, 905.583 327 L 906.171 330.500 914.085 330.174 L 922 329.848 921.987 322.174 C 921.948 299.747, 912.297 278.153, 895.932 263.878 C 880.866 250.737, 871.390 246.124, 854 243.465 C 842.796 241.751, 840.109 241.762, 829.500 243.559 M 1007.500 269.559 C 1006.400 269.812, 1003.025 270.504, 1000 271.095 C 990.795 272.895, 978.763 279.315, 971.167 286.481 C 960.582 296.467, 955.852 306.989, 955.651 321 C 955.592 325.125, 955.936 329.124, 956.416 329.887 C 957.135 331.032, 961.418 331.180, 980.894 330.736 C 1003.551 330.219, 1012.456 329.130, 1019.500 326.014 C 1020.600 325.527, 1023.601 324.241, 1026.170 323.156 C 1039.028 317.724, 1057.140 301.090, 1061.464 290.741 C 1062.292 288.759, 1063.392 286.876, 1063.908 286.557 C 1064.424 286.238, 1065.142 284.632, 1065.503 282.989 C 1065.864 281.345, 1066.573 280, 1067.079 280 C 1067.586 280, 1067.996 279.438, 1067.990 278.750 C 1067.976 276.899, 1031.176 269.888, 1019.184 269.451 C 1013.858 269.257, 1008.600 269.306, 1007.500 269.559 M 1010 272.066 C 1008.625 272.470, 1005.362 272.845, 1002.750 272.900 C 999.239 272.974, 998 273.391, 998 274.500 C 998 275.426, 997.061 276, 995.547 276 C 992.286 276, 988 278.016, 988 279.549 C 988 280.225, 986.468 281.065, 984.597 281.416 C 982.725 281.767, 980.939 282.717, 980.628 283.527 C 980.317 284.337, 979.473 285, 978.752 285 C 978.031 285, 976.793 285.900, 976 287 C 975.207 288.100, 974.094 289, 973.526 289 C 971.828 289, 967.163 294.504, 966.448 297.350 C 966.022 299.048, 965.104 300, 963.892 300 C 962.351 300, 962 300.743, 962 304 C 962 306.739, 961.564 308, 960.617 308 C 958.919 308, 958.306 311.196, 958.987 316.500 L 959.500 320.500 984.750 320.642 L 1010 320.785 1010 318.392 C 1010 316.667, 1010.557 316, 1012 316 C 1013.100 316, 1014 316.450, 1014 317 C 1014 318.479, 1015.929 318.214, 1017.643 316.500 C 1018.468 315.675, 1020.011 315, 1021.071 315 C 1022.333 315, 1023 314.309, 1023 313 C 1023 311.667, 1023.667 311, 1025 311 C 1026.100 311, 1027 310.550, 1027 310 C 1027 309.450, 1028.125 309, 1029.500 309 C 1030.875 309, 1032 308.550, 1032 308 C 1032 307.450, 1032.852 307, 1033.893 307 C 1034.934 307, 1036.045 306.325, 1036.362 305.500 C 1036.736 304.524, 1038.432 303.952, 1041.219 303.864 C 1043.573 303.789, 1044.487 303.533, 1043.250 303.294 C 1041.848 303.024, 1041 302.137, 1041 300.939 C 1041 298.779, 1046.568 293, 1048.648 293 C 1049.555 293, 1050 291.705, 1050 289.070 C 1050 285.755, 1050.353 285.089, 1052.250 284.820 C 1054.094 284.558, 1054.500 283.868, 1054.500 281 L 1054.500 277.500 1047.211 276.500 C 1043.203 275.950, 1039.602 274.979, 1039.209 274.342 C 1038.177 272.666, 1014.290 270.805, 1010 272.066 M 981.582 325 C 965.697 325.362, 959.554 325.833, 959.262 326.710 C 958.958 327.625, 963.849 327.991, 979.271 328.210 C 1001.968 328.532, 1005.033 328.260, 1004.112 326 C 1003.585 324.709, 1000.445 324.570, 981.582 325" stroke="none" fill="#2787d1" fill-rule="evenodd"/><path d="M 937.667 52.667 C 937.300 53.033, 937.007 53.821, 937.015 54.417 C 937.025 55.076, 937.335 55.020, 937.810 54.273 C 938.368 53.395, 943.836 52.962, 957.045 52.749 L 975.500 52.452 956.917 52.226 C 946.696 52.102, 938.033 52.300, 937.667 52.667 M 939.052 58 C 941.023 62.058, 959.076 79.231, 965.018 82.701 C 968.033 84.462, 971.400 86.189, 972.500 86.540 C 973.600 86.890, 972.143 85.829, 969.262 84.182 C 958.630 78.105, 949.528 70.096, 940.641 59 C 938.658 56.524, 938.193 56.231, 939.052 58 M 2379.417 213.500 C 2379.418 223.950, 2379.566 228.089, 2379.746 222.698 C 2379.926 217.307, 2379.925 208.757, 2379.744 203.698 C 2379.563 198.639, 2379.416 203.050, 2379.417 213.500 M 877.595 250.366 C 900.316 263.360, 915.276 282.614, 920.048 305 C 921.044 309.675, 921.884 312.375, 921.915 311 C 922.030 305.817, 918.788 295.180, 914.360 286.213 C 907.678 272.680, 894.688 259.278, 879.912 250.672 C 877.389 249.202, 874.914 248.005, 874.412 248.012 C 873.910 248.019, 875.343 249.078, 877.595 250.366 M 991.611 261.571 C 977.406 264.759, 962.386 274.473, 955.145 285.155 C 949.131 294.028, 946.670 303.026, 947.192 314.233 C 947.654 324.156, 949.903 330.635, 952.536 329.625 C 953.306 329.329, 954.202 329.518, 954.527 330.044 C 955.928 332.311, 956.718 330.701, 955.898 327.250 C 954.176 320.006, 956.739 306.925, 961.647 297.906 C 965.840 290.204, 976.482 280.780, 986.226 276.142 C 997.689 270.687, 1003.435 269.484, 1017.500 269.594 C 1027.221 269.671, 1032.802 270.383, 1046.892 273.344 C 1056.457 275.355, 1065.017 277, 1065.914 277 C 1067.026 277, 1067.878 275.567, 1068.589 272.500 L 1069.633 268 1062.567 267.985 C 1058.429 267.977, 1048.455 266.513, 1038.500 264.453 C 1017.876 260.186, 1002.102 259.217, 991.611 261.571" stroke="none" fill="#197fce" fill-rule="evenodd"/><path d="M 976.812 53.521 C 975.580 54.754, 979.206 66.777, 983.446 75.521 C 985.853 80.482, 989.679 86.557, 991.950 89.021 L 996.078 93.500 991.992 88 C 986.223 80.234, 980.355 67.680, 978.769 59.708 C 978.025 55.973, 977.145 53.189, 976.812 53.521 M 856.433 55.891 C 857.171 57.086, 853.524 65.223, 849.212 72 C 844.374 79.603, 832.783 91.324, 825 96.482 C 818.169 101.009, 808.894 105.248, 803 106.535 C 801.075 106.956, 800.060 107.494, 800.746 107.732 C 802.362 108.292, 811.139 105.405, 817.500 102.220 C 832.523 94.698, 847.509 79.200, 854.913 63.528 C 858.236 56.496, 858.591 55, 856.941 55 C 856.359 55, 856.130 55.401, 856.433 55.891 M 1050.017 77.358 C 1051.759 79.658, 1050.653 80.606, 1040.500 85.514 C 1030.323 90.433, 1023.068 92.126, 1009 92.867 C 998.122 93.440, 997.121 93.630, 1001.289 94.330 C 1013.693 96.413, 1040.420 89.219, 1050 81.217 C 1052.469 79.155, 1052.476 79.107, 1050.555 77.315 C 1048.672 75.558, 1048.655 75.560, 1050.017 77.358 M 923.417 191.500 C 923.418 201.950, 923.566 206.089, 923.746 200.698 C 923.926 195.307, 923.925 186.757, 923.744 181.698 C 923.563 176.639, 923.416 181.050, 923.417 191.500 M 815.657 265.009 C 811.893 265.473, 808.518 266.162, 808.157 266.539 C 807.796 266.917, 809.975 266.865, 813 266.423 C 816.025 265.981, 823.225 265.681, 829 265.757 C 864.298 266.216, 894.222 290.206, 904.562 326.333 C 905.657 330.158, 905.932 330.585, 905.620 327.976 C 904.965 322.495, 899.442 309.127, 895.095 302.500 C 877.106 275.080, 847.463 261.090, 815.657 265.009 M 1010 272.066 C 1008.625 272.470, 1005.362 272.845, 1002.750 272.900 C 999.239 272.974, 998 273.391, 998 274.500 C 998 275.426, 997.061 276, 995.547 276 C 992.286 276, 988 278.016, 988 279.549 C 988 280.225, 986.468 281.065, 984.597 281.416 C 982.725 281.767, 980.939 282.717, 980.628 283.527 C 980.317 284.337, 979.473 285, 978.752 285 C 978.031 285, 976.793 285.900, 976 287 C 975.207 288.100, 974.094 289, 973.526 289 C 971.828 289, 967.163 294.504, 966.448 297.350 C 966.022 299.048, 965.104 300, 963.892 300 C 962.351 300, 962 300.743, 962 304 C 962 306.739, 961.564 308, 960.617 308 C 958.919 308, 958.306 311.196, 958.987 316.500 L 959.500 320.500 984.750 320.642 L 1010 320.785 1010 318.392 C 1010 316.667, 1010.557 316, 1012 316 C 1013.100 316, 1014 316.450, 1014 317 C 1014 318.479, 1015.929 318.214, 1017.643 316.500 C 1018.468 315.675, 1020.011 315, 1021.071 315 C 1022.333 315, 1023 314.309, 1023 313 C 1023 311.667, 1023.667 311, 1025 311 C 1026.100 311, 1027 310.550, 1027 310 C 1027 309.450, 1028.125 309, 1029.500 309 C 1030.875 309, 1032 308.550, 1032 308 C 1032 307.450, 1032.852 307, 1033.893 307 C 1034.934 307, 1036.045 306.325, 1036.362 305.500 C 1036.736 304.524, 1038.432 303.952, 1041.219 303.864 C 1043.573 303.789, 1044.487 303.533, 1043.250 303.294 C 1041.848 303.024, 1041 302.137, 1041 300.939 C 1041 298.779, 1046.568 293, 1048.648 293 C 1049.555 293, 1050 291.705, 1050 289.070 C 1050 285.755, 1050.353 285.089, 1052.250 284.820 C 1054.094 284.558, 1054.500 283.868, 1054.500 281 L 1054.500 277.500 1047.211 276.500 C 1043.203 275.950, 1039.602 274.979, 1039.209 274.342 C 1038.177 272.666, 1014.290 270.805, 1010 272.066 M 2333.812 287.748 C 2342.233 287.916, 2355.733 287.915, 2363.812 287.748 C 2371.890 287.580, 2365 287.443, 2348.500 287.443 C 2332 287.444, 2325.390 287.581, 2333.812 287.748 M 981.582 325 C 965.697 325.362, 959.554 325.833, 959.262 326.710 C 958.958 327.625, 963.849 327.991, 979.271 328.210 C 1001.968 328.532, 1005.033 328.260, 1004.112 326 C 1003.585 324.709, 1000.445 324.570, 981.582 325" stroke="none" fill="#2b89d1" fill-rule="evenodd"/><path d="M 978.012 55.250 C 978.050 62.513, 984.871 78.503, 991.768 87.500 L 995.600 92.500 1008.050 92.462 C 1022.217 92.419, 1029.393 90.885, 1040.468 85.530 C 1052.731 79.601, 1052.603 79.994, 1044.692 72.616 C 1036.383 64.867, 1024.960 58.754, 1012.598 55.443 C 1005.211 53.463, 1001.102 53.005, 990.750 53.003 C 978.190 53, 978 53.034, 978.012 55.250 M 848.658 57.670 C 828.546 64.974, 808.617 83.897, 802.016 101.957 L 800.124 107.132 803.312 106.451 C 822.556 102.343, 845.874 82.050, 854.878 61.572 C 856.070 58.862, 856.697 56.316, 856.272 55.915 C 855.848 55.513, 852.421 56.303, 848.658 57.670 M 2367.750 110.746 L 2378 111.070 2378 117.035 L 2378 123 2367.243 123 L 2356.487 123 2337.993 132.490 C 2327.822 137.709, 2319.351 141.984, 2319.168 141.990 C 2318.985 141.995, 2318.985 138.891, 2319.168 135.092 C 2319.351 131.293, 2319.162 128.394, 2318.750 128.651 C 2317.742 129.279, 2317.787 141.750, 2318.799 142.376 C 2319.239 142.648, 2327.452 138.769, 2337.049 133.756 L 2354.500 124.643 2366.500 124.071 L 2378.500 123.500 2378.796 116.750 L 2379.091 110 2368.296 110.211 L 2357.500 110.422 2367.750 110.746 M 937 133.979 C 942.775 134.429, 950.457 135.736, 954.072 136.884 C 971.321 142.360, 985.861 157.849, 990.511 175.703 C 992.398 182.950, 992.437 200.770, 990.580 207.744 C 985.795 225.720, 972.210 240.223, 954.532 246.229 C 950.114 247.729, 947.217 248.967, 948.093 248.979 C 951.463 249.024, 961.688 244.787, 967.766 240.827 C 979.258 233.340, 989.012 219.678, 991.919 207 C 993.548 199.899, 993.247 181.203, 991.404 174.932 C 987.388 161.269, 978.767 149.684, 966.915 142.024 C 957.909 136.202, 949.638 133.837, 937 133.467 L 926.500 133.160 937 133.979 M 914.977 136.345 C 906.747 139.251, 898.812 144.382, 892.883 150.633 C 888.105 155.669, 883 162.774, 883 164.387 C 883 164.895, 884.722 162.646, 886.827 159.390 C 894.189 147.998, 907.189 138.839, 920.601 135.594 C 923.846 134.809, 925.375 134.139, 924 134.104 C 922.625 134.070, 918.565 135.079, 914.977 136.345 M 2375 136.082 C 2373.826 136.903, 2373.990 136.993, 2375.750 136.498 C 2377.913 135.890, 2378 136.110, 2378 142.203 L 2378 148.540 2372.250 150.520 L 2366.500 152.500 2366.500 163.500 L 2366.500 174.500 2372.250 176.480 L 2378 178.460 2378 184.837 C 2378 190.507, 2377.806 191.137, 2376.250 190.522 C 2364.117 185.728, 2334.654 175.013, 2334.374 175.292 C 2334.008 175.659, 2377.056 192, 2378.387 192 C 2378.772 192, 2378.955 188.773, 2378.794 184.830 L 2378.500 177.660 2372.750 175.747 L 2367 173.833 2367 163.500 L 2367 153.167 2372.750 151.250 L 2378.500 149.333 2378.500 142.500 C 2378.500 135.591, 2377.727 134.174, 2375 136.082 M 925.105 147.583 C 922.137 148.381, 917.412 150.262, 914.605 151.763 C 908.511 155.020, 898.945 164.191, 896.590 169.031 C 894.845 172.620, 895.549 171.868, 900.259 165.113 C 906.369 156.350, 920.212 148.574, 931.874 147.355 C 948.284 145.640, 967.059 157.066, 975.162 173.698 C 978.297 180.133, 978.476 181.093, 978.488 191.500 C 978.499 201.815, 978.301 202.921, 975.299 209.259 C 973.524 213.005, 969.742 218.507, 966.813 221.605 C 957.898 231.031, 949.568 234.924, 936 236.006 L 927.500 236.683 934.595 236.842 C 953.563 237.265, 971.555 224.045, 978.043 204.917 C 981.280 195.374, 980.506 182.942, 976.101 173.711 C 969.942 160.806, 958.233 151.119, 944.458 147.531 C 937.289 145.664, 932.190 145.677, 925.105 147.583 M 2349 158.065 C 2337.502 162.077, 2334.856 163.253, 2335.665 163.991 C 2336.124 164.409, 2340.325 165.999, 2345 167.522 C 2349.675 169.046, 2354.063 170.500, 2354.750 170.754 C 2355.681 171.096, 2356 169.271, 2356 163.607 C 2356 159.423, 2355.662 156.033, 2355.250 156.073 C 2354.838 156.113, 2352.025 157.010, 2349 158.065 M 2346.103 160.056 C 2341.484 161.654, 2337.520 163.146, 2337.295 163.372 C 2337.069 163.598, 2340.960 165.150, 2345.942 166.820 L 2355 169.858 2355 163.429 C 2355 159.893, 2354.887 157.034, 2354.750 157.075 C 2354.613 157.117, 2350.721 158.458, 2346.103 160.056 M 924.667 170.667 C 924.300 171.033, 924 180.660, 924 192.060 C 924 214.388, 923.913 214.029, 929.332 213.981 C 930.524 213.970, 937.237 209.705, 944.250 204.502 C 955.269 196.327, 956.998 194.666, 956.985 192.271 C 956.976 190.747, 956.639 189.001, 956.235 188.392 C 955.831 187.782, 950.160 183.395, 943.634 178.642 C 934.563 172.035, 931.011 170, 928.551 170 C 926.781 170, 925.033 170.300, 924.667 170.667 M 925.230 191.750 L 925.500 212.500 928.175 212.809 C 930.227 213.046, 933.781 210.988, 943.425 203.976 C 960.233 191.755, 960.227 192.087, 943.863 179.980 C 934.205 172.834, 931.035 171, 928.343 171 L 924.959 171 925.230 191.750 M 2368 206.500 L 2368 219 2344.122 219 C 2324.725 219, 2320.024 219.266, 2319.067 220.419 C 2318.389 221.236, 2318.019 224.098, 2318.195 227.169 L 2318.500 232.500 2348.750 232.765 L 2379 233.029 2379 213.515 C 2379 202.782, 2378.662 194, 2378.250 193.999 C 2377.838 193.998, 2377.631 202.548, 2377.792 212.999 L 2378.084 232 2348.492 232 L 2318.900 232 2319.200 226.250 L 2319.500 220.500 2344.195 220.233 L 2368.889 219.965 2369.195 206.981 C 2369.363 199.839, 2369.162 193.997, 2368.750 193.998 C 2368.338 193.999, 2368 199.625, 2368 206.500 M 898.772 217.531 C 904.230 225.593, 915.958 233.771, 924.500 235.472 C 926.150 235.800, 924.795 235.024, 921.489 233.747 C 913.673 230.728, 907.313 226.290, 901.450 219.763 C 898.849 216.869, 897.644 215.864, 898.772 217.531 M 886.972 225.826 C 887.621 227.105, 890.774 230.774, 893.980 233.980 C 900.156 240.156, 913.332 247.529, 920 248.539 C 922.474 248.914, 921.879 248.525, 917.972 247.212 C 906.065 243.210, 897.301 237.216, 889.146 227.497 C 887.302 225.299, 886.323 224.547, 886.972 225.826 M 2327.226 244.131 C 2325.425 245.284, 2322.725 248.314, 2321.226 250.864 C 2318.624 255.288, 2318.484 256.219, 2318.145 271.250 C 2317.950 279.913, 2318.175 286.999, 2318.645 286.998 C 2319.115 286.997, 2319.500 280.134, 2319.500 271.748 C 2319.500 258.011, 2319.720 256.053, 2321.722 251.991 C 2323.120 249.155, 2325.513 246.466, 2328.173 244.741 C 2330.498 243.234, 2331.973 242.008, 2331.450 242.017 C 2330.928 242.026, 2329.026 242.977, 2327.226 244.131 M 2343.669 256.392 C 2346.171 258.544, 2346.489 259.547, 2346.834 266.392 L 2347.219 274 2338.609 274 L 2330 274 2330 266.539 C 2330 260.109, 2330.311 258.779, 2332.250 256.916 C 2334.422 254.828, 2334.426 254.791, 2332.368 255.849 C 2329.463 257.341, 2329 258.960, 2329 267.619 L 2329 275.075 2338.250 274.788 L 2347.500 274.500 2347.815 269.503 C 2347.988 266.754, 2347.855 263.040, 2347.519 261.249 C 2346.940 258.161, 2343.631 254, 2341.756 254 C 2341.279 254, 2342.140 255.076, 2343.669 256.392 M 2357.434 265.500 L 2357.500 274.500 2367.703 274.784 L 2377.906 275.069 2378.260 281.284 L 2378.615 287.500 2378.807 280.750 L 2379 274 2368.539 274 L 2358.078 274 2357.723 265.250 L 2357.369 256.500 2357.434 265.500 M 816.021 266.110 C 810.179 266.798, 799.714 269.348, 798.287 270.431 C 797.877 270.742, 800.788 279.534, 802.615 283.500 C 805.468 289.697, 813.823 301.858, 818.383 306.452 C 823.105 311.209, 831.362 318, 832.424 318 C 832.820 318, 833.769 318.626, 834.534 319.391 C 836.382 321.239, 850.101 326.922, 857 328.698 C 860.417 329.577, 870.546 330.331, 883.750 330.689 C 908.589 331.361, 906.939 332.462, 901.913 318.572 C 889.078 283.101, 853.942 261.641, 816.021 266.110" stroke="none" fill="#4397d7" fill-rule="evenodd"/><path d="M 865.500 53.774 C 863.850 53.945, 861.825 54.321, 861 54.608 C 860.175 54.894, 859.275 55.159, 859 55.195 C 858.725 55.232, 857.440 57.790, 856.144 60.881 C 853.359 67.524, 846.764 77.715, 841.048 84.208 C 832.527 93.889, 816.301 104.200, 805.054 107.083 C 799.810 108.427, 798.389 110.476, 797.435 118.070 C 797.129 120.507, 796.696 123.063, 796.471 123.750 C 795.921 125.435, 805.119 125.355, 815.022 123.588 C 822.854 122.191, 835.349 117.737, 838.079 115.369 C 838.947 114.616, 840.084 114, 840.605 114 C 842.073 114, 854.711 103.651, 859.137 98.824 C 865.151 92.265, 868.819 86.669, 873.003 77.673 C 876.606 69.927, 880.419 55.488, 879.328 53.722 C 878.865 52.973, 872.986 52.995, 865.500 53.774 M 938 54.156 C 938 55.736, 942.321 61.341, 948.958 68.367 C 959.489 79.516, 972.188 86.952, 987.318 90.828 L 994.976 92.789 991.564 88.803 C 985.296 81.481, 977.413 64.008, 976.811 56.102 L 976.575 53 957.287 53 C 943.364 53, 938 53.321, 938 54.156 M 1049.500 81.646 C 1045.425 84.896, 1031.253 90.858, 1023.500 92.583 C 1019.100 93.562, 1011.595 94.394, 1006.822 94.432 C 996.763 94.511, 996.762 94.491, 1007.500 102.940 C 1019.284 112.210, 1030.155 116.894, 1044.880 119.044 C 1052.715 120.188, 1067.688 119.929, 1069.819 118.612 C 1070.656 118.095, 1069.418 112.392, 1066.431 103 C 1065.994 101.625, 1065.617 100.275, 1065.594 100 C 1065.571 99.725, 1064.640 98.451, 1063.526 97.170 C 1062.412 95.888, 1061.461 94.538, 1061.414 94.170 C 1061.221 92.676, 1059.528 89.467, 1057.916 87.543 C 1051.377 79.735, 1051.652 79.929, 1049.500 81.646 M 829.500 243.559 C 818.929 245.350, 811.010 248.172, 802.698 253.110 C 795.233 257.545, 795.711 256.336, 797.588 266.039 C 798.019 268.269, 798.619 268.949, 799.838 268.592 C 815.122 264.116, 832.869 263.292, 845.500 266.473 C 870.671 272.811, 891.823 291.255, 901.728 315.500 C 903.525 319.900, 905.260 325.075, 905.583 327 L 906.171 330.500 914.085 330.174 L 922 329.848 921.987 322.174 C 921.948 299.747, 912.297 278.153, 895.932 263.878 C 880.866 250.737, 871.390 246.124, 854 243.465 C 842.796 241.751, 840.109 241.762, 829.500 243.559 M 1007.500 269.559 C 1006.400 269.812, 1003.025 270.504, 1000 271.095 C 990.795 272.895, 978.763 279.315, 971.167 286.481 C 960.582 296.467, 955.852 306.989, 955.651 321 C 955.592 325.125, 955.936 329.124, 956.416 329.887 C 957.135 331.032, 961.418 331.180, 980.894 330.736 C 1003.551 330.219, 1012.456 329.130, 1019.500 326.014 C 1020.600 325.527, 1023.601 324.241, 1026.170 323.156 C 1039.028 317.724, 1057.140 301.090, 1061.464 290.741 C 1062.292 288.759, 1063.392 286.876, 1063.908 286.557 C 1064.424 286.238, 1065.142 284.632, 1065.503 282.989 C 1065.864 281.345, 1066.573 280, 1067.079 280 C 1067.586 280, 1067.996 279.438, 1067.990 278.750 C 1067.976 276.899, 1031.176 269.888, 1019.184 269.451 C 1013.858 269.257, 1008.600 269.306, 1007.500 269.559 M 1010 272.066 C 1008.625 272.470, 1005.362 272.845, 1002.750 272.900 C 999.239 272.974, 998 273.391, 998 274.500 C 998 275.426, 997.061 276, 995.547 276 C 992.286 276, 988 278.016, 988 279.549 C 988 280.225, 986.468 281.065, 984.597 281.416 C 982.725 281.767, 980.939 282.717, 980.628 283.527 C 980.317 284.337, 979.473 285, 978.752 285 C 978.031 285, 976.793 285.900, 976 287 C 975.207 288.100, 974.094 289, 973.526 289 C 971.828 289, 967.163 294.504, 966.448 297.350 C 966.022 299.048, 965.104 300, 963.892 300 C 962.351 300, 962 300.743, 962 304 C 962 306.739, 961.564 308, 960.617 308 C 958.919 308, 958.306 311.196, 958.987 316.500 L 959.500 320.500 984.750 320.642 L 1010 320.785 1010 318.392 C 1010 316.667, 1010.557 316, 1012 316 C 1013.100 316, 1014 316.450, 1014 317 C 1014 318.479, 1015.929 318.214, 1017.643 316.500 C 1018.468 315.675, 1020.011 315, 1021.071 315 C 1022.333 315, 1023 314.309, 1023 313 C 1023 311.667, 1023.667 311, 1025 311 C 1026.100 311, 1027 310.550, 1027 310 C 1027 309.450, 1028.125 309, 1029.500 309 C 1030.875 309, 1032 308.550, 1032 308 C 1032 307.450, 1032.852 307, 1033.893 307 C 1034.934 307, 1036.045 306.325, 1036.362 305.500 C 1036.736 304.524, 1038.432 303.952, 1041.219 303.864 C 1043.573 303.789, 1044.487 303.533, 1043.250 303.294 C 1041.848 303.024, 1041 302.137, 1041 300.939 C 1041 298.779, 1046.568 293, 1048.648 293 C 1049.555 293, 1050 291.705, 1050 289.070 C 1050 285.755, 1050.353 285.089, 1052.250 284.820 C 1054.094 284.558, 1054.500 283.868, 1054.500 281 L 1054.500 277.500 1047.211 276.500 C 1043.203 275.950, 1039.602 274.979, 1039.209 274.342 C 1038.177 272.666, 1014.290 270.805, 1010 272.066 M 981.582 325 C 965.697 325.362, 959.554 325.833, 959.262 326.710 C 958.958 327.625, 963.849 327.991, 979.271 328.210 C 1001.968 328.532, 1005.033 328.260, 1004.112 326 C 1003.585 324.709, 1000.445 324.570, 981.582 325" stroke="none" fill="#2787d1" fill-rule="evenodd"/><path d="M 865.500 53.774 C 863.850 53.945, 861.825 54.321, 861 54.608 C 860.175 54.894, 859.275 55.159, 859 55.195 C 858.725 55.232, 857.440 57.790, 856.144 60.881 C 853.359 67.524, 846.764 77.715, 841.048 84.208 C 832.527 93.889, 816.301 104.200, 805.054 107.083 C 799.810 108.427, 798.389 110.476, 797.435 118.070 C 797.129 120.507, 796.696 123.063, 796.471 123.750 C 795.921 125.435, 805.119 125.355, 815.022 123.588 C 822.854 122.191, 835.349 117.737, 838.079 115.369 C 838.947 114.616, 840.084 114, 840.605 114 C 842.073 114, 854.711 103.651, 859.137 98.824 C 865.151 92.265, 868.819 86.669, 873.003 77.673 C 876.606 69.927, 880.419 55.488, 879.328 53.722 C 878.865 52.973, 872.986 52.995, 865.500 53.774 M 938 54.156 C 938 55.736, 942.321 61.341, 948.958 68.367 C 959.489 79.516, 972.188 86.952, 987.318 90.828 L 994.976 92.789 991.564 88.803 C 985.296 81.481, 977.413 64.008, 976.811 56.102 L 976.575 53 957.287 53 C 943.364 53, 938 53.321, 938 54.156 M 1049.500 81.646 C 1045.425 84.896, 1031.253 90.858, 1023.500 92.583 C 1019.100 93.562, 1011.595 94.394, 1006.822 94.432 C 996.763 94.511, 996.762 94.491, 1007.500 102.940 C 1019.284 112.210, 1030.155 116.894, 1044.880 119.044 C 1052.715 120.188, 1067.688 119.929, 1069.819 118.612 C 1070.656 118.095, 1069.418 112.392, 1066.431 103 C 1065.994 101.625, 1065.617 100.275, 1065.594 100 C 1065.571 99.725, 1064.640 98.451, 1063.526 97.170 C 1062.412 95.888, 1061.461 94.538, 1061.414 94.170 C 1061.221 92.676, 1059.528 89.467, 1057.916 87.543 C 1051.377 79.735, 1051.652 79.929, 1049.500 81.646 M 829.500 243.559 C 818.929 245.350, 811.010 248.172, 802.698 253.110 C 795.233 257.545, 795.711 256.336, 797.588 266.039 C 798.019 268.269, 798.619 268.949, 799.838 268.592 C 815.122 264.116, 832.869 263.292, 845.500 266.473 C 870.671 272.811, 891.823 291.255, 901.728 315.500 C 903.525 319.900, 905.260 325.075, 905.583 327 L 906.171 330.500 914.085 330.174 L 922 329.848 921.987 322.174 C 921.948 299.747, 912.297 278.153, 895.932 263.878 C 880.866 250.737, 871.390 246.124, 854 243.465 C 842.796 241.751, 840.109 241.762, 829.500 243.559 M 1007.500 269.559 C 1006.400 269.812, 1003.025 270.504, 1000 271.095 C 990.795 272.895, 978.763 279.315, 971.167 286.481 C 960.582 296.467, 955.852 306.989, 955.651 321 C 955.592 325.125, 955.936 329.124, 956.416 329.887 C 957.135 331.032, 961.418 331.180, 980.894 330.736 C 1003.551 330.219, 1012.456 329.130, 1019.500 326.014 C 1020.600 325.527, 1023.601 324.241, 1026.170 323.156 C 1039.028 317.724, 1057.140 301.090, 1061.464 290.741 C 1062.292 288.759, 1063.392 286.876, 1063.908 286.557 C 1064.424 286.238, 1065.142 284.632, 1065.503 282.989 C 1065.864 281.345, 1066.573 280, 1067.079 280 C 1067.586 280, 1067.996 279.438, 1067.990 278.750 C 1067.976 276.899, 1031.176 269.888, 1019.184 269.451 C 1013.858 269.257, 1008.600 269.306, 1007.500 269.559 M 1010 272.066 C 1008.625 272.470, 1005.362 272.845, 1002.750 272.900 C 999.239 272.974, 998 273.391, 998 274.500 C 998 275.426, 997.061 276, 995.547 276 C 992.286 276, 988 278.016, 988 279.549 C 988 280.225, 986.468 281.065, 984.597 281.416 C 982.725 281.767, 980.939 282.717, 980.628 283.527 C 980.317 284.337, 979.473 285, 978.752 285 C 978.031 285, 976.793 285.900, 976 287 C 975.207 288.100, 974.094 289, 973.526 289 C 971.828 289, 967.163 294.504, 966.448 297.350 C 966.022 299.048, 965.104 300, 963.892 300 C 962.351 300, 962 300.743, 962 304 C 962 306.739, 961.564 308, 960.617 308 C 958.919 308, 958.306 311.196, 958.987 316.500 L 959.500 320.500 984.750 320.642 L 1010 320.785 1010 318.392 C 1010 316.667, 1010.557 316, 1012 316 C 1013.100 316, 1014 316.450, 1014 317 C 1014 318.479, 1015.929 318.214, 1017.643 316.500 C 1018.468 315.675, 1020.011 315, 1021.071 315 C 1022.333 315, 1023 314.309, 1023 313 C 1023 311.667, 1023.667 311, 1025 311 C 1026.100 311, 1027 310.550, 1027 310 C 1027 309.450, 1028.125 309, 1029.500 309 C 1030.875 309, 1032 308.550, 1032 308 C 1032 307.450, 1032.852 307, 1033.893 307 C 1034.934 307, 1036.045 306.325, 1036.362 305.500 C 1036.736 304.524, 1038.432 303.952, 1041.219 303.864 C 1043.573 303.789, 1044.487 303.533, 1043.250 303.294 C 1041.848 303.024, 1041 302.137, 1041 300.939 C 1041 298.779, 1046.568 293, 1048.648 293 C 1049.555 293, 1050 291.705, 1050 289.070 C 1050 285.755, 1050.353 285.089, 1052.250 284.820 C 1054.094 284.558, 1054.500 283.868, 1054.500 281 L 1054.500 277.500 1047.211 276.500 C 1043.203 275.950, 1039.602 274.979, 1039.209 274.342 C 1038.177 272.666, 1014.290 270.805, 1010 272.066 M 981.582 325 C 965.697 325.362, 959.554 325.833, 959.262 326.710 C 958.958 327.625, 963.849 327.991, 979.271 328.210 C 1001.968 328.532, 1005.033 328.260, 1004.112 326 C 1003.585 324.709, 1000.445 324.570, 981.582 325" stroke="none" fill="#2787d1" fill-rule="evenodd"/><path d="M 978.012 55.250 C 978.050 62.513, 984.871 78.503, 991.768 87.500 L 995.600 92.500 1008.050 92.462 C 1022.217 92.419, 1029.393 90.885, 1040.468 85.530 C 1052.731 79.601, 1052.603 79.994, 1044.692 72.616 C 1036.383 64.867, 1024.960 58.754, 1012.598 55.443 C 1005.211 53.463, 1001.102 53.005, 990.750 53.003 C 978.190 53, 978 53.034, 978.012 55.250 M 848.658 57.670 C 828.546 64.974, 808.617 83.897, 802.016 101.957 L 800.124 107.132 803.312 106.451 C 822.556 102.343, 845.874 82.050, 854.878 61.572 C 856.070 58.862, 856.697 56.316, 856.272 55.915 C 855.848 55.513, 852.421 56.303, 848.658 57.670 M 2367.750 110.746 L 2378 111.070 2378 117.035 L 2378 123 2367.243 123 L 2356.487 123 2337.993 132.490 C 2327.822 137.709, 2319.351 141.984, 2319.168 141.990 C 2318.985 141.995, 2318.985 138.891, 2319.168 135.092 C 2319.351 131.293, 2319.162 128.394, 2318.750 128.651 C 2317.742 129.279, 2317.787 141.750, 2318.799 142.376 C 2319.239 142.648, 2327.452 138.769, 2337.049 133.756 L 2354.500 124.643 2366.500 124.071 L 2378.500 123.500 2378.796 116.750 L 2379.091 110 2368.296 110.211 L 2357.500 110.422 2367.750 110.746 M 937 133.979 C 942.775 134.429, 950.457 135.736, 954.072 136.884 C 971.321 142.360, 985.861 157.849, 990.511 175.703 C 992.398 182.950, 992.437 200.770, 990.580 207.744 C 985.795 225.720, 972.210 240.223, 954.532 246.229 C 950.114 247.729, 947.217 248.967, 948.093 248.979 C 951.463 249.024, 961.688 244.787, 967.766 240.827 C 979.258 233.340, 989.012 219.678, 991.919 207 C 993.548 199.899, 993.247 181.203, 991.404 174.932 C 987.388 161.269, 978.767 149.684, 966.915 142.024 C 957.909 136.202, 949.638 133.837, 937 133.467 L 926.500 133.160 937 133.979 M 914.977 136.345 C 906.747 139.251, 898.812 144.382, 892.883 150.633 C 888.105 155.669, 883 162.774, 883 164.387 C 883 164.895, 884.722 162.646, 886.827 159.390 C 894.189 147.998, 907.189 138.839, 920.601 135.594 C 923.846 134.809, 925.375 134.139, 924 134.104 C 922.625 134.070, 918.565 135.079, 914.977 136.345 M 2375 136.082 C 2373.826 136.903, 2373.990 136.993, 2375.750 136.498 C 2377.913 135.890, 2378 136.110, 2378 142.203 L 2378 148.540 2372.250 150.520 L 2366.500 152.500 2366.500 163.500 L 2366.500 174.500 2372.250 176.480 L 2378 178.460 2378 184.837 C 2378 190.507, 2377.806 191.137, 2376.250 190.522 C 2364.117 185.728, 2334.654 175.013, 2334.374 175.292 C 2334.008 175.659, 2377.056 192, 2378.387 192 C 2378.772 192, 2378.955 188.773, 2378.794 184.830 L 2378.500 177.660 2372.750 175.747 L 2367 173.833 2367 163.500 L 2367 153.167 2372.750 151.250 L 2378.500 149.333 2378.500 142.500 C 2378.500 135.591, 2377.727 134.174, 2375 136.082 M 925.105 147.583 C 922.137 148.381, 917.412 150.262, 914.605 151.763 C 908.511 155.020, 898.945 164.191, 896.590 169.031 C 894.845 172.620, 895.549 171.868, 900.259 165.113 C 906.369 156.350, 920.212 148.574, 931.874 147.355 C 948.284 145.640, 967.059 157.066, 975.162 173.698 C 978.297 180.133, 978.476 181.093, 978.488 191.500 C 978.499 201.815, 978.301 202.921, 975.299 209.259 C 973.524 213.005, 969.742 218.507, 966.813 221.605 C 957.898 231.031, 949.568 234.924, 936 236.006 L 927.500 236.683 934.595 236.842 C 953.563 237.265, 971.555 224.045, 978.043 204.917 C 981.280 195.374, 980.506 182.942, 976.101 173.711 C 969.942 160.806, 958.233 151.119, 944.458 147.531 C 937.289 145.664, 932.190 145.677, 925.105 147.583 M 2349 158.065 C 2337.502 162.077, 2334.856 163.253, 2335.665 163.991 C 2336.124 164.409, 2340.325 165.999, 2345 167.522 C 2349.675 169.046, 2354.063 170.500, 2354.750 170.754 C 2355.681 171.096, 2356 169.271, 2356 163.607 C 2356 159.423, 2355.662 156.033, 2355.250 156.073 C 2354.838 156.113, 2352.025 157.010, 2349 158.065 M 2346.103 160.056 C 2341.484 161.654, 2337.520 163.146, 2337.295 163.372 C 2337.069 163.598, 2340.960 165.150, 2345.942 166.820 L 2355 169.858 2355 163.429 C 2355 159.893, 2354.887 157.034, 2354.750 157.075 C 2354.613 157.117, 2350.721 158.458, 2346.103 160.056 M 924.667 170.667 C 924.300 171.033, 924 180.660, 924 192.060 C 924 214.388, 923.913 214.029, 929.332 213.981 C 930.524 213.970, 937.237 209.705, 944.250 204.502 C 955.269 196.327, 956.998 194.666, 956.985 192.271 C 956.976 190.747, 956.639 189.001, 956.235 188.392 C 955.831 187.782, 950.160 183.395, 943.634 178.642 C 934.563 172.035, 931.011 170, 928.551 170 C 926.781 170, 925.033 170.300, 924.667 170.667 M 925.230 191.750 L 925.500 212.500 928.175 212.809 C 930.227 213.046, 933.781 210.988, 943.425 203.976 C 960.233 191.755, 960.227 192.087, 943.863 179.980 C 934.205 172.834, 931.035 171, 928.343 171 L 924.959 171 925.230 191.750 M 2368 206.500 L 2368 219 2344.122 219 C 2324.725 219, 2320.024 219.266, 2319.067 220.419 C 2318.389 221.236, 2318.019 224.098, 2318.195 227.169 L 2318.500 232.500 2348.750 232.765 L 2379 233.029 2379 213.515 C 2379 202.782, 2378.662 194, 2378.250 193.999 C 2377.838 193.998, 2377.631 202.548, 2377.792 212.999 L 2378.084 232 2348.492 232 L 2318.900 232 2319.200 226.250 L 2319.500 220.500 2344.195 220.233 L 2368.889 219.965 2369.195 206.981 C 2369.363 199.839, 2369.162 193.997, 2368.750 193.998 C 2368.338 193.999, 2368 199.625, 2368 206.500 M 898.772 217.531 C 904.230 225.593, 915.958 233.771, 924.500 235.472 C 926.150 235.800, 924.795 235.024, 921.489 233.747 C 913.673 230.728, 907.313 226.290, 901.450 219.763 C 898.849 216.869, 897.644 215.864, 898.772 217.531 M 886.972 225.826 C 887.621 227.105, 890.774 230.774, 893.980 233.980 C 900.156 240.156, 913.332 247.529, 920 248.539 C 922.474 248.914, 921.879 248.525, 917.972 247.212 C 906.065 243.210, 897.301 237.216, 889.146 227.497 C 887.302 225.299, 886.323 224.547, 886.972 225.826 M 2327.226 244.131 C 2325.425 245.284, 2322.725 248.314, 2321.226 250.864 C 2318.624 255.288, 2318.484 256.219, 2318.145 271.250 C 2317.950 279.913, 2318.175 286.999, 2318.645 286.998 C 2319.115 286.997, 2319.500 280.134, 2319.500 271.748 C 2319.500 258.011, 2319.720 256.053, 2321.722 251.991 C 2323.120 249.155, 2325.513 246.466, 2328.173 244.741 C 2330.498 243.234, 2331.973 242.008, 2331.450 242.017 C 2330.928 242.026, 2329.026 242.977, 2327.226 244.131 M 2343.669 256.392 C 2346.171 258.544, 2346.489 259.547, 2346.834 266.392 L 2347.219 274 2338.609 274 L 2330 274 2330 266.539 C 2330 260.109, 2330.311 258.779, 2332.250 256.916 C 2334.422 254.828, 2334.426 254.791, 2332.368 255.849 C 2329.463 257.341, 2329 258.960, 2329 267.619 L 2329 275.075 2338.250 274.788 L 2347.500 274.500 2347.815 269.503 C 2347.988 266.754, 2347.855 263.040, 2347.519 261.249 C 2346.940 258.161, 2343.631 254, 2341.756 254 C 2341.279 254, 2342.140 255.076, 2343.669 256.392 M 2357.434 265.500 L 2357.500 274.500 2367.703 274.784 L 2377.906 275.069 2378.260 281.284 L 2378.615 287.500 2378.807 280.750 L 2379 274 2368.539 274 L 2358.078 274 2357.723 265.250 L 2357.369 256.500 2357.434 265.500 M 816.021 266.110 C 810.179 266.798, 799.714 269.348, 798.287 270.431 C 797.877 270.742, 800.788 279.534, 802.615 283.500 C 805.468 289.697, 813.823 301.858, 818.383 306.452 C 823.105 311.209, 831.362 318, 832.424 318 C 832.820 318, 833.769 318.626, 834.534 319.391 C 836.382 321.239, 850.101 326.922, 857 328.698 C 860.417 329.577, 870.546 330.331, 883.750 330.689 C 908.589 331.361, 906.939 332.462, 901.913 318.572 C 889.078 283.101, 853.942 261.641, 816.021 266.110" stroke="none" fill="#4397d7" fill-rule="evenodd"/><path d="M 1196 89.608 C 1181.405 92.271, 1168.674 97.251, 1157.108 104.822 C 1137.199 117.855, 1122.179 138.467, 1115.807 161.500 C 1113.867 168.513, 1113.597 171.906, 1113.618 189 C 1113.645 212.035, 1114.936 218.338, 1122.960 234.617 C 1136.789 262.673, 1162.918 282.550, 1192.500 287.519 C 1211.210 290.661, 1224.377 290.226, 1241.865 285.888 C 1256.260 282.317, 1272.512 274.205, 1282.500 265.605 L 1286.500 262.161 1283.432 258.831 C 1281.745 256.999, 1275.911 250.550, 1270.467 244.500 C 1265.024 238.450, 1259.960 233.348, 1259.214 233.163 C 1258.469 232.978, 1256.203 233.924, 1254.179 235.266 C 1243.236 242.525, 1234.136 245.795, 1220.666 247.311 C 1189.472 250.822, 1164.002 234.848, 1156.392 207 C 1153.913 197.928, 1153.902 178.703, 1156.371 170.500 C 1164.334 144.048, 1187.752 128.551, 1217 130.376 C 1230.888 131.243, 1242.063 134.952, 1253.344 142.441 C 1256.294 144.398, 1258.912 146, 1259.162 146 C 1259.412 146, 1263.923 141.162, 1269.186 135.250 C 1274.449 129.338, 1280.374 122.700, 1282.354 120.500 C 1284.334 118.300, 1285.964 116.198, 1285.977 115.830 C 1286.035 114.162, 1271.534 104.425, 1262.225 99.881 C 1246.492 92.200, 1236.107 89.890, 1215.500 89.485 C 1206.150 89.302, 1197.375 89.357, 1196 89.608 M 1385.743 113.231 C 1343.508 219.600, 1328.415 257.629, 1323.025 271.259 C 1319.597 279.926, 1317.050 287.689, 1317.365 288.509 C 1317.846 289.763, 1321.181 290, 1338.346 290 C 1353.715 290, 1359.018 289.684, 1359.818 288.719 C 1360.403 288.015, 1363.359 281.152, 1366.387 273.469 L 1371.893 259.500 1415.906 259.240 C 1457.052 258.996, 1459.980 259.094, 1460.860 260.740 C 1461.378 261.708, 1463.935 268.125, 1466.543 275 C 1469.151 281.875, 1471.726 288.063, 1472.265 288.750 C 1473.403 290.202, 1512.571 290.558, 1514.811 289.138 C 1515.824 288.496, 1513.056 280.571, 1502.681 254.403 C 1495.288 235.756, 1484.156 207.675, 1477.944 192 C 1471.732 176.325, 1460.020 146.850, 1451.918 126.500 L 1437.186 89.500 1416.283 89.231 L 1395.379 88.961 1385.743 113.231 M 1542.673 89.660 C 1542.303 90.030, 1542 134.985, 1542 189.560 C 1542 279.119, 1542.154 288.845, 1543.582 289.393 C 1545.644 290.184, 1580.356 290.184, 1582.418 289.393 C 1583.825 288.853, 1584 284.261, 1584 247.905 L 1584 207.025 1620.750 206.762 L 1657.500 206.500 1657.785 189.500 C 1657.942 180.150, 1657.821 171.488, 1657.516 170.250 L 1656.962 168 1620.481 168 L 1584 168 1584 148 L 1584 128 1632.878 128 C 1673.230 128, 1681.955 127.759, 1682.901 126.619 C 1683.692 125.666, 1683.962 119.701, 1683.774 107.369 L 1683.500 89.500 1613.423 89.243 C 1574.881 89.102, 1543.044 89.290, 1542.673 89.660 M 1709.245 189.244 L 1709.500 289.500 1781.890 289.757 C 1835.210 289.946, 1854.643 289.711, 1855.662 288.866 C 1856.764 287.951, 1856.989 284.054, 1856.772 269.609 L 1856.500 251.500 1803.750 251.241 L 1751 250.982 1751 229.003 L 1751 207.023 1790.250 206.762 L 1829.500 206.500 1829.500 187.500 L 1829.500 168.500 1790.250 168.238 L 1751 167.977 1751 147.988 L 1751 128 1802.750 127.985 C 1831.213 127.976, 1855.073 127.606, 1855.773 127.161 C 1856.746 126.544, 1856.982 121.999, 1856.773 107.927 L 1856.500 89.500 1782.745 89.244 L 1708.990 88.987 1709.245 189.244 M 1890.245 189.206 L 1890.500 289.500 1950.500 289.500 C 2009.551 289.500, 2010.634 289.464, 2019 287.248 C 2031.373 283.971, 2039.505 279.643, 2046.621 272.547 C 2056.369 262.827, 2061.718 250.164, 2062.701 234.484 C 2063.785 217.186, 2058.668 204.382, 2045.519 191.493 L 2037.350 183.485 2041.171 178.661 C 2047.042 171.249, 2049.511 162.104, 2049.450 148 C 2049.328 119.821, 2037.762 100.869, 2015.379 92.173 L 2008.500 89.500 1949.245 89.206 L 1889.990 88.911 1890.245 189.206 M 2100.245 189.230 L 2100.500 289.500 2173.500 289.500 L 2246.500 289.500 2246.772 270.250 L 2247.043 251 2194.528 251 L 2142.012 251 2141.756 170.250 L 2141.500 89.500 2120.745 89.230 L 2099.990 88.959 2100.245 189.230 M 2319.202 98.186 L 2319.500 104.372 2331.803 110.071 C 2338.570 113.206, 2344.129 116.159, 2344.156 116.635 C 2344.184 117.111, 2338.647 120.075, 2331.853 123.222 L 2319.500 128.944 2319.204 135.472 C 2319.042 139.063, 2319.042 141.995, 2319.204 141.990 C 2319.367 141.984, 2327.822 137.709, 2337.993 132.490 L 2356.487 123 2367.243 123 L 2378 123 2378 117 L 2378 111 2367.931 111 L 2357.863 111 2339.371 101.500 C 2329.200 96.275, 2320.435 92, 2319.892 92 C 2319.316 92, 2319.029 94.581, 2319.202 98.186 M 1932 149 L 1932 168 1962.532 168 C 1987.828 168, 1993.700 167.735, 1996.768 166.452 C 2003.892 163.476, 2007.387 158.681, 2009.071 149.576 C 2010.333 142.746, 2008.299 136.948, 2003.649 134.128 C 1997.968 130.683, 1990.908 130, 1960.951 130 L 1932 130 1932 149 M 920.601 135.594 C 901.925 140.113, 887.118 153.782, 880.459 172.651 C 878.445 178.360, 878.039 181.426, 878.021 191.068 C 877.997 204.198, 879.294 209.867, 884.680 220.174 C 891.175 232.602, 904.433 243.142, 918.932 247.404 C 927.728 249.989, 944.093 249.570, 953.776 246.511 C 971.555 240.894, 985.730 225.964, 990.580 207.744 C 992.437 200.770, 992.398 182.950, 990.511 175.703 C 987.985 166.004, 983.295 158.066, 975.611 150.483 C 971.700 146.623, 966.171 142.226, 963.325 140.711 C 951.725 134.537, 933.828 132.393, 920.601 135.594 M 2349.500 146.432 C 2334.650 152.094, 2321.692 157.069, 2320.704 157.488 C 2319.228 158.114, 2318.960 159.234, 2319.204 163.775 L 2319.500 169.301 2348.500 180.130 C 2364.450 186.087, 2377.613 190.969, 2377.750 190.980 C 2377.887 190.991, 2378 188.178, 2378 184.730 L 2378 178.460 2372.250 176.480 L 2366.500 174.500 2366.500 163.500 L 2366.500 152.500 2372.250 150.520 L 2378 148.540 2378 142.270 C 2378 138.822, 2377.662 136.031, 2377.250 136.069 C 2376.838 136.107, 2364.350 140.771, 2349.500 146.432 M 925.105 147.583 C 908.952 151.926, 895.713 165.233, 891.361 181.500 C 887.314 196.628, 892.477 212.595, 905.352 224.771 C 925.766 244.079, 956.108 240.051, 972.779 215.821 C 980.997 203.876, 982.345 186.794, 976.101 173.711 C 969.942 160.806, 958.233 151.119, 944.458 147.531 C 937.289 145.664, 932.190 145.677, 925.105 147.583 M 1416.233 148.017 C 1394.379 202.701, 1389.027 216.360, 1389.331 216.664 C 1389.533 216.867, 1402.102 216.912, 1417.261 216.766 L 1444.823 216.500 1431.487 182.225 C 1424.152 163.374, 1417.945 147.399, 1417.694 146.725 C 1417.438 146.037, 1416.798 146.602, 1416.233 148.017 M 2349 158.065 C 2337.502 162.077, 2334.856 163.253, 2335.665 163.991 C 2336.124 164.409, 2340.325 165.999, 2345 167.522 C 2349.675 169.046, 2354.063 170.500, 2354.750 170.754 C 2355.681 171.096, 2356 169.271, 2356 163.607 C 2356 159.423, 2355.662 156.033, 2355.250 156.073 C 2354.838 156.113, 2352.025 157.010, 2349 158.065 M 925.230 191.750 L 925.500 212.500 928.175 212.809 C 930.227 213.046, 933.781 210.988, 943.425 203.976 C 960.233 191.755, 960.227 192.087, 943.863 179.980 C 934.205 172.834, 931.035 171, 928.343 171 L 924.959 171 925.230 191.750 M 2369.714 194.619 C 2369.321 195.012, 2369 200.875, 2369 207.649 L 2369 219.965 2344.250 220.233 L 2319.500 220.500 2319.200 226.250 L 2318.900 232 2348.472 232 L 2378.044 232 2377.772 213.250 L 2377.500 194.500 2373.964 194.202 C 2372.020 194.039, 2370.107 194.226, 2369.714 194.619 M 1932 233.434 L 1932 257 1963.250 256.992 C 1980.438 256.988, 1997.425 256.512, 2001 255.935 C 2012.741 254.038, 2018.629 248.830, 2021.585 237.725 C 2024.926 225.177, 2021.781 217.719, 2011 212.626 C 2006.705 210.597, 2004.806 210.486, 1969.250 210.184 L 1932 209.869 1932 233.434 M 2334.245 241.980 C 2329.058 243.206, 2324.150 247.138, 2321.735 252 C 2319.721 256.055, 2319.500 257.983, 2319.500 271.500 L 2319.500 286.500 2348.750 286.765 L 2378 287.030 2378 281.050 L 2378 275.070 2367.750 274.785 L 2357.500 274.500 2356.973 264.500 C 2356.443 254.430, 2355.527 251.461, 2351.625 247.155 C 2347.533 242.639, 2340.417 240.520, 2334.245 241.980 M 2333.500 255.155 C 2329.735 257.214, 2329 259.186, 2329 267.229 L 2329 275.075 2338.250 274.788 L 2347.500 274.500 2347.815 269.503 C 2348.250 262.601, 2347.289 258.348, 2344.765 255.996 C 2342.393 253.786, 2336.770 253.366, 2333.500 255.155" stroke="none" fill="#fafbfb" fill-rule="evenodd"/><path d="M 879.736 54.398 C 880.442 58.090, 876.412 72.682, 872.468 80.715 C 864.930 96.068, 850.314 110.457, 834.690 117.905 C 824.969 122.540, 816.207 124.821, 804.839 125.676 C 800.252 126.021, 796.169 126.798, 795.765 127.402 C 794.741 128.932, 794.808 254.763, 795.833 255.397 C 796.291 255.680, 798.331 254.780, 800.366 253.397 C 818.744 240.909, 850.512 238.284, 872.946 247.400 C 888.935 253.897, 906.542 270.383, 914.331 286.150 C 920.212 298.057, 922.247 306.668, 922.388 320.243 L 922.500 330.987 938.809 330.993 C 948.932 330.998, 954.894 330.637, 954.527 330.044 C 954.202 329.518, 953.306 329.329, 952.536 329.625 C 949.903 330.635, 947.654 324.156, 947.192 314.233 C 946.833 306.531, 947.144 303.771, 949.036 297.889 C 953.415 284.270, 962.432 274.324, 977.079 266.960 C 993.266 258.822, 1007.623 258.224, 1038.159 264.418 C 1048.538 266.523, 1058.731 268, 1062.884 268 L 1069.950 268 1068.975 270.565 C 1068.439 271.976, 1068.034 274.113, 1068.076 275.315 C 1068.118 276.517, 1069.107 274.575, 1070.274 271 C 1072.331 264.698, 1072.407 262.501, 1072.772 199 C 1072.978 162.975, 1072.851 130.239, 1072.489 126.252 L 1071.830 119.005 1069.165 119.723 C 1064.487 120.984, 1045.759 120.338, 1038.035 118.650 C 1025.179 115.840, 1013.214 109.341, 1001.304 98.700 C 996.164 94.107, 994.120 92.962, 989.304 91.978 C 979.959 90.068, 968.751 85.307, 961.368 80.114 C 949.907 72.051, 935.711 55.895, 937.518 52.971 C 937.901 52.352, 927.463 52, 908.698 52 L 879.277 52 879.736 54.398 M 2304.500 79.908 C 2299.473 81.177, 2295.332 83.774, 2292.118 87.673 C 2285.753 95.395, 2286 91.164, 2286 192.518 L 2286 284.681 2289.015 290.715 C 2292.712 298.113, 2297.721 301.861, 2306.319 303.663 C 2314.335 305.343, 2373.477 305.513, 2381.201 303.878 C 2390.472 301.916, 2395.027 298.559, 2399.353 290.500 L 2401.500 286.500 2401.500 191.500 C 2401.500 100.726, 2401.417 96.344, 2399.636 93 C 2397.027 88.101, 2393.180 84.184, 2388.500 81.658 C 2384.618 79.563, 2383.368 79.495, 2346 79.325 C 2324.825 79.229, 2306.150 79.492, 2304.500 79.908 M 2318 97.553 L 2318 105.106 2330.250 110.922 L 2342.500 116.738 2334.500 120.469 C 2330.100 122.521, 2324.588 125.039, 2322.250 126.065 L 2318 127.929 2318 135.464 C 2318 143.976, 2318.798 144.640, 2324.700 141.042 C 2326.459 139.969, 2334.625 135.695, 2342.845 131.545 L 2357.792 124 2368.289 124 C 2380.054 124, 2380 124.034, 2380 116.500 C 2380 108.928, 2380.117 109, 2367.728 109 L 2356.671 109 2338.372 99.500 C 2328.307 94.275, 2319.606 90, 2319.036 90 C 2318.413 90, 2318 93.008, 2318 97.553 M 929.500 132.645 C 914.590 134.365, 903.173 139.697, 893.500 149.457 C 881.373 161.692, 876.878 172.835, 876.739 191 C 876.614 207.347, 880.522 219.153, 889.756 230.328 C 903.905 247.450, 927.977 254.815, 950.562 248.932 C 971.132 243.574, 987.206 227.663, 992.472 207.448 C 994.425 199.949, 994.419 184.403, 992.460 176.093 C 987.849 156.533, 971.011 139.536, 951.429 134.676 C 945.007 133.082, 934.303 132.091, 929.500 132.645 M 2347 145.901 L 2318.500 156.700 2318.500 163.447 L 2318.500 170.194 2347.807 181.182 C 2363.925 187.226, 2377.763 191.921, 2378.557 191.617 C 2380.107 191.022, 2380.645 180.524, 2379.235 178.386 C 2378.831 177.773, 2376.025 176.406, 2373 175.348 L 2367.500 173.424 2367.500 163.573 L 2367.500 153.722 2373 151.664 C 2376.025 150.532, 2378.841 149.132, 2379.259 148.553 C 2379.676 147.974, 2379.901 144.800, 2379.759 141.500 C 2379.536 136.331, 2379.223 135.472, 2377.500 135.301 C 2376.400 135.192, 2362.675 139.962, 2347 145.901 M 922.549 150.113 C 906.196 155.737, 894.302 169.716, 891.997 186.021 C 888.819 208.504, 905.887 230.784, 929.654 235.179 C 934.834 236.137, 936.970 236.040, 943.154 234.565 C 952.158 232.417, 957.786 229.271, 965.132 222.280 C 975.355 212.552, 980.547 197.540, 978.061 184.902 C 972.915 158.746, 946.176 141.989, 922.549 150.113 M 2345.602 160.759 L 2337.705 163.310 2345.602 166.128 C 2349.946 167.678, 2353.838 168.958, 2354.250 168.973 C 2354.662 168.988, 2355 166.525, 2355 163.500 C 2355 160.475, 2354.662 158.047, 2354.250 158.104 C 2353.838 158.162, 2349.946 159.356, 2345.602 160.759 M 924.750 170.080 C 923.175 170.998, 923 173.119, 923 191.350 C 923 205.767, 923.346 211.946, 924.200 212.800 C 924.860 213.460, 926.922 214, 928.782 214 C 931.415 214, 934.711 212.183, 943.670 205.793 C 962.996 192.009, 962.990 191.898, 942.049 176.623 C 931.604 169.005, 928.568 167.857, 924.750 170.080 M 2367.667 193.667 C 2367.300 194.033, 2367 199.875, 2367 206.649 L 2367 218.964 2342.750 219.232 L 2318.500 219.500 2318.204 226.265 L 2317.908 233.029 2348.704 232.765 L 2379.500 232.500 2379.785 215 C 2379.942 205.375, 2379.820 196.488, 2379.516 195.250 C 2379.028 193.268, 2378.328 193, 2373.648 193 C 2370.725 193, 2368.033 193.300, 2367.667 193.667 M 2331.625 241.469 C 2329.493 242.229, 2326.236 244.317, 2324.387 246.109 C 2318.808 251.517, 2317.893 255.430, 2318.216 272.500 L 2318.500 287.500 2349 287.500 L 2379.500 287.500 2379.802 281.666 C 2380.226 273.484, 2379.596 273, 2368.527 273 L 2359.299 273 2358.659 263.979 C 2358.238 258.049, 2357.345 253.637, 2356.053 251.104 C 2351.364 241.913, 2341.403 237.984, 2331.625 241.469 M 2334.867 255.833 C 2331.163 257.699, 2330.247 259.988, 2330.100 267.750 L 2330 273 2338 273 L 2346 273 2346 266.434 C 2346 258.701, 2345.073 256.570, 2341.110 255.188 C 2338.827 254.392, 2337.443 254.535, 2334.867 255.833" stroke="none" fill="#117acc" fill-rule="evenodd"/></svg>